<svg width="37" height="20" viewBox="0 0 37 20" fill="none" xmlns="http://www.w3.org/2000/svg">
<g clip-path="url(#clip0_88_6948)">
<path d="M11.6668 11.8773V13.619C10.9126 13.3523 10.1054 13.2705 9.313 13.3805C8.52061 13.4904 7.76616 13.7889 7.11302 14.2508C6.45988 14.7128 5.92712 15.3247 5.55946 16.0352C5.19181 16.7457 5.00001 17.534 5.00016 18.334L3.3335 18.3331C3.33324 17.3156 3.56593 16.3114 4.01375 15.3976C4.46156 14.4839 5.11261 13.6848 5.91701 13.0615C6.72141 12.4383 7.65781 12.0074 8.65446 11.802C9.6511 11.5966 10.6815 11.6229 11.6668 11.8773ZM10.0002 10.834C7.23766 10.834 5.00016 8.59648 5.00016 5.83398C5.00016 3.07148 7.23766 0.833984 10.0002 0.833984C12.7627 0.833984 15.0002 3.07148 15.0002 5.83398C15.0002 8.59648 12.7627 10.834 10.0002 10.834ZM10.0002 9.16732C11.8418 9.16732 13.3335 7.67565 13.3335 5.83398C13.3335 3.99232 11.8418 2.50065 10.0002 2.50065C8.1585 2.50065 6.66683 3.99232 6.66683 5.83398C6.66683 7.67565 8.1585 9.16732 10.0002 9.16732ZM14.8277 16.5956L17.7735 13.6498L18.9527 14.8281L14.8277 18.9531L11.881 16.0065L13.0602 14.8281L14.8277 16.5956Z" fill="#CC42BD"/>
</g>
<defs>
<clipPath id="clip0_88_6948">
<rect width="20" height="20" fill="white"/>
</clipPath>
</defs>
</svg>
