<svg width="474" height="254" viewBox="0 0 474 254" fill="none" xmlns="http://www.w3.org/2000/svg">
<g clip-path="url(#clip0_117_404)">
<g clip-path="url(#clip1_117_404)">
<g clip-path="url(#clip2_117_404)">
<path d="M434.465 124.642L430.252 115.865C430.14 115.641 429.916 115.498 429.677 115.498C429.438 115.498 429.214 115.641 429.102 115.865L424.889 124.642C424.793 124.85 424.809 125.073 424.921 125.265C425.033 125.456 425.24 125.568 425.464 125.568H429.166C410.318 210.089 336.794 251.391 268.743 251.391C263.812 251.391 258.912 251.168 254.076 250.737C217.37 247.465 176.897 230.564 146.223 195.47C156.517 203.13 167.178 209.45 178.014 214.286C190.223 219.728 202.751 223.351 215.263 225.058C220.833 225.808 226.387 226.191 231.925 226.191C249.448 226.191 266.652 222.409 282.388 215.052C301.252 206.21 317.339 192.645 328.878 175.792C340.177 159.322 346.481 140.586 347.199 121.514H351.013C351.237 121.514 351.444 121.403 351.556 121.211C351.668 121.019 351.684 120.78 351.588 120.589L347.199 111.444C347.087 111.22 346.864 111.077 346.625 111.077C346.385 111.077 346.162 111.22 346.05 111.444L341.677 120.589C341.581 120.796 341.597 121.019 341.709 121.211C341.821 121.403 342.028 121.514 342.252 121.514H345.922C344.422 160.184 319.478 196.252 281.846 213.887C237.622 234.602 186.888 226.223 142.409 190.937C117.337 160.12 99.6061 116.28 97.3399 56.7034C97.3399 56.5278 97.2441 56.3523 97.1165 56.2406C96.9728 56.1289 96.7973 56.081 96.6217 56.0969C87.0461 57.2301 75.9384 57.5652 63.6178 57.0705C56.085 56.7513 50.1163 55.6341 45.3763 53.6392C38.9766 50.9421 35.0347 46.649 33.6781 40.8717C29.6085 23.6197 51.5686 15.1294 65.0063 11.6023C76.2896 8.6339 88.5304 6.59111 102.431 5.34628C111.687 4.5164 123.88 3.62268 136.105 4.14933C148.059 4.66003 158.64 5.5378 167.274 11.1555C173.131 14.9698 177.966 22.4706 175.557 30.5939C173.562 37.3128 167.274 43.0422 159.549 45.2127C159.198 45.3084 159.007 45.6595 159.103 45.9947C159.198 46.3458 159.549 46.5373 159.885 46.4416C168.024 44.1594 174.663 38.0948 176.785 30.961C179.371 22.1993 174.216 14.1718 167.96 10.0862C163.779 7.35716 158.719 5.48992 152.527 4.37276C147.181 3.41521 141.723 3.12794 136.153 2.88855C123.848 2.36189 111.608 3.25561 102.319 4.0855C88.3548 5.34628 76.0502 7.40504 64.6871 10.3735C58.1757 12.0811 48.9512 15.1613 42.0089 20.0927C33.7579 25.9498 30.5342 33.0357 32.4493 41.159C33.9175 47.3512 38.0989 51.9475 44.8976 54.8042C49.7811 56.863 55.8935 58.0121 63.57 58.3313C75.6512 58.81 86.5993 58.5068 96.0791 57.4375C97.292 87.6645 102.559 115.386 111.735 139.804C118.885 158.795 128.381 175.824 140.063 190.602C140.095 190.682 140.159 190.762 140.239 190.826C140.239 190.826 140.239 190.826 140.255 190.842C142.569 193.762 144.979 196.603 147.468 199.348C161.592 214.908 178.238 227.372 196.958 236.389C214.737 244.96 233.904 250.194 253.933 251.982C259.024 252.445 264.115 252.668 269.19 252.668C283.362 252.668 297.486 250.912 311.386 247.433C330.362 242.646 348.061 234.794 363.972 224.085C380.49 212.961 394.535 199.14 405.706 182.99C417.484 165.945 425.831 146.618 430.491 125.568H433.89C434.114 125.568 434.321 125.456 434.433 125.265C434.545 125.073 434.561 124.834 434.465 124.642Z" fill="#FFACF4"/>
<path d="M356.983 94.7508C353.6 94.7189 350.344 93.7294 347.312 91.8302C344.535 90.0907 342.061 87.601 340.114 84.6326C335.725 77.8977 334.688 69.7585 337.433 63.3907C338.678 60.4702 341.455 57.8847 344.503 56.8314C346.881 56.0015 349.211 56.1452 351.222 57.2464C354.829 59.2094 356.074 62.7683 357.287 66.2315C358.26 69.0084 359.186 71.6417 361.244 73.3972C364.085 75.8071 368.538 75.9667 371.81 73.7643C378.273 69.4074 375.783 59.6084 373.31 54.5014C370.102 47.9261 364.341 42.468 357.494 39.5156C352.211 37.2334 346.322 36.5312 340.928 37.5526C334.624 38.7336 328.799 41.8775 324.506 46.394C318.426 52.8256 315.393 62.0661 316.399 71.0991C316.877 75.3762 318.298 79.3341 320.612 82.893C320.899 83.3399 320.772 83.9304 320.325 84.2176C319.878 84.5049 319.287 84.3772 319 83.9304C316.526 80.1321 315.01 75.8869 314.5 71.3065C313.43 61.715 316.654 51.916 323.118 45.0694C327.682 40.2497 333.874 36.9142 340.577 35.6534C346.418 34.5522 352.531 35.2704 358.26 37.7441C365.522 40.8881 371.634 46.6813 375.033 53.6555C377.794 59.3211 380.443 70.2532 372.895 75.3443C368.921 78.0095 363.511 77.802 360.032 74.8495C357.558 72.7588 356.504 69.7585 355.499 66.8539C354.366 63.5982 353.281 60.534 350.328 58.9221C348.397 57.8688 346.45 58.188 345.157 58.6348C342.636 59.5126 340.258 61.715 339.221 64.1408C336.731 69.934 337.704 77.387 341.758 83.5952C345.509 89.3406 351.206 92.8038 357.031 92.8516C357.558 92.8516 357.989 93.2825 357.973 93.8252C357.941 94.3359 357.51 94.7508 356.983 94.7508Z" fill="#5E27C9"/>
<path d="M337.48 94.1282C337.321 94.1282 337.161 94.0803 337.002 94.0005C331.224 90.681 328.049 84.6803 326.405 80.2436C324.522 75.2004 323.771 70.3169 324.17 65.7047C324.617 60.454 326.628 55.6184 329.82 52.0594C334.448 46.9046 341.917 44.3191 348.859 45.4682C355.69 46.5854 361.898 51.2136 365.058 57.5335C366.638 60.6934 367.468 64.2204 368.186 67.5559C368.298 68.0666 367.963 68.5773 367.452 68.689C366.941 68.8008 366.431 68.4656 366.319 67.9549C365.601 64.6035 364.835 61.3478 363.351 58.3793C360.462 52.602 354.796 48.3728 348.556 47.3355C342.236 46.2981 335.438 48.6441 331.24 53.3202C328.32 56.5759 326.485 61.0126 326.07 65.8483C325.702 70.1733 326.405 74.7855 328.176 79.5573C329.708 83.7068 332.661 89.2766 337.943 92.3248C338.406 92.5961 338.566 93.1707 338.294 93.6335C338.135 93.9527 337.816 94.1282 337.48 94.1282Z" fill="#5E27C9"/>
<path d="M365.649 87.2817C359.137 87.2817 354.685 84.5686 351.924 82.0151C346.896 77.355 344.726 70.7318 345.173 66.5824C345.237 66.0558 345.699 65.6727 346.226 65.7366C346.753 65.8004 347.136 66.2632 347.072 66.7899C346.689 70.3648 348.716 76.4293 353.232 80.6107C356.28 83.4355 361.659 86.4837 370.005 84.9676C370.532 84.8718 371.027 85.2229 371.123 85.7336C371.218 86.2443 370.867 86.755 370.357 86.8508C368.665 87.138 367.101 87.2817 365.649 87.2817Z" fill="#5E27C9"/>
<path d="M312.488 46.5216C312.313 46.5216 312.153 46.4737 311.994 46.378C311.547 46.1066 311.387 45.5161 311.674 45.0693C315.537 38.6536 320.66 33.7062 326.9 30.3707C332.453 27.4023 338.869 25.7745 345.46 25.6947C352.115 25.5989 358.739 27.0193 364.628 29.7962C370.564 32.605 375.304 36.5789 378.337 41.3188C378.624 41.7657 378.496 42.3562 378.049 42.6435C377.602 42.9307 377.012 42.8031 376.725 42.3562C370.947 33.3551 358.387 27.4183 345.476 27.5938C337.545 27.7055 322.83 30.2431 313.302 46.0428C313.127 46.362 312.808 46.5216 312.488 46.5216Z" fill="#5E27C9"/>
<path d="M319.814 27.6097C319.542 27.6097 319.287 27.4979 319.095 27.2905C318.744 26.8915 318.792 26.285 319.175 25.9339C328.495 17.7308 339.268 16.3583 346.641 16.6616C355.132 16.9967 363.59 19.7736 368.713 23.8911C369.128 24.2263 369.192 24.8327 368.857 25.2317C368.521 25.6467 367.915 25.7105 367.516 25.3753C363.734 22.3431 356.249 18.9437 346.561 18.5607C339.523 18.2734 329.277 19.5821 320.436 27.3543C320.26 27.5299 320.037 27.6097 319.814 27.6097Z" fill="#5E27C9"/>
<path d="M343.418 102.22C343.402 102.22 343.386 102.22 343.37 102.22C336.459 101.837 329.788 98.3894 325.511 92.9792C325.176 92.5642 325.256 91.9578 325.671 91.6386C326.086 91.3035 326.692 91.3833 327.011 91.7982C330.953 96.7775 337.098 99.9534 343.465 100.305C343.992 100.336 344.391 100.783 344.375 101.31C344.343 101.821 343.928 102.22 343.418 102.22Z" fill="#5E27C9"/>
<path d="M136.712 119.44C135.02 126.669 130.089 132.814 125.014 138.048C118.056 145.23 109.916 151.039 102.463 157.662C98.2821 161.381 95.3136 166.041 93.0155 171.116C92.409 172.457 87.701 186.565 87.5574 186.549L71.9651 185.384L76.3699 173.175C72.8748 175.234 67.3688 177.835 63.5705 179.303C58.8466 181.123 53.8513 182.479 48.8082 182.304C42.8553 182.096 29.641 176.829 36.2322 168.69C38.8176 165.498 43.6692 165.929 47.7708 165.738C54.8248 165.403 61.7033 162.195 66.507 157.008C69.8106 153.449 72.0928 149.076 74.3431 144.767C78.5883 136.628 82.8334 128.505 87.0786 120.365C90.7333 113.359 94.4199 106.305 99.2237 100.049C111.943 103.193 124.439 109.609 136.712 119.44Z" fill="#5E27C9"/>
<path d="M161.225 93.4577C149.638 86.7867 136.472 80.6423 123.385 83.3235C114.608 85.1109 106.995 90.7605 101.218 97.5911C100.532 98.4051 99.8773 99.219 99.2389 100.065L142.074 122.057" fill="#B36367"/>
<path d="M115.565 103.353C118.406 100.624 121.231 97.8946 124.072 95.1656C128.046 99.0118 132.147 102.986 136.313 107.055C133.488 109.625 130.679 112.194 127.838 114.78L129.067 115.418C131.796 112.928 134.509 110.439 137.238 107.965C138.579 109.274 139.919 110.582 141.276 111.907C142.808 113.391 144.34 114.891 145.872 116.391L146.606 115.29C145.122 113.854 143.638 112.402 142.17 110.965C140.845 109.673 139.52 108.38 138.196 107.087C141.388 104.183 144.564 101.278 147.74 98.3894C149.83 100.32 151.937 102.252 154.043 104.183L154.762 103.113C152.735 101.262 150.708 99.3948 148.697 97.5276C151.203 95.2454 153.708 92.9792 156.198 90.697C155.799 90.4895 155.384 90.2661 154.969 90.0586C152.559 92.245 150.149 94.4315 147.724 96.6339C143.446 92.66 139.185 88.6701 134.956 84.6644C135.435 84.2015 135.914 83.7387 136.392 83.2759C135.866 83.1801 135.323 83.1003 134.796 83.0205C134.541 83.2759 134.286 83.5153 134.014 83.7706C133.679 83.4514 133.36 83.1482 133.025 82.829C132.355 82.7652 131.7 82.7333 131.03 82.7014C131.716 83.3557 132.403 84.01 133.089 84.6644C132.211 85.5102 131.333 86.356 130.44 87.2019C128.317 89.2447 126.178 91.3034 124.056 93.3462C121.359 90.7289 118.709 88.1914 116.14 85.7496C115.725 85.9411 115.31 86.1486 114.895 86.356C117.56 88.8936 120.305 91.5428 123.114 94.2559C120.289 96.969 117.465 99.6821 114.656 102.395C111.608 99.1714 108.639 95.9955 105.719 92.8675C105.399 93.1547 105.096 93.4579 104.777 93.7452C107.682 96.8732 110.666 100.065 113.714 103.289C112.757 104.215 111.799 105.14 110.842 106.05L112.054 106.672C112.9 105.858 113.762 105.028 114.608 104.215C116.922 106.656 119.252 109.114 121.63 111.588L125.157 113.391C121.917 110.04 118.709 106.672 115.565 103.353ZM131.365 88.1754C132.259 87.3136 133.153 86.4518 134.046 85.59C138.276 89.5958 142.521 93.5697 146.798 97.5276C143.638 100.4 140.462 103.289 137.286 106.193C133.105 102.108 128.987 98.1181 125.013 94.2719C127.136 92.245 129.243 90.2022 131.365 88.1754Z" fill="black"/>
<path d="M230.855 41.1273C229.595 40.9517 228.398 40.5049 227.169 40.1697C225.94 39.8346 224.663 39.5792 223.402 39.7867C222.142 39.9942 220.897 40.7123 220.386 41.8774C219.923 41.4624 219.413 41.0794 218.854 40.8241C218.279 40.5687 217.641 40.457 217.035 40.6166C216.492 40.7443 216.029 41.0794 215.646 41.4943C215.263 41.8933 214.05 43.5531 213.715 44.0638C214.449 45.7555 215.487 47.7185 217.067 48.692C218.742 49.7134 220.849 49.9049 222.748 49.4102C224.647 48.9154 226.339 47.7823 227.696 46.3619C229.02 44.9096 230.026 42.8988 230.855 41.1273Z" fill="#FF575E"/>
<path d="M309.679 60.9645C307.301 57.0385 304.428 53.304 300.566 50.8303C298.284 49.362 295.682 48.2927 293.001 48.6917C293.4 46.3617 293.528 43.9518 293.097 41.6217C292.427 37.983 290.384 34.5996 287.416 32.3972C284.447 30.1949 280.553 29.2373 276.914 29.9236C275.462 30.1949 273.914 30.6577 272.765 31.5833C273.052 27.4499 272.031 23.1728 269.589 19.8213C267.147 16.4698 263.253 14.1238 259.12 13.8844C255.098 13.645 251.124 15.3846 247.996 17.9062C246.671 13.4535 242.378 10.0382 237.734 9.76692C233.09 9.49561 228.414 12.3523 226.579 16.6294C225.062 20.1405 225.749 24.3059 226.993 27.9127C226.483 27.8648 225.988 28.0084 225.493 28.184C222.748 29.1415 220.115 30.7534 218.487 33.1793C216.859 35.6051 216.428 38.9406 217.881 41.4621C214.641 41.4143 211.353 43.0262 209.342 45.5797C207.332 48.1172 206.582 51.6123 207.364 54.7563C202.017 55.2351 198.442 59.4004 197.054 62.8317C195.681 66.2789 195.841 70.3007 197.501 73.6202C228.334 99.4743 283.617 91.3829 309.679 60.9645Z" fill="black"/>
<path d="M212.997 52.0272C210.699 52.0272 208.56 50.8303 207.204 48.7236C207.012 48.4204 207.092 48.0374 207.395 47.8459C207.699 47.6544 208.082 47.7342 208.273 48.0374C209.502 49.9206 211.369 50.9101 213.428 50.7345C213.476 50.7186 213.524 50.7026 213.588 50.6866C213.923 50.6068 214.274 50.8143 214.37 51.1495C214.449 51.4686 214.274 51.8038 213.955 51.9155C213.891 51.9474 213.763 52.0113 213.62 52.0113C213.412 52.0113 213.205 52.0272 212.997 52.0272Z" fill="white"/>
<path d="M207.747 49.0112C207.54 49.0112 207.332 48.9154 207.204 48.7239C205.64 46.3141 205.401 43.2658 206.614 40.9517C207.827 38.6057 210.38 37.2492 213.78 37.1215C214.131 37.1055 214.434 37.3768 214.434 37.7439C214.45 38.095 214.179 38.3982 213.812 38.3982C210.843 38.51 208.737 39.5952 207.731 41.5422C206.742 43.4573 206.949 45.9949 208.258 48.0217C208.449 48.3249 208.369 48.708 208.066 48.8995C207.986 48.9793 207.875 49.0112 207.747 49.0112Z" fill="black"/>
<path d="M244.246 59.4168C243.799 57.8368 243.432 56.2249 243.161 54.597C242.044 48.0697 242.203 41.4146 242.538 34.8234C242.81 29.3334 241.932 23.5242 237.192 19.9015C232.755 16.5021 226.084 16.534 221.328 19.5025C215.519 23.1093 213.971 29.1419 213.285 35.398C212.87 39.2442 212.583 43.1063 212.407 46.9685C212.295 49.7294 212.375 52.8415 214.386 54.7886C216.381 56.7196 219.605 56.7994 222.318 56.0972C222.557 56.0334 222.797 55.9695 223.02 55.9057C223.02 55.9057 223.18 61.7309 219.509 65.0185" fill="#B36367"/>
<path d="M244.246 59.4168C243.799 57.8368 243.432 56.2249 243.161 54.597C242.044 48.0697 242.203 41.4146 242.538 34.8234C242.81 29.3334 241.932 23.5242 237.192 19.9015C232.755 16.5021 226.084 16.534 221.328 19.5025C215.519 23.1093 213.971 29.1419 213.285 35.398C212.87 39.2442 212.583 43.1063 212.407 46.9685C212.295 49.7294 212.375 52.8415 214.386 54.7886C216.381 56.7196 219.605 56.7994 222.318 56.0972C222.557 56.0334 222.797 55.9695 223.02 55.9057C223.02 55.9057 223.18 61.7309 219.509 65.0185" fill="#B36367"/>
<path d="M230.377 52.8413C227.584 54.4053 225.414 55.1873 223.036 55.8895C223.036 55.8895 223.083 57.4535 222.605 59.4165C227.935 56.4002 230.377 52.8413 230.377 52.8413Z" fill="black"/>
<path d="M216.572 35.7168C216.141 35.7168 215.694 35.6051 215.295 35.3817C214.721 35.0625 214.258 34.5199 214.003 33.8496C213.875 33.5144 214.034 33.1474 214.37 33.0197C214.705 32.892 215.072 33.0516 215.199 33.3867C215.343 33.7698 215.614 34.089 215.918 34.2485C216.237 34.4241 216.636 34.472 216.923 34.3603C217.051 34.3124 217.178 34.2485 217.338 34.1528C217.609 33.9772 217.833 33.7698 218.024 33.5304C218.248 33.2591 218.647 33.2112 218.918 33.4187C219.189 33.6421 219.237 34.0411 219.03 34.3124C218.758 34.6635 218.423 34.9667 218.024 35.2221C217.865 35.3178 217.625 35.4615 217.338 35.5572C217.099 35.6689 216.827 35.7168 216.572 35.7168Z" fill="black"/>
<path d="M225.765 36.3236C224.409 36.3236 223.164 35.366 222.909 34.1212C222.845 33.7701 223.052 33.435 223.403 33.3711C223.754 33.3073 224.09 33.5148 224.153 33.8659C224.297 34.5362 225.031 35.0628 225.781 35.0469C226.531 35.0309 227.297 34.5681 227.776 33.834C227.968 33.5467 228.367 33.4509 228.654 33.6584C228.941 33.8499 229.037 34.2489 228.829 34.5362C228.111 35.6214 226.946 36.3076 225.765 36.3236C225.797 36.3236 225.781 36.3236 225.765 36.3236Z" fill="black"/>
<path d="M219.844 40.3133C219.749 40.3133 219.637 40.2814 219.541 40.2336C218.568 39.7069 217.562 39.1483 216.892 38.5738C216.605 38.3344 216.381 38.0471 216.253 37.7599C216.046 37.297 216.11 36.7544 216.413 36.4033C216.764 35.9884 217.243 35.8926 217.61 35.8128L217.69 35.7969C218.36 35.6532 218.935 35.2862 219.334 34.7276C219.764 34.1371 219.988 33.3391 219.988 32.4773C219.988 32.1262 220.275 31.8389 220.626 31.8389C220.977 31.8389 221.265 32.1262 221.265 32.4773C221.265 33.5945 220.945 34.6637 220.355 35.4617C219.78 36.2756 218.903 36.8342 217.929 37.0417L217.833 37.0576C217.674 37.0896 217.482 37.1215 217.403 37.1853C217.403 37.2013 217.403 37.2172 217.418 37.2492C217.45 37.313 217.514 37.4407 217.706 37.5843C218.376 38.1588 219.557 38.7813 220.132 39.0845C220.451 39.2441 220.562 39.6431 220.403 39.9463C220.291 40.1857 220.068 40.3133 219.844 40.3133Z" fill="black"/>
<path d="M230.855 41.1273C229.595 40.9517 228.398 40.5049 227.169 40.1697C225.94 39.8346 224.663 39.5792 223.402 39.7867C222.142 39.9942 220.897 40.7123 220.386 41.8774C219.923 41.4624 219.413 41.0794 218.854 40.8241C218.279 40.5687 217.641 40.457 217.035 40.6166C216.492 40.7443 216.029 41.0794 215.646 41.4943C215.263 41.8933 214.05 43.5531 213.715 44.0638C214.449 45.7555 215.487 47.7185 217.067 48.692C218.742 49.7134 220.849 49.9049 222.748 49.4102C224.647 48.9154 226.339 47.7823 227.696 46.3619C229.02 44.9096 230.026 42.8988 230.855 41.1273Z" fill="#FFACF4"/>
<path d="M216.923 44.8616C215.774 44.8616 214.705 44.8137 213.731 44.702C213.38 44.6701 213.125 44.3509 213.156 43.9998C213.188 43.6487 213.508 43.3933 213.859 43.4252C218.647 43.904 225.669 43.2178 230.536 40.5685C230.839 40.393 231.238 40.5206 231.398 40.8239C231.574 41.1271 231.446 41.5261 231.143 41.6857C226.834 44.0636 221.328 44.8616 216.923 44.8616Z" fill="black"/>
<path d="M244.373 39.7867C242.458 40.9517 240.798 42.7073 240.239 44.8777C239.681 47.0482 240.399 49.6176 242.298 50.8306C241.548 52.1871 241.261 54.0065 241.548 55.5226C241.835 57.0387 242.921 58.4432 244.405 58.8741C245.219 59.1134 246.081 59.0496 246.926 58.9379C248.554 58.7145 250.15 58.2836 251.666 57.6611" fill="black"/>
<path d="M175.429 83.9619C180.855 80.371 186.297 76.7802 191.723 73.1894C195.362 70.7954 199.304 68.3696 203.453 66.7258C208.129 64.8745 213.077 64.2521 218.008 63.4861C224.488 62.4647 231.19 61.555 237.686 60.1825C241.724 59.3207 245.713 58.1876 249.687 57.0704C253.581 55.9852 257.38 54.6446 261.481 54.9478C269.158 55.5224 274.935 60.3261 278.845 66.6939C283.888 74.897 287.814 84.0576 291.293 93.0108C291.549 93.6652 291.804 94.3195 292.059 94.9898L265.583 116.934C266.046 127.627 267.434 138.224 267.578 148.932C267.658 155.492 266.477 161.923 264.162 167.844L179.562 139.325" fill="#FCC24C"/>
<path d="M186.362 104.98C186.154 104.98 185.963 104.885 185.835 104.709C183.808 101.773 183.776 97.4158 185.771 93.6015C187.335 90.6011 189.681 88.5903 192.171 86.4517C192.394 86.2602 192.618 86.0687 192.841 85.8772C196.049 83.1322 198.985 80.7063 201.842 78.4561C202.113 78.2327 202.512 78.2805 202.736 78.5678C202.959 78.8391 202.911 79.2381 202.624 79.4615C199.783 81.7118 196.847 84.1216 193.655 86.8507C193.432 87.0422 193.208 87.2337 192.985 87.4252C190.591 89.468 188.325 91.4151 186.888 94.192C185.117 97.5913 185.101 101.438 186.856 103.991C187.064 104.278 186.984 104.677 186.697 104.885C186.617 104.949 186.489 104.98 186.362 104.98Z" fill="black"/>
<path d="M235.995 35.1743C236.537 34.2487 237.335 33.4507 238.261 32.8921C239.33 32.2538 240.671 31.9984 241.884 32.3655C243.256 32.7804 244.15 33.9454 244.581 35.2541C245.299 37.4565 244.246 39.8983 242.187 40.9995C240.894 41.6857 239.378 41.9091 237.91 41.8453" fill="#B36367"/>
<path d="M236.106 35.4775C235.995 35.4775 235.883 35.4455 235.787 35.3977C235.484 35.2221 235.388 34.8231 235.564 34.5199C236.154 33.4985 237.016 32.6367 238.054 32.0143C239.362 31.2323 240.862 31.0248 242.187 31.4238H242.203C242.506 31.5195 242.762 31.6313 242.985 31.7589C243.288 31.9185 243.416 32.3175 243.24 32.6207C243.081 32.924 242.682 33.0516 242.378 32.8761C242.219 32.7963 242.027 32.7165 241.804 32.6367C240.83 32.3494 239.681 32.525 238.708 33.0995C237.878 33.6102 237.144 34.3284 236.665 35.1583C236.537 35.3657 236.33 35.4775 236.106 35.4775Z" fill="black"/>
<path d="M238.133 38.8293C237.958 38.8293 237.782 38.7654 237.655 38.6218C237.415 38.3665 237.447 37.9515 237.703 37.7281C238.66 36.8663 239.666 36.0843 240.703 35.3821C240.99 35.1906 241.389 35.2544 241.597 35.5576C241.804 35.8608 241.724 36.2439 241.421 36.4513C240.432 37.1216 239.474 37.8717 238.548 38.7016C238.437 38.7814 238.293 38.8293 238.133 38.8293Z" fill="black"/>
<path d="M238.916 54.23C237.767 54.23 236.618 53.9427 235.532 53.3842C233.601 52.3787 232.165 50.6072 231.574 48.5325C230.856 46.0269 231.431 43.3298 233.075 41.4785C234.256 40.1379 236.155 39.3559 238.166 39.3559C238.517 39.3559 238.804 39.6432 238.804 39.9943C238.804 40.3454 238.517 40.6327 238.166 40.6327C236.522 40.6327 234.974 41.271 234.032 42.3403C232.676 43.8564 232.213 46.1067 232.819 48.1814C233.314 49.921 234.527 51.4052 236.139 52.2511C237.623 53.0171 239.267 53.1607 240.783 52.6341C242.315 52.1074 243.464 50.9264 244.039 49.2986C244.693 47.4792 244.47 45.3566 243.496 43.7607C243.033 43.0266 242.698 42.6276 242.219 42.2286C241.948 42.0052 241.9 41.6062 242.124 41.3349C242.347 41.0636 242.746 41.0157 243.017 41.2391C243.704 41.7977 244.134 42.3882 244.581 43.0904C245.778 45.0374 246.034 47.5271 245.252 49.7295C244.549 51.7244 243.113 53.1767 241.198 53.847C240.448 54.1023 239.682 54.23 238.916 54.23Z" fill="white"/>
<path d="M292.059 95.0058C297.693 109.641 303.965 128.616 292.395 141.783C288.341 146.395 282.292 149.427 276.1 149.379C267.211 149.299 259.55 143.283 253.214 137.043C246.879 130.803 240.718 123.796 232.34 120.796C227.648 119.12 222.477 118.833 217.641 119.982C215.742 120.429 214.385 120.796 212.774 119.695C211.002 118.482 211.082 115.45 212.263 114.301C210.715 114.061 209.677 112.912 209.534 111.348C209.39 109.784 210.124 108.236 211.194 107.087C212.263 105.938 213.667 105.156 215.088 104.486C219.46 102.395 224.248 101.198 229.084 101.007C225.78 99.267 221.902 98.868 218.216 98.2934C217.146 98.1179 216.045 97.9264 215.072 97.4476C214.098 96.9688 213.22 96.1708 212.901 95.1175C212.422 93.5695 213.316 91.8459 214.657 90.9043C215.981 89.9786 217.657 89.6913 219.285 89.5796C223.019 89.3243 226.77 89.8829 230.377 90.9043C235.819 92.4364 241.053 94.8781 246.081 97.4157C251.523 100.161 257.731 103.847 263.492 107.486C263.492 107.486 263.045 105.363 262.535 102.172C271.727 96.6337 281.59 94.3355 292.059 95.0058Z" fill="#B36367"/>
<path d="M206.741 94.4152C206.502 94.2077 206.295 93.9523 206.231 93.6332C206.119 93.2023 206.295 92.7394 206.582 92.3883C206.869 92.0372 207.252 91.7978 207.651 91.5904C209.119 90.8243 210.779 90.4413 212.407 90.1221C214.657 89.6752 216.939 89.2922 219.222 89.4678C219.637 89.4997 220.083 89.5635 220.403 89.8348C220.69 90.0742 220.849 90.4732 220.849 90.8562C220.849 91.2393 220.706 91.6063 220.498 91.9255C220.004 92.6916 219.142 93.1544 218.296 93.5214C216.652 94.2396 214.929 94.7344 213.157 94.9897C211.465 95.2451 209.439 95.4525 207.779 94.9737C207.428 94.862 207.045 94.6865 206.741 94.4152Z" fill="#FF575E"/>
<path d="M205.848 113.295C205.577 113.215 205.305 113.056 205.194 112.816C205.082 112.593 205.13 112.322 205.21 112.082C205.401 111.54 205.784 111.077 206.183 110.646C208.034 108.619 210.285 106.943 212.774 105.73C213.109 105.571 213.365 105.555 213.668 105.762C215.152 106.816 214.865 108.811 213.844 110.071C213.093 110.997 212.04 111.699 210.955 112.242C210.157 112.641 209.311 112.992 208.433 113.215C207.635 113.391 206.662 113.551 205.848 113.295Z" fill="#FF575E"/>
<path d="M209.295 119.44C209.024 119.36 208.753 119.2 208.641 118.961C208.529 118.737 208.577 118.466 208.657 118.227C208.848 117.684 209.231 117.221 209.63 116.79C211.482 114.764 213.732 113.088 216.221 111.875C216.557 111.715 216.812 111.699 217.115 111.907C218.599 112.96 218.312 114.955 217.291 116.216C216.541 117.141 215.487 117.844 214.402 118.386C213.604 118.785 212.758 119.136 211.881 119.36C211.067 119.535 210.109 119.695 209.295 119.44Z" fill="#FF575E"/>
<path d="M211.912 114.907C211.705 114.907 211.513 114.811 211.386 114.636C211.178 114.349 211.258 113.95 211.545 113.742C218.009 109.274 226.882 107.39 236.554 108.444C236.905 108.476 237.16 108.795 237.112 109.146C237.08 109.497 236.761 109.752 236.41 109.704C227.042 108.683 218.472 110.486 212.264 114.78C212.168 114.875 212.04 114.907 211.912 114.907Z" fill="black"/>
<path d="M157.634 88.4464C162.071 90.4733 166.252 92.8672 169.508 96.442C172.508 99.7456 174.519 103.927 175.237 108.332C175.508 110.055 175.684 111.3 177.152 112.258C178.764 113.311 181.238 112.21 181.796 110.821C182.515 112.034 183.823 112.481 185.18 112.066C186.536 111.651 187.558 110.518 188.132 109.225C188.707 107.933 188.882 106.512 188.946 105.108C189.17 100.783 188.515 96.3942 187.015 92.3245C189.6 94.4631 191.244 97.5273 193 100.384C193.51 101.214 194.037 102.044 194.771 102.698C195.505 103.352 196.463 103.783 197.436 103.688C198.889 103.544 200.006 102.219 200.325 100.799C200.644 99.3786 200.293 97.8943 199.83 96.5218C198.761 93.3459 197.006 90.4413 194.931 87.8081C191.787 83.8342 187.973 80.3391 184.142 77.0515C182.084 75.28 179.77 73.4447 177.344 71.5934" fill="#B36367"/>
<path d="M199.975 108.236C200.23 108.364 200.517 108.443 200.805 108.396C201.204 108.332 201.523 108.028 201.714 107.677C201.906 107.326 201.97 106.911 202.002 106.512C202.129 105.028 201.874 103.528 201.587 102.076C201.188 100.065 200.725 98.0379 199.783 96.2186C199.608 95.8834 199.416 95.5323 199.081 95.3568C198.778 95.1972 198.411 95.1972 198.091 95.3248C197.772 95.4525 197.517 95.6919 197.325 95.9792C196.863 96.6495 196.767 97.5272 196.767 98.3412C196.735 99.9371 196.926 101.549 197.325 103.097C197.708 104.581 198.219 106.337 199.193 107.55C199.384 107.821 199.656 108.076 199.975 108.236Z" fill="#FF575E"/>
<path d="M237.894 102.06C237.862 102.06 237.814 102.06 237.782 102.044C234.382 101.422 231.43 101.31 227.903 101.677C227.552 101.709 227.233 101.454 227.201 101.102C227.169 100.751 227.424 100.432 227.775 100.4C231.43 100.017 234.494 100.129 238.005 100.767C238.356 100.831 238.58 101.166 238.516 101.517C238.468 101.837 238.197 102.06 237.894 102.06Z" fill="black"/>
<path d="M185.691 104.167C200.66 112.498 215.854 120.828 229.403 131.409C232.196 133.58 236.234 137.586 232.834 141.017C231.031 142.836 228.605 144.177 226.036 144.177C222.94 144.177 220.211 142.31 217.593 140.666C205.448 133.069 192.777 124.164 180.121 116.168" fill="#FFACF4"/>
<path d="M131.174 103.56C130.951 90.4095 130.727 77.259 130.488 64.1086C130.44 61.587 130.408 59.0494 130.951 56.5917C131.653 53.4318 133.536 50.3356 136.233 48.4046C139.234 46.2501 142.952 46.5852 146.368 47.3991C150.15 48.3088 153.932 49.3302 157.651 50.4474C165.2 52.7296 172.605 55.4905 179.818 58.6824C182.164 59.7197 184.59 60.8848 186.186 62.9116C188.165 65.4332 188.532 68.8325 188.771 72.0244C189.921 86.8027 190.431 107.215 190.16 122.041" fill="#FFACF4"/>
<path d="M190.159 122.695C189.792 122.695 189.521 122.392 189.521 122.041C189.617 117.668 189.617 112.497 189.553 106.672C189.553 106.321 189.824 106.034 190.191 106.034C190.542 106.018 190.829 106.305 190.829 106.672C190.893 112.513 190.893 117.7 190.798 122.073C190.798 122.424 190.51 122.695 190.159 122.695Z" fill="black"/>
<path d="M167.258 80.2278C167.099 78.3925 166.109 76.8763 164.641 76.1901C163.412 75.5996 161.848 75.6475 160.443 76.3178C159.582 76.7327 158.784 77.3551 158.113 78.1212C157.347 76.6369 156.087 75.4879 154.634 75.0091C152.56 74.3069 150.198 75.1208 149.144 76.8763C148.075 78.6159 148.346 80.7066 148.602 81.8078C149.096 83.8665 150.182 85.6859 151.315 87.2818C151.331 87.3137 151.363 87.3457 151.395 87.3776C151.682 87.7766 151.969 88.1436 152.24 88.5107C153.326 89.9151 155.081 91.6547 156.262 92.7239C156.39 92.8357 156.533 92.8835 156.693 92.8835C156.821 92.8835 156.948 92.8516 157.076 92.8037L157.315 92.6282C160.364 90.4577 163.508 88.2075 165.662 85.0954C166.492 83.8825 167.434 82.2227 167.258 80.2278ZM150.23 77.5307C150.804 76.5891 151.937 76.0305 153.102 76.0305C153.485 76.0305 153.868 76.0784 154.219 76.222C155.624 76.6848 156.789 77.9456 157.299 79.5575C157.635 80.7704 157.411 81.9035 156.597 83.1324C156.15 83.8186 155.464 84.4411 154.57 84.9837C153.868 85.4146 152.911 85.8455 152.113 86.1806C151.139 84.7762 150.261 83.2281 149.846 81.5205C149.639 80.6108 149.4 78.8872 150.23 77.5307ZM164.593 84.3932C162.614 87.2499 159.757 89.3086 156.741 91.4632C155.64 90.4258 154.187 88.9575 153.262 87.7606C153.134 87.585 153.006 87.4254 152.879 87.2499C153.661 86.9148 154.539 86.4998 155.225 86.0849C156.278 85.4465 157.108 84.6964 157.667 83.8506C158.608 82.4302 158.927 81.0098 158.608 79.5575C159.231 78.6797 160.076 77.9296 160.986 77.4828C162.039 76.9721 163.188 76.9242 164.082 77.3551C165.136 77.8499 165.854 78.967 165.965 80.3395C166.077 81.6003 165.662 82.8132 164.593 84.3932Z" fill="white"/>
<path d="M205.56 132.59C194.963 120.413 183.122 109.353 168.694 102.475C160.236 98.469 150.437 96.0432 141.117 97.5593C131.764 99.0755 123.226 103.001 115.725 108.779C105.368 116.742 97.5317 127.323 90.0468 137.889C84.0461 146.347 78.4443 155.22 71.0073 162.546C67.5122 165.993 63.3947 169.68 58.7825 171.387C53.069 173.494 47.1481 174.196 41.0836 174.196C37.9715 174.196 34.8115 174.068 31.7952 174.85C28.7789 175.616 25.8584 177.452 24.6295 180.308C23.8315 182.192 23.8315 184.394 24.6614 186.261C25.6988 188.623 27.9171 190.299 30.2951 191.257C35.4978 193.331 41.9613 193.22 47.4673 192.821C53.5159 192.374 59.4687 191.001 65.2141 189.086C65.2141 189.086 59.8677 196.747 56.6599 202.396C55.9576 203.625 56.4045 205.189 57.6174 205.875L73.3693 214.828C74.5981 215.531 76.1622 215.02 76.7527 213.743C79.2263 208.397 85.8814 195.406 95.3293 188.32C110.746 176.75 128.78 164.748 136.712 144.129C144.388 157.391 153.916 169.727 165.79 179.479C170.657 183.484 176.084 187.091 181.845 190.107C197.214 170.573 202.656 154.007 205.56 132.59Z" fill="#B36367"/>
<path d="M110.394 113.918C110.219 113.918 110.059 113.854 109.932 113.71C109.692 113.455 109.708 113.056 109.963 112.8C111.655 111.22 113.459 109.688 115.326 108.268C120.545 104.246 126.194 101.182 132.099 99.1551C132.434 99.0434 132.801 99.219 132.913 99.5541C133.025 99.8893 132.849 100.256 132.514 100.368C126.721 102.347 121.199 105.347 116.092 109.289C114.257 110.694 112.485 112.194 110.825 113.758C110.714 113.854 110.554 113.918 110.394 113.918Z" fill="black"/>
<path d="M181.828 190.123C201.171 200.226 224.408 203.529 243.878 191.927C253.326 186.293 260.316 177.755 264.162 167.876C264.162 167.876 234.989 149.14 212.981 141.511C210.571 138.511 208.097 135.526 205.56 132.606C202.655 154.007 197.213 170.573 181.828 190.123Z" fill="#3C79DD"/>
<path d="M248.523 158.412C248.156 158.205 247.773 157.981 247.39 157.774C243.799 161.923 239.921 165.482 235.149 167.589C232.117 164.11 231.877 156.832 234.383 150.8C234 150.608 233.617 150.417 233.234 150.225C230.553 156.577 230.776 164.094 233.904 168.099C232.085 168.77 230.09 169.264 227.792 169.6C217.498 171.132 206.646 168.562 198.091 162.673C197.932 163.072 197.772 163.471 197.597 163.87C204.699 168.69 213.317 171.323 221.903 171.323C223.93 171.323 225.956 171.18 227.951 170.908C230.632 170.509 232.947 169.903 235.037 169.041C240.4 166.839 244.629 162.945 248.523 158.412Z" fill="white"/>
<path d="M224.903 157.407C224.712 157.407 224.52 157.327 224.393 157.151C223.642 156.178 222.892 155.204 222.126 154.215C218.998 150.177 215.775 145.996 212.471 141.878C212.247 141.607 212.295 141.208 212.567 140.985C212.838 140.761 213.237 140.809 213.46 141.08C216.764 145.198 220.004 149.379 223.132 153.433C223.882 154.406 224.648 155.396 225.398 156.369C225.621 156.641 225.558 157.056 225.286 157.263C225.175 157.359 225.047 157.407 224.903 157.407Z" fill="black"/>
<path d="M281.958 118.243C279.293 116.391 271.329 111.268 264.02 106.656C263.381 102.714 261.53 90.8245 261.53 85.0472C261.53 84.6961 261.243 84.4088 260.892 84.4088C260.541 84.4088 260.253 84.6961 260.253 85.0472C260.253 90.3776 261.754 100.48 262.599 105.762C262.041 105.411 261.482 105.06 260.94 104.709C260.636 104.534 260.253 104.613 260.062 104.917C259.886 105.22 259.966 105.603 260.269 105.794C268.233 110.822 278.192 117.189 281.224 119.296C281.336 119.376 281.463 119.408 281.591 119.408C281.798 119.408 281.99 119.312 282.118 119.136C282.325 118.849 282.245 118.45 281.958 118.243Z" fill="black"/>
<path d="M134.334 58.2673C134.254 58.2673 134.19 58.2514 134.11 58.2354C133.6 58.1077 133.28 57.597 133.408 57.0863C134.206 53.7987 136.951 51.0697 140.239 50.2877C140.749 50.16 141.276 50.4792 141.388 50.9899C141.515 51.5006 141.196 52.0272 140.686 52.1389C138.084 52.7614 135.898 54.9318 135.259 57.5332C135.164 57.9801 134.765 58.2673 134.334 58.2673Z" fill="white"/>
<path d="M238.931 42.9146C238.772 42.9146 238.596 42.9146 238.436 42.8986C238.085 42.8827 237.814 42.5794 237.83 42.2283C237.846 41.8772 238.149 41.6059 238.5 41.6219C240.016 41.6857 241.373 41.4144 242.458 40.8558C242.777 40.6962 243.16 40.808 243.32 41.1271C243.48 41.4463 243.368 41.8294 243.049 41.989C241.9 42.5954 240.479 42.9146 238.931 42.9146Z" fill="black"/>
<path d="M34.2687 174.324C33.9495 174.324 33.6622 174.084 33.6303 173.749C33.5984 173.398 33.8537 173.079 34.1889 173.047C36.5509 172.792 38.45 172.776 40.8599 172.776C46.8446 172.776 52.7177 171.738 58.3034 169.664C62.772 168.02 66.714 164.509 70.3048 160.966C76.3375 155.029 81.2529 147.927 86.0088 141.064C87.0781 139.532 88.1633 137.952 89.2645 136.404C96.2068 126.605 102.591 119.232 109.964 112.497C110.219 112.258 110.634 112.274 110.873 112.529C111.113 112.784 111.097 113.199 110.842 113.439C103.548 120.126 97.2123 127.435 90.3338 137.154C89.2486 138.702 88.1474 140.282 87.0941 141.815C82.3063 148.725 77.3589 155.875 71.2464 161.907C67.5598 165.546 63.4902 169.169 58.7982 170.892C53.0688 172.999 47.0521 174.068 40.9078 174.068C38.5298 174.068 36.6626 174.084 34.3644 174.34C34.3166 174.324 34.2846 174.324 34.2687 174.324Z" fill="white"/>
<path d="M136.711 144.783C136.632 144.783 136.552 144.767 136.488 144.735C136.153 144.608 135.993 144.241 136.121 143.905C138.26 138.32 139.568 132.271 139.999 125.935C140.031 125.584 140.334 125.313 140.685 125.345C141.036 125.377 141.308 125.68 141.276 126.031C140.829 132.495 139.504 138.671 137.302 144.384C137.206 144.624 136.967 144.783 136.711 144.783Z" fill="black"/>
<path d="M71.1351 31.7593L63.2033 31.2326C64.7194 29.126 66.2356 27.0513 67.7836 25.0085C68.1028 24.5936 68.0071 23.9871 67.5921 23.6679C67.1772 23.3487 66.5707 23.4445 66.2515 23.8594C64.7194 25.8863 63.1873 27.961 61.6872 30.0516C60.3306 27.7854 58.9741 25.5192 57.6175 23.2689C57.3462 22.8221 56.7557 22.6784 56.3089 22.9497C55.862 23.2211 55.7184 23.8116 55.9897 24.2584C57.3462 26.5087 58.7028 28.7589 60.0434 31.0252L52.3829 30.5145C51.8562 30.4826 51.3934 30.8815 51.3615 31.4082C51.3296 31.9348 51.7286 32.3977 52.2552 32.4296L59.6444 32.9243C58.0325 35.2065 56.4525 37.5206 54.9045 39.8188C54.6012 40.2497 54.7129 40.8561 55.1598 41.1434C55.3194 41.2551 55.5109 41.303 55.6865 41.303C55.9897 41.303 56.2929 41.1593 56.5004 40.8721C58.1442 38.4143 59.8359 35.9566 61.5595 33.5308C62.9958 35.9247 64.4162 38.3026 65.8206 40.6646C66.0121 40.9678 66.3313 41.1274 66.6505 41.1274C66.8261 41.1274 66.9857 41.0795 67.1133 40.9838C67.5762 40.7125 67.7198 40.122 67.4485 39.6751C66.1717 37.5366 64.879 35.3661 63.5704 33.1797L71.0074 33.6744H71.0713C71.566 33.6744 71.9969 33.2914 72.0288 32.7807C72.0607 32.254 71.6618 31.7912 71.1351 31.7593Z" fill="#5E27C9"/>
<path d="M127.424 31.7593L119.492 31.2326C121.008 29.126 122.54 27.0513 124.072 25.0085C124.392 24.5936 124.296 23.9871 123.881 23.6679C123.466 23.3487 122.86 23.4445 122.54 23.8594C121.008 25.8863 119.476 27.961 117.976 30.0516C116.619 27.7854 115.263 25.5192 113.906 23.2689C113.635 22.8221 113.045 22.6784 112.598 22.9497C112.151 23.2211 112.007 23.8116 112.279 24.2584C113.635 26.5087 114.992 28.7749 116.348 31.0252L108.656 30.5145C108.129 30.4826 107.666 30.8815 107.634 31.4082C107.602 31.9348 108.001 32.3977 108.528 32.4296L115.933 32.9243C114.321 35.2065 112.741 37.5047 111.193 39.8188C110.89 40.2497 111.002 40.8561 111.449 41.1434C111.608 41.2551 111.8 41.303 111.975 41.303C112.279 41.303 112.582 41.1593 112.789 40.8721C114.433 38.4143 116.125 35.9566 117.848 33.5308C119.285 35.9247 120.705 38.3026 122.109 40.6646C122.301 40.9678 122.62 41.1274 122.939 41.1274C123.115 41.1274 123.275 41.0795 123.402 40.9838C123.865 40.7125 124.009 40.122 123.737 39.6751C122.461 37.5366 121.168 35.3661 119.859 33.1797L127.296 33.6744H127.36C127.855 33.6744 128.286 33.2914 128.318 32.7807C128.35 32.254 127.951 31.7912 127.424 31.7593Z" fill="#5E27C9"/>
<path d="M99.2715 31.7593L91.3557 31.2326C92.8718 29.126 94.4039 27.0513 95.936 25.0085C96.2552 24.5936 96.1595 23.9871 95.7445 23.6679C95.3296 23.3487 94.7231 23.4445 94.4039 23.8594C92.8559 25.9022 91.3398 27.9769 89.8236 30.0676C88.4671 27.8014 87.0946 25.5352 85.754 23.2689C85.4827 22.8221 84.8922 22.6784 84.4453 22.9497C83.9985 23.2211 83.8548 23.8116 84.1261 24.2584C85.4827 26.5087 86.8392 28.7589 88.1798 31.0252L80.5193 30.5145C79.9927 30.4826 79.5299 30.8815 79.4979 31.4082C79.466 31.9348 79.865 32.3977 80.3917 32.4296L87.7968 32.9243C86.1849 35.2065 84.6049 37.5047 83.0569 39.8188C82.7536 40.2497 82.8654 40.8561 83.3122 41.1434C83.4718 41.2551 83.6633 41.303 83.8389 41.303C84.1421 41.303 84.4453 41.1593 84.6528 40.8721C86.2966 38.4143 87.9883 35.9726 89.6959 33.5467C91.1323 35.9406 92.5527 38.3186 93.9571 40.6646C94.1486 40.9678 94.4678 41.1274 94.787 41.1274C94.9625 41.1274 95.1221 41.0795 95.2498 40.9838C95.7126 40.7125 95.8562 40.122 95.5849 39.6751C94.3082 37.5366 93.0155 35.3661 91.7068 33.1797L99.1439 33.6744H99.2077C99.7024 33.6744 100.133 33.2914 100.165 32.7807C100.197 32.254 99.7982 31.7912 99.2715 31.7593Z" fill="#5E27C9"/>
<path d="M155.56 31.7593L147.629 31.2326C149.145 29.126 150.677 27.0513 152.209 25.0085C152.528 24.5936 152.432 23.9871 152.017 23.6679C151.602 23.3487 150.996 23.4445 150.677 23.8594C149.145 25.8863 147.613 27.961 146.112 30.0516C144.756 27.7854 143.399 25.5192 142.043 23.2689C141.772 22.8221 141.181 22.6784 140.734 22.9497C140.287 23.2211 140.144 23.8116 140.415 24.2584C141.772 26.5087 143.128 28.7749 144.485 31.0252L136.792 30.5145C136.266 30.4826 135.803 30.8815 135.771 31.4082C135.739 31.9348 136.138 32.3977 136.665 32.4296L144.07 32.9243C142.458 35.2065 140.878 37.5047 139.33 39.8188C139.027 40.2497 139.138 40.8561 139.585 41.1434C139.745 41.2551 139.936 41.303 140.112 41.303C140.415 41.303 140.718 41.1593 140.926 40.8721C142.57 38.4143 144.261 35.9566 145.985 33.5308C147.421 35.9247 148.842 38.3026 150.246 40.6646C150.437 40.9678 150.757 41.1274 151.076 41.1274C151.251 41.1274 151.411 41.0795 151.539 40.9838C152.001 40.7125 152.145 40.122 151.874 39.6751C150.597 37.5366 149.304 35.3661 147.996 33.1797L155.433 33.6744H155.497C155.991 33.6744 156.422 33.2914 156.454 32.7807C156.486 32.254 156.087 31.7912 155.56 31.7593Z" fill="#5E27C9"/>
<path d="M404.079 87.5373L405.754 36.0366C405.962 29.573 411.26 24.4501 417.724 24.4501H437.976C444.631 24.4501 450.026 29.8922 449.962 36.5473L449.467 88.048C449.403 94.6233 444.057 99.9217 437.482 99.9217H416.048C409.281 99.9058 403.855 94.3041 404.079 87.5373Z" fill="#5E27C9"/>
<path d="M410.973 35.0945H444.551L444.025 86.7868H409.042L410.973 35.0945Z" fill="white"/>
<path d="M444.024 87.4254H409.041C408.866 87.4254 408.706 87.3616 408.578 87.2339C408.451 87.1062 408.387 86.9467 408.403 86.7711L410.334 35.0788C410.35 34.7437 410.621 34.4564 410.972 34.4564H444.551C444.726 34.4564 444.886 34.5203 444.998 34.6479C445.109 34.7756 445.189 34.9352 445.189 35.1107L444.662 86.803C444.662 87.1382 444.375 87.4254 444.024 87.4254ZM409.712 86.1487H443.402L443.912 35.7332H411.595L409.712 86.1487Z" fill="white"/>
<path d="M416.925 97.5436C416.893 97.5436 416.845 97.5436 416.797 97.5276C415.425 97.2723 413.733 96.9531 412.201 96.2669C410.462 95.4689 409.169 94.3517 408.467 92.9952C408.307 92.676 408.419 92.293 408.738 92.1334C409.057 91.9738 409.44 92.0855 409.6 92.4047C410.318 93.7932 411.706 94.639 412.728 95.1018C414.005 95.6764 415.377 95.9477 417.037 96.2669C417.388 96.3307 417.611 96.6658 417.548 97.0169C417.5 97.3361 417.228 97.5436 416.925 97.5436Z" fill="white"/>
<path d="M425.559 29.9239C425.4 29.9239 425.224 29.8601 425.112 29.7324C425.08 29.7005 425.065 29.6686 425.033 29.6366C425.017 29.6047 424.985 29.5728 424.969 29.5249C424.953 29.493 424.937 29.4451 424.937 29.3972C424.937 29.3494 424.921 29.3175 424.921 29.2696C424.921 29.094 424.985 28.9344 425.112 28.8227C425.256 28.6791 425.479 28.5993 425.687 28.6472C425.735 28.6631 425.767 28.6631 425.815 28.6791C425.847 28.695 425.894 28.711 425.926 28.7429C425.958 28.7589 425.99 28.7908 426.022 28.8227C426.054 28.8546 426.086 28.8866 426.102 28.9185C426.118 28.9504 426.15 28.9983 426.166 29.0302C426.182 29.0621 426.198 29.11 426.198 29.1579C426.214 29.2057 426.214 29.2377 426.214 29.2855C426.214 29.3334 426.214 29.3653 426.198 29.4132C426.198 29.4611 426.182 29.493 426.166 29.5409C426.15 29.5728 426.134 29.6207 426.102 29.6526C426.086 29.6845 426.054 29.7164 426.022 29.7484C425.99 29.7803 425.958 29.8122 425.926 29.8282C425.894 29.8441 425.847 29.876 425.815 29.892C425.783 29.9079 425.735 29.9239 425.687 29.9239C425.639 29.9239 425.607 29.9239 425.559 29.9239Z" fill="white"/>
<path d="M431.608 29.9237H428.56C428.208 29.9237 427.921 29.6364 427.921 29.2853C427.921 28.9342 428.208 28.6469 428.56 28.6469H431.608C431.959 28.6469 432.246 28.9342 432.246 29.2853C432.246 29.6364 431.959 29.9237 431.608 29.9237Z" fill="white"/>
<path d="M420.548 55.7938C419.623 55.7938 418.697 55.4905 417.963 55.0437C416.878 54.3574 416.128 53.0807 415.808 51.3411C415.729 50.9262 415.681 50.4633 415.633 49.9526C415.489 47.3353 415.25 42.9784 417.452 40.6803C418.362 39.7227 419.75 39.212 421.075 39.3716C422.416 39.5472 423.66 40.3611 424.299 41.5102C424.793 42.356 424.953 43.2976 425.049 44.1115C425.368 46.6012 425.24 49.1068 424.698 51.5326C424.49 52.5221 424.123 53.7829 423.213 54.6926C422.479 55.4746 421.506 55.7938 420.548 55.7938ZM417.069 51.1177C417.245 52.0752 417.66 53.336 418.649 53.9584C419.734 54.6447 421.346 54.8043 422.336 53.7988C423.006 53.1285 423.293 52.1391 423.469 51.2773C423.98 48.9791 424.091 46.6331 423.788 44.2711C423.708 43.5849 423.581 42.8029 423.198 42.1485C422.735 41.3346 421.873 40.7601 420.931 40.6483C419.99 40.5366 419.016 40.8877 418.378 41.574C416.558 43.4731 416.782 47.4789 416.91 49.8728C416.957 50.3357 417.005 50.7346 417.069 51.1177Z" fill="#5E27C9"/>
<path d="M434.48 55.8738C434.465 55.8738 434.433 55.8738 434.417 55.8738C434.066 55.8419 433.81 55.5227 433.842 55.1716C434.209 51.3573 434.496 46.4259 434.592 42.484C433.523 44.1756 432.182 45.7077 430.682 46.9845C430.411 47.2079 430.012 47.176 429.788 46.9047C429.565 46.6334 429.597 46.2344 429.868 46.011C431.895 44.3033 433.555 42.1169 434.688 39.6751C434.816 39.4038 435.119 39.2602 435.406 39.324C435.693 39.3878 435.901 39.6432 435.901 39.9464C435.901 44.1278 435.566 50.5913 435.119 55.3153C435.087 55.6344 434.8 55.8738 434.48 55.8738Z" fill="#5E27C9"/>
<path d="M433.923 79.7167C432.997 79.7167 432.071 79.4135 431.337 78.9666C430.252 78.2804 429.502 77.0036 429.183 75.2641C429.103 74.8491 429.055 74.3863 429.007 73.8756C428.864 71.2583 428.624 66.9014 430.827 64.6032C431.736 63.6457 433.125 63.135 434.449 63.2946C435.79 63.4701 437.035 64.2841 437.673 65.4331C438.168 66.279 438.327 67.2206 438.423 68.0345C438.742 70.5241 438.615 73.0298 438.072 75.4556C437.865 76.4451 437.498 77.7058 436.588 78.6155C435.854 79.3975 434.88 79.7167 433.923 79.7167ZM430.444 75.0406C430.619 75.9982 431.034 77.259 432.023 77.8814C433.109 78.5677 434.721 78.7272 435.71 77.7218C436.38 77.0515 436.668 76.062 436.843 75.2002C437.354 72.9021 437.466 70.5561 437.162 68.1941C437.083 67.5078 436.955 66.7258 436.572 66.0715C436.109 65.2576 435.247 64.683 434.306 64.5713C433.364 64.4596 432.391 64.8107 431.752 65.497C429.933 67.3961 430.156 71.4019 430.284 73.7958C430.332 74.2586 430.38 74.6576 430.444 75.0406Z" fill="#5E27C9"/>
<path d="M420.66 79.7968C420.644 79.7968 420.612 79.7968 420.596 79.7968C420.245 79.7649 419.99 79.4457 420.022 79.0946C420.389 75.2803 420.676 70.3489 420.772 66.4069C419.703 68.0986 418.362 69.6307 416.862 70.9075C416.59 71.1309 416.192 71.099 415.968 70.8277C415.745 70.5564 415.777 70.1574 416.048 69.9339C418.075 68.2263 419.735 66.0399 420.868 63.5981C420.995 63.3268 421.299 63.1831 421.586 63.247C421.873 63.3108 422.081 63.5662 422.081 63.8694C422.081 68.0507 421.745 74.5143 421.299 79.2382C421.267 79.5574 420.979 79.7968 420.66 79.7968Z" fill="#5E27C9"/>
<path d="M204.906 137.059C203.868 138.128 202.847 139.213 201.809 140.283C197.66 136.756 193.511 133.197 189.393 129.606C191.675 127.26 193.957 124.93 196.256 122.6C195.952 122.296 195.649 121.993 195.33 121.706C193.032 124.052 190.718 126.414 188.42 128.776C184.398 125.281 180.408 121.77 176.418 118.243C178.732 115.961 181.046 113.694 183.36 111.412C183.009 111.157 182.658 110.902 182.307 110.646C180.025 112.896 177.743 115.131 175.445 117.397C171.136 113.583 166.859 109.736 162.597 105.858C163.922 104.422 165.247 102.97 166.571 101.533C166.156 101.358 165.741 101.182 165.31 101.007C164.082 102.331 162.869 103.672 161.64 104.997C158.959 102.571 156.293 100.113 153.628 97.6712C152.894 97.5595 152.144 97.4478 151.41 97.368C154.522 100.241 157.634 103.097 160.762 105.938C157.028 109.992 153.293 114.061 149.543 118.131C147.069 115.737 144.611 113.327 142.154 110.933C140.829 109.641 139.504 108.348 138.18 107.055C141.818 103.736 145.441 100.448 149.048 97.1605C148.426 97.1286 147.803 97.1127 147.181 97.0967C143.877 100.097 140.558 103.113 137.238 106.146C135.163 104.135 133.121 102.14 131.094 100.177C130.647 100.336 130.2 100.512 129.753 100.688C131.892 102.762 134.062 104.885 136.265 107.023C132.291 110.646 128.301 114.285 124.295 117.94C121.343 114.891 118.438 111.843 115.581 108.843C115.246 109.098 114.911 109.369 114.576 109.641C117.464 112.673 120.385 115.737 123.353 118.801C120.05 121.818 116.73 124.85 113.411 127.882C113.155 128.122 113.139 128.537 113.379 128.792C113.507 128.936 113.682 128.999 113.858 128.999C114.017 128.999 114.161 128.952 114.289 128.84C117.608 125.792 120.928 122.759 124.247 119.727C128.269 123.876 132.354 128.074 136.488 132.271C132.434 136.676 128.381 141.081 124.343 145.469C124.104 145.741 124.119 146.14 124.375 146.379C124.502 146.507 124.646 146.555 124.806 146.555C124.981 146.555 125.157 146.491 125.269 146.347C129.306 141.974 133.344 137.57 137.382 133.181C141.036 136.883 144.723 140.602 148.426 144.304C146.016 146.73 143.622 149.172 141.228 151.614C141.467 151.981 141.707 152.348 141.946 152.715C144.404 150.209 146.862 147.72 149.319 145.23C153.261 149.156 157.219 153.082 161.161 156.96C158.193 160.088 155.224 163.216 152.256 166.344C152.543 166.663 152.814 166.999 153.102 167.318C156.086 164.158 159.07 161.014 162.071 157.854C166.029 161.732 169.971 165.578 173.897 169.361C170.88 172.505 167.88 175.664 164.864 178.808C165.135 179.032 165.406 179.271 165.678 179.495C165.741 179.543 165.789 179.59 165.853 179.638C168.838 176.51 171.838 173.382 174.822 170.254C179.083 174.356 183.297 178.378 187.462 182.304C187.701 181.936 187.957 181.585 188.196 181.218C184.079 177.34 179.913 173.366 175.716 169.313C179.786 165.052 183.855 160.79 187.925 156.529C191.085 159.418 194.165 162.179 197.133 164.78C197.309 164.365 197.485 163.934 197.66 163.519C194.803 161.014 191.851 158.349 188.819 155.588C192.904 151.327 196.974 147.049 201.059 142.788C201.315 142.533 201.554 142.278 201.794 142.006C202.4 142.517 203.006 143.028 203.613 143.538C203.709 143.06 203.804 142.581 203.9 142.102C203.501 141.751 203.086 141.416 202.687 141.065C203.262 140.458 203.836 139.852 204.427 139.245C204.666 138.559 204.778 137.809 204.906 137.059ZM175.509 119.137C179.498 122.68 183.504 126.191 187.526 129.686C183.345 133.995 179.163 138.304 174.998 142.629C171.136 138.958 167.194 135.192 163.22 131.361C167.305 127.276 171.407 123.19 175.509 119.137ZM161.736 106.784C165.981 110.63 170.258 114.46 174.535 118.275C170.433 122.328 166.348 126.382 162.278 130.452C158.368 126.669 154.426 122.855 150.484 119.009C154.251 114.939 158.001 110.854 161.736 106.784ZM137.414 131.345C133.312 127.18 129.242 123.015 125.253 118.881C129.258 115.227 133.264 111.572 137.238 107.933C138.579 109.242 139.919 110.55 141.276 111.875C143.733 114.269 146.207 116.679 148.681 119.089C144.93 123.174 141.18 127.26 137.414 131.345ZM149.399 143.411C145.681 139.692 141.978 135.974 138.307 132.255C142.074 128.17 145.84 124.068 149.607 119.982C153.533 123.813 157.459 127.627 161.369 131.377C157.363 135.383 153.373 139.389 149.399 143.411ZM162.151 156.035C158.209 152.156 154.251 148.246 150.325 144.32C154.299 140.299 158.304 136.277 162.31 132.271C166.284 136.101 170.242 139.884 174.104 143.554C170.098 147.704 166.108 151.869 162.151 156.035ZM174.902 168.451C170.976 164.668 167.018 160.822 163.076 156.944C167.05 152.779 171.04 148.613 175.046 144.448C179.163 148.342 183.201 152.109 187.111 155.683C183.025 159.945 178.956 164.19 174.902 168.451ZM200.245 141.926C196.16 146.204 192.074 150.481 187.989 154.758C184.079 151.183 180.041 147.416 175.923 143.522C180.105 139.181 184.302 134.856 188.499 130.547C192.633 134.122 196.766 137.697 200.932 141.224C200.708 141.448 200.469 141.687 200.245 141.926Z" fill="black"/>
<path d="M224.424 18.0661C223.339 18.4172 222.285 18.8959 221.328 19.5024C218.439 21.2898 216.604 23.6837 215.407 26.3968C215.439 26.4287 215.487 26.4607 215.535 26.4926C215.694 26.5883 215.854 26.6362 216.029 26.6362C216.349 26.6362 216.668 26.4766 216.859 26.1574C218.95 22.6783 221.695 20.045 224.424 18.0661Z" fill="black"/>
<path d="M219.669 25.9182C219.844 26.0458 220.052 26.1097 220.259 26.1097C220.546 26.1097 220.834 25.982 220.993 25.7267C223.706 22.1996 227.217 19.3748 231.159 17.4597C229.899 17.2842 228.606 17.2682 227.345 17.4278C224.345 19.327 221.679 21.7368 219.493 24.5935C219.174 24.9925 219.254 25.599 219.669 25.9182Z" fill="black"/>
<path d="M224.312 25.7106C224.504 25.8861 224.727 25.9659 224.966 25.9659C225.222 25.9659 225.477 25.8702 225.653 25.6467C228.302 22.79 231.366 20.3642 234.734 18.4491C233.967 18.1139 233.17 17.8586 232.356 17.6671C229.403 19.5183 226.674 21.7686 224.264 24.354C223.897 24.753 223.929 25.3435 224.312 25.7106Z" fill="black"/>
<path d="M234.303 29.2214C233.904 29.5566 233.841 30.1471 234.176 30.562C234.351 30.8014 234.639 30.9131 234.91 30.9131C235.117 30.9131 235.341 30.8493 235.516 30.6897C237.447 29.1097 239.49 27.6255 241.613 26.253C241.405 25.6306 241.166 25.0401 240.879 24.4496C238.596 25.9179 236.378 27.5138 234.303 29.2214Z" fill="black"/>
<path d="M236.106 32.0304C235.691 32.3656 235.643 32.9561 235.978 33.371C236.17 33.6104 236.441 33.7221 236.712 33.7221C236.936 33.7221 237.143 33.6423 237.319 33.5306C238.899 32.222 240.622 31.1048 242.426 30.0674C242.346 29.3812 242.234 28.7109 242.091 28.0406C240 29.2056 237.957 30.4983 236.106 32.0304Z" fill="black"/>
<path d="M231.877 26.9232C231.494 27.2903 231.463 27.8967 231.83 28.2797C232.021 28.4872 232.276 28.583 232.532 28.583C232.771 28.583 232.995 28.5032 233.186 28.3276C235.309 26.3487 237.575 24.4974 239.937 22.8057C239.586 22.279 239.187 21.7843 238.74 21.3055C236.33 23.0291 234.032 24.9123 231.877 26.9232Z" fill="black"/>
<path d="M228.35 26.4925C228.541 26.684 228.797 26.7957 229.052 26.7957C229.291 26.7957 229.515 26.7159 229.706 26.5403C232.228 24.2103 234.973 22.1994 237.894 20.4918C237.67 20.2843 237.431 20.0928 237.191 19.9013C236.888 19.6619 236.569 19.4544 236.25 19.2469C233.473 20.9386 230.856 22.9016 228.414 25.1359C228.015 25.503 227.999 26.1094 228.35 26.4925Z" fill="black"/>
<path d="M183.233 109.337L182.691 110.502C195.474 117.46 220.961 133.276 232.356 141.368C232.516 141.224 232.675 141.064 232.835 140.921C232.995 140.761 233.138 140.601 233.25 140.442C233.234 140.426 233.218 140.41 233.218 140.41C221.807 132.271 196.097 116.311 183.233 109.337Z" fill="black"/>
<path d="M139.01 136.771C138.388 139.357 137.622 141.799 136.712 144.145C128.796 164.748 110.746 176.765 95.3293 188.336C85.8814 195.422 79.2263 208.397 76.7527 213.759C76.1622 215.036 74.5981 215.547 73.3693 214.844L57.6174 205.891C56.3886 205.189 55.9576 203.641 56.6599 202.412C59.8677 196.762 65.2141 189.102 65.2141 189.102C59.4687 191.017 53.5159 192.39 47.4673 192.836C41.9613 193.235 35.4978 193.347 30.2951 191.272C27.9012 190.315 25.6988 188.639 24.6614 186.277C23.8315 184.41 23.8315 182.208 24.6295 180.324C25.8584 177.468 28.7789 175.632 31.7952 174.866C34.8115 174.1 37.9715 174.212 41.0836 174.212C47.1481 174.212 53.069 173.51 58.7825 171.403C63.4107 169.695 67.5122 166.009 71.0073 162.562C78.4284 155.252 84.0461 146.379 90.0468 137.904C96.2709 129.127 102.734 120.349 110.666 113.056C120.848 118.051 130.248 126.111 139.01 136.771Z" fill="#5E27C9"/>
<path d="M92.3131 141.543C93.526 140.362 94.9145 139.373 96.0316 138C98.1383 135.399 98.7128 131.569 101.458 129.67C102.431 128.999 103.501 128.521 104.458 127.818C105.527 127.036 106.118 125.983 106.82 124.866C107.251 124.196 107.746 123.509 108.48 123.174C110.523 122.217 111.353 124.722 110.539 126.207C109.501 128.09 107.506 129.303 105.847 130.579C104.698 131.441 103.644 132.431 102.83 133.628C101.984 134.888 101.57 136.389 100.628 137.586C99.7342 138.703 98.4894 139.469 97.3882 140.394C96.4625 141.16 95.6486 142.054 94.9464 143.028C94.0846 144.225 93.3983 145.996 92.1376 146.858C91.7386 147.145 91.18 147.257 90.7331 147.049C89.6 146.491 90.015 144.959 90.4299 144.097C90.9087 143.076 91.579 142.278 92.3131 141.543Z" fill="white"/>
<path d="M30.1835 182.591C29.8164 182.702 29.4334 182.718 29.0663 182.479C28.8269 182.319 28.6514 182.048 28.6035 181.745C28.3641 180.372 29.8962 179.271 30.9495 178.728C32.5454 177.899 34.2531 177.372 36.0405 177.276C36.9502 177.228 37.9078 177.308 38.7696 177.611C39.4079 177.835 40.2698 178.313 40.4932 179.016C40.7326 179.766 39.9984 180.197 39.3601 180.276C38.0833 180.436 36.7906 180.197 35.4979 180.34C34.5404 180.452 33.5828 180.739 32.721 181.17C31.8592 181.617 31.1091 182.303 30.1835 182.591Z" fill="white"/>
<path d="M259.583 174.946C257.476 173.494 255.385 172.057 253.279 170.621C253.055 170.461 252.752 170.461 252.529 170.637C244.724 176.701 239.458 185.703 237.894 195.342C238.357 195.15 238.819 194.943 239.266 194.72C240.91 185.846 245.778 177.611 252.912 171.914C254.891 173.27 256.854 174.611 258.832 175.967C259.184 176.207 259.519 176.446 259.87 176.686C260.093 176.318 260.317 175.967 260.54 175.6C260.237 175.377 259.902 175.153 259.583 174.946Z" fill="white"/>
</g>
</g>
</g>
<defs>
<clipPath id="clip0_117_404">
<rect width="425.33" height="253.57" fill="white" transform="translate(24.034) scale(1.00142)"/>
</clipPath>
<clipPath id="clip1_117_404">
<rect width="425.33" height="253.57" fill="white" transform="translate(24.034) scale(1.00142)"/>
</clipPath>
<clipPath id="clip2_117_404">
<rect width="425.321" height="253.57" fill="white" transform="translate(24.0389) scale(1.00142)"/>
</clipPath>
</defs>
</svg>
