<svg width="84" height="119" viewBox="0 0 84 119" fill="none" xmlns="http://www.w3.org/2000/svg">
<g clip-path="url(#clip0_117_501)">
<path d="M26.0715 33.3513C26.0715 28.9266 29.6689 25.3293 34.0935 25.3293H62.1706C66.5952 25.3293 70.1926 28.9266 70.1926 33.3513V81.4833C70.1926 85.908 66.5952 89.5053 62.1706 89.5053H34.0935C29.6689 89.5053 26.0715 85.908 26.0715 81.4833V33.3513ZM42.1156 81.4833C42.1156 82.5864 43.018 83.4888 44.1211 83.4888H52.1431C53.2461 83.4888 54.1486 82.5864 54.1486 81.4833C54.1486 80.3803 53.2461 79.4778 52.1431 79.4778H44.1211C43.018 79.4778 42.1156 80.3803 42.1156 81.4833ZM62.1706 33.3513H34.0935V73.4613H62.1706V33.3513Z" fill="#1B1F29"/>
</g>
<defs>
<clipPath id="clip0_117_501">
<rect width="48" height="64" fill="white" transform="translate(24.066 25.3293) scale(1.00275)"/>
</clipPath>
</defs>
</svg>
