<svg width="88" height="119" viewBox="0 0 88 119" fill="none" xmlns="http://www.w3.org/2000/svg">
<g clip-path="url(#clip0_117_517)">
<path d="M30 57.2598C30 42.8973 41.6375 31.2598 56 31.2598C63.8875 31.2598 70.95 34.7723 75.725 40.3223C76.8 41.5848 78.7 41.7223 79.95 40.6473C81.2 39.5723 81.35 37.6723 80.275 36.4223C74.4125 29.5848 65.7125 25.2598 56 25.2598C38.325 25.2598 24 39.5848 24 57.2598V62.2598C24 63.9223 25.3375 65.2598 27 65.2598C28.6625 65.2598 30 63.9223 30 62.2598V57.2598ZM87.3125 50.6473C86.975 49.0223 85.375 47.9848 83.7625 48.3348C82.15 48.6848 81.1 50.2723 81.45 51.8848C81.8125 53.6223 82.0125 55.4223 82.0125 57.2723V62.2723C82.0125 63.9348 83.35 65.2723 85.0125 65.2723C86.675 65.2723 88.0125 63.9348 88.0125 62.2723V57.2598C88.0125 54.9973 87.775 52.7848 87.325 50.6473H87.3125ZM56 35.2598C53.625 35.2598 51.325 35.6348 49.1875 36.3348C47.2875 36.9598 46.85 39.2973 48.15 40.8223C49.0375 41.8598 50.5 42.1723 51.825 41.8098C53.15 41.4473 54.55 41.2598 56 41.2598C64.8375 41.2598 72 48.4223 72 57.2598V60.3723C72 63.5223 71.8125 66.6598 71.45 69.7848C71.2375 71.6098 72.625 73.2598 74.475 73.2598C75.95 73.2598 77.2125 72.1848 77.3875 70.7223C77.8 67.2973 78.0125 63.8473 78.0125 60.3848V57.2598C78.0125 45.1098 68.1625 35.2598 56.0125 35.2598H56ZM42.8375 43.8473C41.7 42.5223 39.675 42.4223 38.6 43.7973C35.7125 47.5098 34 52.1848 34 57.2598V60.3723C34 63.3973 33.675 66.4223 33.025 69.3598C32.6 71.3098 34.0125 73.2598 36.0125 73.2598C37.325 73.2598 38.5 72.3848 38.7875 71.0973C39.5875 67.5848 40 63.9973 40 60.3723V57.2598C40 53.8598 41.0625 50.7098 42.8625 48.1223C43.7625 46.8223 43.8625 45.0473 42.8375 43.8473ZM56 45.2598C49.375 45.2598 44 50.6348 44 57.2598V60.3723C44 64.8598 43.425 69.3098 42.275 73.6348C41.8 75.4223 43.1125 77.2598 44.9625 77.2598C46.15 77.2598 47.2 76.4848 47.5125 75.3348C48.825 70.4598 49.5 65.4348 49.5 60.3723V57.2598C49.5 53.6723 52.4125 50.7598 56 50.7598C59.5875 50.7598 62.5 53.6723 62.5 57.2598V60.3723C62.5 64.9098 62.0625 69.4223 61.2 73.8598C60.8625 75.5973 62.1625 77.2598 63.925 77.2598C65.2 77.2598 66.3 76.3848 66.55 75.1348C67.5125 70.2848 68 65.3473 68 60.3723V57.2598C68 50.6348 62.625 45.2598 56 45.2598ZM59 57.2598C59 55.5973 57.6625 54.2598 56 54.2598C54.3375 54.2598 53 55.5973 53 57.2598V60.3723C53 67.8598 51.625 75.2848 48.9375 82.2723L48.2 84.1848C47.6 85.7348 48.375 87.4723 49.925 88.0598C51.475 88.6473 53.2125 87.8848 53.8 86.3348L54.5375 84.4223C57.4875 76.7473 59 68.5973 59 60.3723V57.2598Z" fill="#1B1F29"/>
</g>
<defs>
<clipPath id="clip0_117_517">
<rect width="64" height="64" fill="white" transform="translate(24 25.2598)"/>
</clipPath>
</defs>
</svg>
