<svg width="156" height="350" viewBox="0 0 156 350" fill="none" xmlns="http://www.w3.org/2000/svg">
<g clip-path="url(#clip0_117_914)">
<path d="M133.013 162.866C133.01 167.165 132.685 171.459 132.042 175.71C130.957 183.51 129.166 191.122 126.263 198.473C123.663 205.058 122.257 211.971 121.186 218.962C120.173 225.553 119.067 232.141 118.572 238.793C118.148 244.339 117.096 249.783 116.266 255.265C115.312 261.567 113.464 267.554 109.805 272.871C108.964 274.09 108.434 275.478 107.759 276.788C105.368 281.43 103.086 286.121 100.843 290.837C100.507 291.544 100.535 292.335 100.136 293.017C99.2825 294.421 98.0609 295.566 96.6036 296.327C96.2715 296.514 95.943 296.715 95.6144 296.909C95.4582 296.936 95.3037 296.971 95.1517 297.015C89.104 299.135 83.187 299.096 77.4714 295.927C76.938 295.631 76.7366 295.79 76.5989 296.305C76.4222 296.955 76.069 297.679 75.3625 297.761C73.794 297.937 72.6495 298.972 71.2789 299.527C70.9715 299.605 70.6571 299.665 70.3569 299.764C67.1811 300.762 63.8234 301.043 60.5258 300.587C58.8408 300.378 57.2547 299.81 55.6262 299.382C54.7184 298.849 53.7787 298.354 52.9026 297.771C52.2884 297.406 51.7724 296.897 51.3994 296.288C51.0264 295.678 50.8076 294.987 50.7619 294.274C50.3592 290.261 49.5785 286.284 49.0557 282.264C48.1867 275.577 46.258 269.098 45.1982 262.45C44.3469 257.098 43.7216 251.701 42.7254 246.381C41.5051 239.63 39.6238 233.016 37.1087 226.634C36.8924 226.099 36.6483 225.575 36.3775 225.066C31.6898 216.196 28.6059 206.75 26.6948 196.947C25.1909 189.241 25.2618 181.311 26.9032 173.633C27.6663 170.005 27.8605 166.268 28.7119 162.643L28.9168 162.445C31.8064 161.435 34.6783 160.379 37.5856 159.422C39.8888 158.666 42.1072 157.694 44.3786 156.861L45.6327 156.659C45.8588 156.659 46.0919 156.712 46.2509 156.483C46.7031 156.359 47.3106 156.779 47.6074 156.108H48.1902C48.4764 156.377 48.6671 156.288 48.7943 155.949L49.3454 155.917C49.6739 156.165 49.9565 156.182 50.1402 155.744L50.4935 155.723C51.2 155.896 51.8676 155.878 52.4434 155.37H53.1888C53.6763 155.596 54.1532 155.695 54.57 155.229C55.2449 155.136 55.93 155.148 56.6012 155.264C57.7705 155.455 58.9574 155.37 60.1337 155.486C63.1804 155.786 66.2047 156.281 69.1876 156.97C72.7766 157.807 76.2103 159.16 79.7534 160.121C85.6492 161.725 91.6121 163.042 97.6174 164.134C101.572 164.86 105.579 165.266 109.6 165.349C112.454 165.399 115.312 165.381 118.166 165.349C121.168 165.333 124.158 164.965 127.075 164.254C129.036 163.781 131.028 163.328 133.013 162.866ZM117.117 231.802C117.053 230.972 117.025 230.004 116.894 229.054C116.637 227.203 116.018 225.497 114.634 224.168C114.044 223.603 113.312 223.335 112.514 223.766C111.716 224.197 111.596 224.91 111.748 225.684C112.892 231.509 111.91 237.104 109.953 242.597C109.697 243.254 109.487 243.928 109.324 244.614C109.226 244.977 109.254 245.361 109.404 245.705C109.553 246.05 109.816 246.333 110.147 246.508C110.467 246.701 110.84 246.786 111.212 246.75C111.584 246.714 111.934 246.558 112.21 246.307C112.481 246.081 112.719 245.818 112.917 245.526C115.775 241.439 116.99 236.854 117.131 231.802H117.117ZM76.6554 269.444C76.7366 270.554 76.5211 271.677 76.8567 272.783C77.2594 274.118 77.8529 275.418 77.6515 276.877C77.6127 277.149 77.7293 277.417 78.0542 277.414C78.3792 277.41 78.4075 277.12 78.4075 276.848C78.5099 275.04 79.0151 273.298 79.2977 271.518C79.8099 268.243 80.58 265 80.5023 261.655C80.4846 260.825 80.2409 259.974 80.3681 259.182C80.8026 256.494 80.4811 253.778 80.8238 251.058C81.1664 248.338 80.8238 245.455 80.7955 242.65C80.7531 238.411 80.9686 234.204 81.0746 229.979C81.1064 228.768 81.2194 227.556 81.29 226.341C81.3077 226.069 81.2653 225.811 80.9121 225.797C80.5588 225.783 80.5341 226.03 80.5164 226.309C80.4034 228.022 80.2727 229.739 80.2974 231.46C80.2974 231.94 80.3822 232.519 80.1667 232.873C79.605 233.847 79.8135 234.847 79.8594 235.854C79.877 236.303 79.9336 236.751 79.923 237.196C79.8488 240.199 79.3931 243.184 79.5697 246.197C79.6298 247.282 79.7216 248.37 79.7004 249.458C79.6298 252.753 78.9338 255.968 78.2273 259.165C77.482 262.567 76.5141 265.915 76.6554 269.444ZM117.53 176.388C117.519 176.106 117.489 175.825 117.442 175.547C117.209 174.378 116.456 173.583 115.481 173.428C114.952 173.336 114.406 173.435 113.942 173.705C113.477 173.976 113.123 174.402 112.942 174.908C112.005 177.119 110.847 179.232 110.091 181.521C109.805 182.372 109.666 183.265 109.681 184.163C109.681 184.848 109.992 185.138 110.702 185.064C111.7 184.989 112.647 184.589 113.397 183.926C114.708 182.79 115.801 181.424 116.622 179.896C117.211 178.82 117.523 177.615 117.53 176.388ZM108.381 254.403C109.886 254.421 111.179 253.064 111.182 251.46C111.187 250.733 110.903 250.033 110.392 249.514C109.882 248.996 109.186 248.701 108.459 248.695C108.098 248.694 107.741 248.764 107.408 248.903C107.076 249.042 106.774 249.245 106.521 249.502C106.267 249.758 106.068 250.062 105.934 250.397C105.799 250.731 105.733 251.089 105.739 251.45C105.703 253.064 106.887 254.389 108.381 254.403ZM101.228 194.655C101.902 194.651 102.567 194.5 103.177 194.214C103.787 193.927 104.327 193.511 104.76 192.994C105.438 192.199 105.523 191.228 105.025 190.522C104.566 189.875 103.662 189.706 102.669 190.126C101.973 190.416 101.359 190.875 100.883 191.461C100.407 192.046 100.084 192.741 99.9418 193.482C99.6981 194.513 99.8535 194.715 101.228 194.655Z" fill="#B4090A"/>
<path d="M53.0295 61.5967C51.471 59.357 50.5927 56.7147 50.5003 53.9877C50.4402 52.1508 51.0196 50.5965 52.6728 49.5898C54.9088 49.9677 55.9474 51.6669 56.8623 53.4578C57.2162 54.2444 57.6557 54.9895 58.1728 55.6798C58.9359 56.6017 60.3382 56.8419 61.2178 56.2803C61.995 55.7822 62.4118 54.1608 61.9703 53.2211C61.6947 52.6348 61.1966 52.2744 60.5573 52.5924C59.9179 52.9103 60.1051 53.2989 60.5043 53.7616C60.5906 53.8473 60.6577 53.9504 60.7014 54.0639C60.745 54.1774 60.7641 54.2989 60.7574 54.4204C60.7508 54.5418 60.7185 54.6605 60.6627 54.7686C60.6068 54.8766 60.5288 54.9717 60.4336 55.0474C60.0274 55.3724 59.5682 55.1216 59.2326 54.7931C58.9105 54.4321 58.6813 53.998 58.5649 53.5285C57.6571 50.7943 57.7101 47.986 57.9892 45.1706C58.4872 40.1509 59.01 35.1843 61.239 30.4967C63.6164 25.4982 67.2231 22.0505 72.4511 20.4114C76.132 19.2598 79.668 19.4789 82.6176 22.432C82.9709 22.7853 83.2747 23.3681 83.96 23.1915C85.2635 23.2692 86.574 23.2833 87.8669 23.4388C91.0909 23.8187 94.079 25.319 96.3095 27.6777C94.727 27.8261 93.1303 27.8508 91.6608 28.628C91.1305 28.8641 90.7143 29.2993 90.5021 29.8396C90.4088 30.0467 90.3957 30.281 90.4656 30.4972C90.5355 30.7133 90.6832 30.8957 90.8801 31.0089C90.9701 31.0786 91.0742 31.1279 91.1851 31.1536C91.296 31.1792 91.4112 31.1804 91.5227 31.1573C91.6341 31.1341 91.7393 31.0871 91.8308 31.0194C91.9223 30.9517 91.9981 30.8649 92.0529 30.7651C92.4061 30.2317 92.929 30.0834 93.4871 29.9032C95.2533 29.3345 97.0196 29.7584 98.7858 29.8255C98.4926 30.2459 98.7858 30.532 99.0084 30.8534C99.8224 32.0043 100.539 33.2214 101.149 34.4919C102.741 38.0249 103.732 41.7988 104.081 45.6581C104.37 49.0055 104.262 52.3754 103.76 55.6974C103.277 59.0269 102.326 62.2713 100.934 65.334C99.3722 68.7711 97.6236 72.0457 94.1653 74.0451C90.9048 75.935 87.5808 77.5882 83.7445 77.9415C82.9065 77.9919 82.1 78.2789 81.4185 78.769C80.737 79.2592 80.2085 79.9325 79.8941 80.7109C79.0816 82.509 78.8096 84.4448 78.414 86.3629C78.1667 87.571 77.7887 88.7897 78.2232 90.0438C77.4355 89.793 76.6195 89.6057 75.8635 89.2843C71.5292 87.4333 68.2828 84.466 66.4812 80.0362C66.0432 77.9415 66.7815 75.5429 64.8775 73.8261C65.2661 73.2221 65.0047 72.7452 64.5878 72.2824C62.4471 69.9015 60.3736 67.4747 59.3774 64.3379C59.1662 63.8342 58.8452 63.384 58.4378 63.0203C58.1446 62.7059 57.703 62.667 57.5052 62.9673C57.0354 63.6526 56.2865 63.6738 55.633 63.9387C55.1879 63.8539 54.8912 63.5183 54.5308 63.2923C54.5308 62.6317 54.9053 62.0912 55.096 61.4907C55.2232 61.0915 55.2444 60.6535 54.7817 60.4062C54.5983 60.3041 54.3834 60.2739 54.179 60.3215C53.9746 60.3692 53.7952 60.4913 53.676 60.6641C53.4421 60.9617 53.2262 61.2732 53.0295 61.5967ZM86.3656 50.6813C85.3765 50.9745 85.1328 51.6421 85.7156 52.4475C85.9656 52.7872 86.3393 53.0147 86.7559 53.0808C87.1724 53.147 87.5982 53.0463 87.9411 52.8008C88.4603 52.4455 88.8552 51.9367 89.0706 51.3457C89.286 50.7546 89.311 50.111 89.1421 49.505C88.8383 48.6113 88.2237 48.3251 87.2664 48.636C85.539 46.785 81.0174 47.6398 79.8234 49.2153C79.5666 49.5053 79.3708 49.8441 79.2476 50.2115C79.1795 50.3941 79.1776 50.5948 79.2421 50.7788C79.3067 50.9627 79.4336 51.1182 79.6009 51.2182C80.0036 51.4832 80.2685 51.2182 80.4875 50.9356C80.6974 50.6511 80.9615 50.411 81.2647 50.2291C81.5678 50.0472 81.904 49.9272 82.2538 49.8759C83.7021 49.6392 85.2317 49.18 86.3656 50.6813ZM86.9096 59.3111C86.9626 59.1628 87.005 59.0074 87.0721 58.8625C87.2779 58.4591 87.3689 58.0069 87.3353 57.5553C87.3016 57.1037 87.1446 56.67 86.8813 56.3015C86.3691 55.595 85.4366 55.7292 84.6417 55.8211C84.3661 55.843 84.0981 55.9222 83.8548 56.0536C83.6115 56.185 83.3983 56.3656 83.2287 56.5841C82.6847 57.2906 82.1443 57.2906 81.5861 56.5841C81.0656 55.9613 80.3335 55.5525 79.5302 55.436C78.3645 55.2311 77.4673 56.0259 77.4319 57.2023C77.4107 57.8664 77.7075 58.4457 77.8417 59.0674C77.3613 59.1487 77.1034 58.7848 76.8138 58.5199C76.5806 58.3079 76.3581 58.1207 76.0825 58.3856C75.9787 58.4858 75.9091 58.6163 75.8837 58.7584C75.8583 58.9005 75.8785 59.0469 75.9412 59.1769C76.132 59.6538 76.5736 59.788 76.9763 59.9505C77.379 60.113 77.7993 60.0989 78.0183 60.5299C77.7958 61.0809 77.7393 61.7062 77.2129 62.1159C76.9551 62.3173 77.0328 62.6352 77.0893 62.9249C77.2553 63.7656 77.9124 64.1259 78.6083 64.3838C80.4063 65.0444 82.2962 65.168 84.1861 65.1362C85.3221 65.124 86.4133 64.691 87.2487 63.921C88.6017 62.6882 88.5487 61.3565 87.0862 60.2331C87.7712 59.9898 88.3997 59.6101 88.9337 59.1169C89.0018 59.074 89.0598 59.0169 89.1037 58.9494C89.1475 58.8819 89.1761 58.8057 89.1876 58.7261C89.199 58.6464 89.1929 58.5652 89.1698 58.4881C89.1468 58.411 89.1072 58.3399 89.0538 58.2797C88.7748 57.9759 88.5451 58.2302 88.3473 58.421C87.9595 58.8448 87.4619 59.153 86.9096 59.3111ZM66.6296 41.3661C66.0361 40.9952 65.4674 40.5854 64.8634 40.2675C64.6901 40.1456 64.4757 40.097 64.2668 40.132C64.0579 40.167 63.8711 40.283 63.7471 40.4547C63.461 40.8786 63.6976 41.2707 64.0156 41.5533C64.4854 41.9772 65.0011 42.3482 65.5027 42.7367C66.1209 43.2136 66.7144 43.2383 67.269 42.6308C67.269 43.6246 67.269 44.6148 67.269 45.6016C67.2047 47.57 67.8003 49.5035 68.961 51.0946C70.7096 53.426 73.4685 53.4649 75.263 51.1511C76.3969 49.6887 76.8985 47.9931 77.107 46.1844C77.3578 46.1632 77.6404 46.1844 77.6439 45.81C77.6709 45.4588 77.6276 45.1058 77.5167 44.7714C76.3298 41.8571 74.3975 39.6599 71.3773 38.5967C70.0596 38.1339 68.6996 38.0279 67.4421 38.8828C67.0111 38.5578 66.5943 38.2045 66.1386 37.9114C65.9834 37.8068 65.7963 37.7602 65.6102 37.7795C65.424 37.7989 65.2506 37.883 65.1202 38.0172C64.9898 38.1514 64.9106 38.3272 64.8966 38.5138C64.8826 38.7004 64.9346 38.886 65.0435 39.0382C65.5981 39.8189 66.1457 40.6561 67.3008 40.5643C67.2831 40.9917 66.6155 40.8963 66.6296 41.3661ZM98.8529 39.0453C98.9448 37.604 98.7293 37.3779 97.2068 37.3214H97.1114C94.2854 37.2684 92.3249 38.8369 90.6328 40.8539C89.8022 41.7479 89.2042 42.8324 88.8913 44.012C88.8065 44.4147 88.4392 45.0717 89.2905 45.213C89.3894 47.4632 89.8981 49.5792 91.3605 51.3666C92.9113 53.26 95.377 53.3624 97.0584 51.5927C98.0517 50.5381 98.7201 49.2197 98.9836 47.7952C99.3369 46.0891 99.1638 44.3581 99.1991 42.6343C99.5524 42.9875 99.9551 43.2737 100.474 43.0158C101.268 42.6033 101.985 42.0572 102.594 41.4014C102.731 41.2852 102.82 41.1224 102.844 40.9443C102.868 40.7663 102.826 40.5856 102.725 40.4371C102.633 40.301 102.496 40.2023 102.337 40.1589C102.179 40.1155 102.011 40.1302 101.863 40.2004C100.76 40.7373 99.5382 41.1612 99.1885 42.5601C98.8812 42.1892 99.0401 41.6805 98.807 41.2849C99.2698 41.1471 99.7219 40.9987 99.8173 40.43C100.566 40.264 100.962 39.6741 101.368 39.1159C101.492 38.9673 101.56 38.7797 101.56 38.5861C101.56 38.3924 101.492 38.2048 101.368 38.0562C101.054 37.7029 100.662 37.7029 100.245 37.922C99.7007 38.1904 99.3263 38.6814 98.8529 39.0453ZM70.3034 27.6707C69.172 27.6959 68.0458 27.8308 66.9405 28.0734C66.3117 28.2288 65.7324 28.5361 65.9266 29.3168C66.1209 30.0975 66.7391 30.041 67.3396 29.8891C68.6463 29.5636 70.0011 29.4774 71.3384 29.6347C72.4935 29.7619 73.7193 29.776 74.5176 30.8888C74.6445 31.0402 74.8229 31.1394 75.0185 31.1675C75.214 31.1955 75.4131 31.1504 75.5774 31.0407C75.7585 30.9395 75.8985 30.7782 75.9733 30.5847C76.0481 30.3912 76.053 30.1776 75.9872 29.9809C75.9057 29.6869 75.7594 29.415 75.5588 29.1851C75.3583 28.9552 75.1087 28.7733 74.8285 28.6527C73.3872 27.8897 71.8294 27.7802 70.3034 27.6707Z" fill="#83158F"/>
<path d="M83.9708 23.1878C83.2855 23.3644 82.9711 22.7745 82.6285 22.4283C79.6788 19.4751 76.1428 19.2491 72.462 20.4077C67.2339 22.0468 63.6308 25.4945 61.2499 30.493C59.0209 35.1806 58.4981 40.1472 58 45.1669C57.7209 47.9929 57.6679 50.7906 58.5758 53.5248C58.6922 53.9943 58.9213 54.4284 59.2434 54.7894C59.579 55.1179 60.0382 55.3687 60.4445 55.0437C60.5396 54.968 60.6177 54.8729 60.6735 54.7649C60.7293 54.6568 60.7616 54.5381 60.7683 54.4167C60.7749 54.2952 60.7558 54.1737 60.7122 54.0602C60.6686 53.9466 60.6014 53.8436 60.5151 53.7579C60.1159 53.3022 59.9923 52.8748 60.5681 52.5886C61.1439 52.3025 61.695 52.631 61.9811 53.2174C62.4227 54.1712 62.0058 55.7785 61.2287 56.2766C60.3491 56.8382 58.9467 56.598 58.1837 55.676C57.6665 54.9858 57.227 54.2406 56.8731 53.4541C55.9582 51.6631 54.9197 49.964 52.6836 49.586C51.2679 46.3197 50.4484 42.8263 50.2638 39.2712C49.8505 32.9127 51.3942 26.9428 53.9871 21.1955C54.1789 20.7916 54.2629 20.345 54.2308 19.899C54.1203 18.2324 54.214 16.5586 54.5099 14.9147C54.8631 12.8199 56.2761 11.361 58.4168 11.1102C58.9871 11.07 59.5421 10.9083 60.0448 10.636C60.5474 10.3636 60.986 9.98694 61.3311 9.53119C61.6274 9.19849 61.8256 8.79003 61.9034 8.35134C62.1131 7.18244 62.4618 6.04279 62.9419 4.95663C63.6484 3.19038 65.0226 2.36732 66.8277 2.25781C68.6328 2.1483 70.4025 2.06705 72.1547 2.7029C72.9035 2.97137 73.8185 3.1056 74.2741 2.05292C74.2868 2.02336 74.3062 1.99713 74.3307 1.97629C74.3552 1.95545 74.3842 1.94058 74.4154 1.93282C76.655 1.70674 78.3895 -0.186671 80.7739 0.0394082C81.65 0.120655 82.4978 0.198369 83.2678 0.639929C83.4398 0.753263 83.6405 0.815135 83.8464 0.818264C84.0522 0.821393 84.2548 0.765649 84.43 0.657593C86.7085 -0.557582 88.8492 0.0923955 91.064 1.01084C92.9433 1.79859 94.7943 2.85833 97.0693 2.12711C98.4293 1.69261 99.9447 1.84451 101.368 2.07059C102.077 2.15702 102.749 2.43206 103.315 2.86701C103.881 3.30196 104.32 3.88087 104.586 4.54333C104.94 5.39819 105.293 6.26011 105.607 7.13617C105.785 7.84626 106.086 8.51949 106.497 9.12496C106.878 9.64681 107.361 10.0859 107.917 10.4156C108.472 10.7453 109.089 10.9588 109.73 11.0431C110.649 11.1677 111.506 11.5777 112.179 12.2153C112.853 12.8529 113.31 13.6859 113.485 14.5968C113.885 16.3168 114.067 18.0805 114.025 19.846C114.007 20.2277 114.064 20.6092 114.191 20.9694C115.318 24.0709 116.544 27.1442 117.286 30.3693C118.155 34.1526 118.487 37.9748 117.519 41.7898C116.954 44.0188 116.251 46.2125 115.608 48.4239C115.156 49.0809 114.707 49.6849 113.81 49.8368C113.259 49.9358 112.821 50.3773 112.397 50.78C111.097 51.9952 110.563 53.6837 109.663 55.1426C108.998 56.2024 107.826 56.7746 106.738 56.492C105.798 56.2483 105.374 55.4747 105.392 54.0193C105.392 53.8603 105.392 53.6978 105.392 53.5389C105.399 53.2966 105.486 53.0636 105.64 52.8759C105.793 52.6881 106.004 52.5561 106.24 52.5003C106.393 52.4456 106.559 52.44 106.715 52.4843C106.872 52.5286 107.011 52.6207 107.112 52.7476C107.515 53.2174 107.084 53.4753 106.872 53.8074C106.748 53.9785 106.686 54.1862 106.695 54.397C106.704 54.6078 106.784 54.8095 106.921 54.9695C107.275 55.3546 107.713 55.1002 108.055 54.8706C108.5 54.5704 108.642 54.0476 108.843 53.5777C109.465 52.1047 109.518 50.5292 109.603 48.9855C109.677 46.9407 109.559 44.8934 109.249 42.8708C108.666 38.6848 108.172 34.5235 106.247 30.606C104.957 27.9814 103.421 25.6605 101.241 23.7918C98.6692 21.4841 95.4096 20.0865 91.9648 19.8143C90.4559 19.6564 88.9316 19.8829 87.5339 20.4728C86.1361 21.0626 84.9104 21.9966 83.9708 23.1878ZM83.8013 8.70459C84.5537 8.62334 84.589 9.05784 84.589 9.61597C84.589 11.5659 84.151 13.4734 83.9426 15.4022C83.7942 16.7869 84.0874 18.2282 83.4692 19.567C83.3102 19.9202 83.4021 20.005 83.7942 20.5631C84.4018 19.0018 84.5784 17.3839 84.7621 15.7837C84.9404 13.7459 85.0005 11.6995 84.9422 9.65483C84.9422 9.22033 85.0058 8.88828 85.571 8.87768C84.9705 8.83176 84.4548 8.48911 83.8013 8.72225V8.70459Z" fill="#1A1E19"/>
<path d="M91.6123 309.298C92.3647 308.779 92.6331 309.093 92.672 309.888C92.7462 311.937 92.8804 313.985 92.8981 316.038C92.886 320.518 93.1823 324.994 93.7847 329.433C94.0885 331.485 94.138 333.573 94.6219 335.601C94.7836 336.302 95.0958 336.96 95.5368 337.529C96.9781 339.433 98.9881 340.67 100.638 342.305C101.811 343.468 102.969 344.683 103.672 346.23C103.772 346.445 103.813 346.682 103.792 346.918C103.77 347.154 103.686 347.379 103.549 347.572C102.337 349.731 100.518 350.098 98.1791 349.932C94.3994 349.664 91.2696 347.738 87.8537 346.509C83.8267 345.057 82.336 341.595 80.598 338.257C80.2447 337.597 80.3224 337.551 79.6831 336.957C79.3969 338.211 79.0967 339.405 78.86 340.613C78.7152 341.341 78.3866 341.479 77.7049 341.235C76.3095 340.737 75.1897 340.059 75.331 338.321C75.3267 338.198 75.2979 338.078 75.2463 337.967C75.2286 337.925 75.1474 337.904 75.0802 337.862C74.8365 338.194 74.9743 338.593 74.9036 338.953C74.6669 340.158 73.3387 341.327 72.1235 341.38C71.6643 341.401 71.4912 341.104 71.417 340.748C71.1945 339.811 70.9967 338.872 70.7953 337.922C70.7815 337.596 70.6569 337.284 70.4421 337.038C69.944 337.307 69.8027 337.816 69.6155 338.282C68.7854 340.352 67.5384 342.168 66.2596 343.98C65.1999 345.463 63.4725 345.983 61.9147 346.679C59.9011 347.576 57.9406 348.618 55.807 349.233C53.6734 349.847 51.5186 350.264 49.2931 349.815C47.7494 349.508 47.1136 348.222 46.4212 347.05C46.2163 346.696 46.5378 346.248 46.7391 345.887C48.0355 343.577 49.9572 341.843 52.0378 340.26C53.245 339.306 54.3086 338.183 55.1959 336.925C55.7681 336.141 55.8247 335.039 55.9236 334.071C56.2556 330.793 56.7148 327.533 57.008 324.247C57.2447 321.584 57.2165 318.949 57.28 316.285C57.3295 314.077 57.4708 311.873 57.6333 309.669C57.6686 309.153 57.8099 308.768 58.4528 309.022L58.6047 309.376C58.6754 309.527 58.7496 309.679 58.8202 309.835C58.8086 310.008 58.8566 310.18 58.9562 310.322C59.0558 310.464 59.201 310.567 59.3677 310.615C60.6041 311.174 61.9253 311.099 63.2146 311.241C64.804 311.396 66.4047 311.396 67.9941 311.241C69.1951 311.138 70.2796 310.534 71.5266 310.672C72.7205 310.789 73.5683 309.828 73.6248 308.651L73.6955 308.443C74.1936 308.044 74.402 308.443 74.3419 308.796C74.1794 309.549 74.4338 310.252 74.4409 310.979C74.4833 314.339 74.5433 317.691 74.6493 321.054C74.6319 322.048 74.8145 323.036 75.1862 323.958C75.5026 322.866 75.6655 321.735 75.6702 320.598C75.6419 316.713 75.8786 312.862 75.9104 308.991C75.8937 308.752 75.9461 308.513 76.0613 308.303C76.1766 308.093 76.3498 307.921 76.5604 307.807L76.7617 308.217C76.6628 309.722 76.6981 309.757 78.0935 310.237C78.9927 310.51 79.9238 310.663 80.8629 310.693C82.7245 310.817 84.5614 311.251 86.416 311.509C87.8868 311.679 89.3743 311.395 90.6797 310.697C91.0329 310.527 91.4674 310.326 91.3261 309.771C91.3933 309.598 91.4957 309.446 91.6123 309.298Z" fill="#5C9EEA"/>
<path d="M83.9721 23.188C84.9117 21.9968 86.1374 21.0628 87.5352 20.473C88.9329 19.8831 90.4572 19.6566 91.9661 19.8144C95.4048 20.1016 98.654 21.5102 101.214 23.8238C103.38 25.7102 104.93 28.0133 106.22 30.638C108.145 34.5555 108.639 38.7168 109.222 42.9028C109.532 44.9253 109.65 46.9727 109.576 49.0175C109.491 50.5718 109.438 52.1473 108.816 53.6097C108.615 54.0795 108.463 54.6023 108.028 54.9026C107.675 55.1322 107.262 55.3866 106.894 55.0015C106.757 54.8415 106.677 54.6398 106.668 54.429C106.659 54.2182 106.721 54.0105 106.845 53.8393C107.057 53.4861 107.488 53.2388 107.085 52.7796C106.984 52.6526 106.845 52.5606 106.688 52.5163C106.532 52.4719 106.366 52.4775 106.213 52.5323C105.977 52.5881 105.766 52.7201 105.613 52.9078C105.459 53.0956 105.372 53.3286 105.365 53.5709C105.365 53.7298 105.365 53.8923 105.365 54.0513C105.347 55.4961 105.771 56.2697 106.711 56.524C107.799 56.8066 108.971 56.252 109.636 55.1746C110.536 53.7157 111.07 52.0272 112.37 50.812C112.801 50.4093 113.239 49.9677 113.783 49.8688C114.68 49.7063 115.129 49.1023 115.581 48.4558C115.581 48.7596 115.496 49.0528 115.761 49.346C117.63 51.4231 117.983 53.8252 117.149 56.411C116.531 58.3291 115.383 60 114.44 61.7486C114.044 62.4762 113.189 62.9531 112.946 63.868C112.861 64.1895 112.317 63.9811 112.175 64.3379C111.349 64.1224 110.932 64.6558 110.536 65.2316H109.406C109.381 64.6346 109.759 64.2319 110.084 63.8009C110.353 63.4477 110.487 63.0485 110.151 62.6705C109.816 62.2926 109.349 62.3526 108.933 62.5928C108.325 62.9461 108.042 63.5713 107.672 64.1189C106.545 63.8716 106.75 64.9419 106.372 65.4365C105.472 67.1104 104.694 68.847 104.044 70.6328C103.849 70.7246 103.849 70.8942 103.874 71.0672C103.732 71.4559 103.504 71.8073 103.206 72.0952C102.807 72.558 102.366 72.9854 102.525 73.6813C101.818 74.8046 100.924 75.8926 101.723 77.348C101.74 77.7507 101.762 78.1499 101.779 78.5526C101.781 78.6092 101.767 78.6652 101.741 78.7151C101.715 78.7198 101.691 78.73 101.669 78.7449C101.648 78.7598 101.63 78.7791 101.616 78.8015C101.603 78.8239 101.595 78.8489 101.592 78.8748C101.589 78.9007 101.591 78.9269 101.599 78.9518C101.598 79.0067 101.582 79.0604 101.553 79.1072C101.528 79.1106 101.503 79.1196 101.481 79.1336C101.459 79.1475 101.441 79.1661 101.427 79.188C101.413 79.21 101.404 79.2346 101.401 79.2603C101.398 79.286 101.4 79.3122 101.408 79.3368C101.407 79.3911 101.39 79.4438 101.359 79.4887C101.333 79.4927 101.308 79.5021 101.287 79.5164C101.265 79.5307 101.246 79.5495 101.232 79.5716C101.218 79.5937 101.209 79.6185 101.205 79.6444C101.201 79.6703 101.203 79.6967 101.211 79.7218C101.208 79.7743 101.192 79.8253 101.165 79.8702C101.076 79.9552 100.994 80.0473 100.921 80.1457C99.5374 82.3713 97.778 84.3399 95.7211 85.9637C92.6765 88.3092 89.0653 89.8071 85.2544 90.3052C83.8414 90.503 82.4284 90.2734 81.0649 90.556L81.0472 90.5277C80.6162 90.0226 80.0546 90.3334 79.553 90.2875C79.0867 90.3687 78.6804 90.0861 78.2318 90.0614C77.7973 88.8074 78.1753 87.5887 78.4226 86.3806C78.8182 84.473 79.0902 82.5372 79.9027 80.7286C80.2171 79.9502 80.7456 79.2769 81.4271 78.7867C82.1086 78.2965 82.9151 78.0096 83.7531 77.9591C87.5894 77.6059 90.9064 75.9385 94.1704 74.0522C97.6287 72.0563 99.3773 68.7782 100.939 65.3411C102.331 62.2784 103.282 59.034 103.765 55.7045C104.267 52.3824 104.375 49.0126 104.086 45.6652C103.736 41.8033 102.744 38.0269 101.151 34.4919C100.548 33.2172 99.8385 31.9954 99.0311 30.8393C98.8191 30.5285 98.5153 30.2317 98.8085 29.8114C98.9009 29.7884 98.9967 29.7824 99.0911 29.7937C99.6881 30.0021 100.25 29.8855 100.462 29.3062C100.73 28.5997 99.9495 28.5715 99.5716 28.3171C98.5825 27.6565 97.385 28.0133 96.3287 27.6636C94.0982 25.3049 91.1101 23.8046 87.8861 23.4246C86.5861 23.2833 85.2756 23.2692 83.9721 23.188Z" fill="#480E5E"/>
<path d="M148.278 139.361C147.449 143.177 145.966 146.821 143.894 150.132C143.032 151.506 142.238 152.933 141.181 154.183C140.652 154.637 139.996 154.917 139.302 154.985C137.999 155.183 136.713 155.487 135.416 155.748C134.961 155.61 134.533 155.801 134.095 155.854C132.933 156.002 131.774 156.423 130.602 155.897C129.711 155.081 129.365 153.989 129.051 152.873C128.238 149.973 128.235 147.005 128.263 144.042C128.266 142.914 128.592 141.81 129.203 140.862C129.814 139.894 130.411 138.912 131.008 137.934C131.129 137.741 131.18 137.513 131.155 137.287C131.129 137.061 131.027 136.851 130.867 136.69C130.549 136.305 130.192 136.623 129.909 136.743C129.04 137.149 128.061 137.255 127.126 137.044C127.126 136.991 127.126 136.938 127.126 136.888C127.68 136.828 127.945 136.637 127.479 136.108L127.281 135.913L127.083 135.715L126.938 135.521C126.26 134.048 125.525 132.589 125.525 130.911C125.879 128.834 127.348 127.658 129.107 126.987C135.113 124.687 140.574 125.853 145.473 129.936L145.625 130.067L145.668 130.106C145.855 130.364 146.021 130.622 146.229 130.872C147.716 132.798 148.317 135.005 148.328 137.404C148.31 138.047 148.292 138.7 148.278 139.361Z" fill="#490E5E"/>
<path d="M27.3907 148.051C18.6654 145.818 13.7376 139.633 10.4348 131.759C10.3358 131.526 10.2334 131.293 10.131 131.052C10.1066 130.645 9.9855 130.249 9.77771 129.897C9.73387 129.289 9.59067 128.693 9.35381 128.131C8.8416 126.566 9.13833 125.114 9.98259 123.747C10.2652 123.292 10.5866 122.857 10.8904 122.412L12.0279 121.426C14.8256 119.476 18.0691 118.261 21.4596 117.894C25.9636 117.315 30.3544 117.509 34.3144 120.134L35.7273 121.631C36.2012 122.576 36.4007 123.635 36.3031 124.687C36.1512 125.87 36.3667 127.04 36.4868 128.219C36.5577 129.178 36.8357 130.109 37.3017 130.95C37.7676 131.79 38.4104 132.519 39.1856 133.087C39.387 133.236 39.5672 133.412 39.7544 133.578C40.2383 133.815 40.5704 134.468 41.2627 134.126C42.16 134.126 43.0572 134.158 43.9545 134.161C44.4031 134.161 44.6151 134.267 44.449 134.786C44.2507 135.526 43.8885 136.212 43.3893 136.793C41.9233 138.379 39.9805 138.884 37.9599 139.135C37.2322 139.223 37.0379 139.488 37.045 140.152C37.1126 141.527 37.3791 142.884 37.8362 144.183C38.5675 146.581 40.15 148.521 41.3299 150.675C42.0823 152.046 43.0325 153.325 43.3646 154.897C43.6966 156.469 43.5023 156.663 41.9516 156.688C41.7926 156.688 41.6337 156.709 41.4712 156.719C40.2736 156.437 38.9984 156.405 37.914 155.741C36.5893 154.925 35.1869 154.229 34.0035 153.18C33.2228 152.491 32.3326 151.922 31.4919 151.301C30.365 150.266 28.9379 149.559 28.1184 148.192C27.9064 147.92 27.6485 147.952 27.3907 148.051ZM24.9639 119.321C21.3897 119.167 17.8815 120.318 15.0941 122.56C14.2251 123.235 13.9354 123.991 14.1757 124.97C14.377 125.807 14.7514 126.598 14.9705 127.442C16.168 131.964 18.4712 135.79 22.0919 138.778C23.3689 139.906 24.8719 140.749 26.5005 141.251C27.1328 141.427 27.4896 141.251 27.585 140.587C27.7734 139.582 28.0223 138.59 28.3303 137.616C29.0863 134.811 30.358 133.698 33.1981 133.426C34.438 133.31 35.2964 131.833 34.7276 130.745C34.1589 129.678 33.9308 128.463 34.0741 127.262C34.4274 123.768 33.6573 122.338 30.3544 120.466C28.7086 119.564 26.8341 119.166 24.9639 119.321Z" fill="#4A0F5F"/>
<path d="M55.6341 63.9424C56.2876 63.681 57.0471 63.6563 57.5064 62.971C57.7042 62.6778 58.1457 62.7096 58.4389 63.024C58.8464 63.3877 59.1674 63.8379 59.3786 64.3416C60.3747 67.4785 62.4483 69.9053 64.589 72.2862C65.0058 72.7489 65.2672 73.2258 64.8822 73.8299C64.0591 73.8299 64.5289 74.713 64.1298 74.9497C62.5437 75.9034 63.4233 77.0338 63.8542 78.1466C63.96 78.414 64.0404 78.6907 64.0944 78.9732C64.4018 80.5981 64.6102 82.2407 63.6599 83.7244C63.5247 83.9251 63.4432 84.1572 63.4235 84.3984C63.4037 84.6397 63.4462 84.8819 63.5469 85.102C64.3099 87.6525 64.4547 90.1747 62.5437 92.3436C62.3222 92.538 62.167 92.7968 62.0999 93.0837C62.0327 93.3706 62.057 93.6714 62.1692 93.9438C62.9146 96.3177 62.8934 98.6102 61.2119 100.656C61.1532 100.766 61.1149 100.885 61.0989 101.009C59.4139 101.464 57.7395 101.072 56.0686 100.906C55.5423 100.853 55.0583 100.723 55.0089 101.433C54.9035 102.389 54.8952 103.354 54.9842 104.312C55.514 108.257 55.3869 112.235 55.4469 116.198C55.4858 118.873 55.1219 121.547 54.9453 124.224C54.8994 124.895 54.8782 125.567 54.8358 126.238C54.6274 129.417 54.4825 132.635 54.5885 135.843C54.1834 135.943 53.762 135.958 53.3505 135.888C52.9391 135.818 52.5465 135.665 52.197 135.436C51.5294 135.037 51.0949 134.317 50.0599 134.461C49.3534 134.56 48.4491 134.55 47.792 133.953C47.7424 133.604 47.7751 133.248 47.8874 132.914C49.8303 128.343 50.9006 123.49 52.4372 118.784C52.7407 117.85 52.7208 116.841 52.3807 115.919C51.7095 113.871 51.8473 111.836 53.0448 110.027C53.5182 109.321 53.4652 108.943 52.8435 108.505C51.2397 105.997 50.8688 103.407 52.3913 100.733C52.4708 100.598 52.5032 100.441 52.4834 100.285C52.4635 100.13 52.3926 99.9856 52.2818 99.8749C51.6597 98.826 51.2583 97.6613 51.102 96.4519C50.5862 93.3363 51.6389 91.0401 54.1646 89.772C52.9035 87.9104 52.9318 85.8862 53.3981 83.7915C53.4327 83.7025 53.444 83.6062 53.431 83.5116C53.418 83.4171 53.3812 83.3274 53.3239 83.251C52.2288 81.997 51.9709 80.4639 51.865 78.8813C51.8014 77.6238 52.4443 76.5675 52.8258 75.4336C53.7443 74.6529 53.7972 73.8793 53.3204 72.6995C52.657 70.9708 52.6848 69.053 53.3981 67.3442C54.3801 68.404 55.4787 68.842 56.8387 68.0507C56.8882 68.0225 56.9906 68.0931 57.0683 68.1143C56.8246 68.8915 56.27 69.5768 56.4219 70.4669C56.4784 70.799 56.5349 71.1134 56.9235 71.1734C57.0686 71.192 57.2156 71.1599 57.3397 71.0827C57.4639 71.0055 57.5577 70.8878 57.6053 70.7495C57.8985 70.149 58.1599 69.5344 58.4213 68.9197C58.9299 67.7293 58.6968 67.4078 57.4322 67.5456C57.7077 66.8391 58.4566 66.3092 58.1104 65.3413C57.5699 65.5427 57.0825 66.6448 56.5596 65.3908C56.4572 65.5745 56.3866 65.7122 56.3053 65.8465C56.0863 66.1997 55.9026 66.6377 55.401 66.553C54.8994 66.4682 54.8075 66.0195 54.6556 65.6416C54.6029 65.4603 54.5663 65.2747 54.5461 65.087C54.9135 64.7161 55.2738 64.3275 55.6341 63.9424ZM61.3638 77.9982C61.1713 78.0267 60.9903 78.1078 60.8407 78.2324C60.6912 78.357 60.5788 78.5204 60.516 78.7047C59.9762 79.8363 59.8331 81.1168 60.1098 82.3396C60.1593 82.5622 60.1487 82.8518 60.3853 82.8942C60.622 82.9366 60.7386 82.6364 60.7845 82.435C61.1378 81.188 61.491 79.934 61.8442 78.6764C61.9396 78.2949 61.7701 78.0477 61.3638 77.9982ZM60.1063 86.3101C59.8733 86.32 59.6478 86.3955 59.4559 86.528C59.264 86.6606 59.1135 86.8446 59.0218 87.059C58.7504 87.5683 58.5848 88.1271 58.535 88.702C58.4852 89.2769 58.5523 89.856 58.7321 90.4043C58.8381 90.7575 58.9794 91.1991 59.3397 91.1708C59.7 91.1426 59.6753 90.6339 59.693 90.3124C59.8025 89.1432 59.7424 87.9492 60.4736 86.9107C60.7774 86.5009 60.3889 86.3808 60.1063 86.3101ZM58.1599 99.0271C58.1599 98.967 58.1599 99.0624 58.1599 99.1578C58.1881 99.511 58.1599 99.9385 58.5626 100.044C59.0289 100.168 59.103 99.6912 59.2691 99.398C59.6223 98.6915 59.9756 97.985 60.3288 97.2538C60.4736 96.9641 60.6397 96.6709 60.3288 96.3848C60.018 96.0987 59.6435 96.2682 59.3786 96.4872C58.976 96.7743 58.6529 97.1589 58.4398 97.605C58.2266 98.0512 58.1303 98.5441 58.1599 99.0377V99.0271ZM55.4469 97.7236C56.1534 96.5861 56.655 95.3568 57.5311 94.3324C57.8525 93.9509 57.6053 93.5376 57.033 93.5023C56.8751 93.5081 56.72 93.5455 56.5769 93.6123C56.4337 93.679 56.3053 93.7737 56.1993 93.8909C54.8958 94.94 55.3763 96.3601 55.4469 97.7236ZM56.2347 80.1354C56.2347 80.1813 56.2347 80.3402 56.2347 80.4886C56.2347 80.8913 56.3406 81.3152 56.7928 81.3541C57.2449 81.3929 57.3368 80.969 57.4216 80.6476C57.5735 80.0682 57.6936 79.4783 57.8031 78.8813C57.8426 78.7413 57.8255 78.5913 57.7554 78.4638C57.6854 78.3363 57.568 78.2414 57.4286 78.1996C57.3056 78.1632 57.1742 78.1664 57.0531 78.2089C56.932 78.2514 56.8273 78.3309 56.7539 78.4362C56.5569 78.6688 56.4092 78.9391 56.3199 79.2306C56.2307 79.5221 56.2016 79.8288 56.2347 80.1318V80.1354ZM57.1849 84.6993C57.2096 84.4803 57.2344 84.3461 57.2414 84.1907C57.2626 83.7385 57.2414 83.2899 56.7999 83.0285C56.7504 83.0002 56.5455 83.1097 56.5208 83.1874C56.4305 83.4086 56.4096 83.652 56.4607 83.8854C56.5118 84.1188 56.6325 84.3312 56.8069 84.4944C56.9251 84.5752 57.0519 84.6428 57.1849 84.6958V84.6993ZM55.5105 98.6738C55.4893 98.4018 55.3975 98.1652 55.0831 98.1581C55.0115 98.1547 54.9401 98.1667 54.8736 98.1935C54.8072 98.2202 54.7472 98.2609 54.698 98.3129C54.6487 98.3648 54.6112 98.4268 54.588 98.4946C54.5649 98.5624 54.5566 98.6344 54.5638 98.7056C54.5638 99.0165 54.7122 99.2956 55.0477 99.285C55.3833 99.2744 55.4928 98.9847 55.5105 98.6703V98.6738ZM57.1037 73.6815C56.9765 73.4484 57.2273 72.975 56.7504 72.975C56.3371 72.975 56.4325 73.3883 56.4325 73.6356C56.4325 73.9606 56.4078 74.4481 56.8634 74.4304C57.2308 74.4092 56.9588 73.9394 57.1037 73.678V73.6815ZM56.7504 65.2035C56.7716 65.2035 56.8034 65.1682 56.8069 65.1506C56.8105 65.1329 56.7787 65.1082 56.761 65.087L56.7009 65.1682L56.7504 65.2035Z" fill="#1B1F1A"/>
<path d="M52.8284 75.4297C52.4469 76.5636 51.804 77.6198 51.8676 78.8774L46.8126 81.1982C45.3819 81.2194 43.9548 81.1452 42.5312 81.5056C37.0488 82.8903 32.4813 85.8046 28.5532 89.7857C27.2108 91.1492 26.5291 92.7318 27.3945 94.6535L24.5226 97.3947C24.2718 97.3551 24.0423 97.2303 23.8726 97.0414C22.2866 95.6956 20.9795 95.858 19.8103 96.4974C18.3796 97.2781 17.7932 99.0196 18.0935 100.627C18.3302 101.874 19.2557 102.467 20.0999 103.177C19.0614 105.035 18.0617 106.915 16.9702 108.745C15.7409 110.808 14.7765 112.984 13.685 115.124C12.6499 117.138 11.6396 119.095 12.0035 121.454L10.866 122.44C9.97231 122.115 9.09979 121.698 8.1107 121.878C6.78861 122.131 5.51206 122.581 4.32387 123.214C2.60002 124.118 2.37041 125.877 3.57145 127.403C5.1752 129.445 7.27349 130.116 9.7533 129.915C9.96109 130.266 10.0822 130.662 10.1065 131.07C6.96264 130.865 3.96709 130.243 1.52968 128.043C1.37106 127.932 1.23844 127.789 1.1411 127.622C0.46993 126.001 -0.363737 124.471 0.141409 122.549C1.90765 115.855 5.10808 109.903 9.15631 104.357C11.4196 101.247 13.9515 98.3417 16.7229 95.6744C19.8828 92.6006 23.2954 89.7977 26.9247 87.2953C30.3715 84.911 33.9905 82.7857 37.7518 80.9368C42.5666 78.5688 47.6209 76.7226 52.8284 75.4297Z" fill="#FEDDEA"/>
<path d="M106.371 65.4186C106.749 64.9241 106.544 63.8537 107.674 64.101C108.225 64.8782 108.126 65.7259 107.95 66.5737C107.681 67.8454 107.975 68.4707 108.988 68.9087C110.002 69.3467 110.776 68.8593 111.532 68.2799C111.659 68.8663 111.776 69.4562 111.924 70.0462C111.98 70.2723 111.998 70.6149 112.337 70.5831C112.465 70.556 112.58 70.489 112.667 70.3919C112.754 70.2947 112.808 70.1724 112.821 70.0426C112.984 69.0606 113.086 68.0715 112.203 67.3156C112.362 66.549 112.524 65.7789 112.683 65.0124C114.63 67.259 115.117 70.9293 113.821 73.5539C113.736 73.72 113.676 73.9072 113.605 74.0732C113.581 74.1191 113.524 74.1933 113.538 74.211C115.947 77.1029 116.168 80.0643 114.199 83.0952C114.117 83.2091 114.061 83.3396 114.034 83.4775C114.008 83.6154 114.012 83.7574 114.047 83.8935C114.4 85.7763 114.548 87.6485 113.464 89.3759C113.266 89.6903 113.245 89.8634 113.641 89.9976C115.16 90.4957 115.824 91.7215 116.152 93.1486C116.774 95.851 116.212 98.3414 114.669 100.627C114.609 100.337 114.577 100.086 114.135 100.192C113.073 100.471 111.959 100.489 110.889 100.245C111.161 98.6346 111.005 97.1121 109.914 95.8051C109.561 95.4024 109.161 94.9961 108.607 95.3458C108.052 95.6955 108.395 96.1795 108.625 96.5928C109.405 98.0024 109.61 99.6594 109.197 101.217C108.844 101.217 108.49 101.217 108.155 101.217C107.448 101.217 106.692 101.362 106.162 100.676C104.622 98.6416 104.463 96.395 105.219 94.0494C105.459 93.3111 105.368 92.806 104.792 92.2832C104.233 91.7047 103.836 90.9897 103.64 90.2096C103.252 88.9626 103.329 87.6874 103.428 86.4157C103.598 85.3878 104.753 84.3669 103.457 83.3283C102.927 81.8835 103.103 80.4069 103.259 78.9339C103.467 78.3793 103.658 77.8141 103.895 77.2701C104.442 76.0161 104.453 76.0196 103.29 75.2743C103.124 74.6985 103.223 73.9955 102.51 73.6882C102.351 72.9817 102.792 72.5648 103.192 72.1021C103.489 71.8142 103.717 71.4628 103.859 71.0741C103.93 71.0294 103.985 70.963 104.016 70.8848C104.046 70.8066 104.051 70.7207 104.029 70.6396C104.343 70.6644 104.442 70.4171 104.601 70.2157C105.71 68.7851 106.138 67.1389 106.371 65.4186ZM110.963 89.0262C110.935 87.864 110.38 87.048 109.744 86.285C109.483 85.9706 109.14 85.6174 108.685 85.9141C108.229 86.2108 108.473 86.6488 108.639 87.0233C108.992 87.8322 109.508 88.5846 109.433 89.5384C109.398 89.9976 109.296 90.6794 109.84 90.7607C110.447 90.8525 110.67 90.1884 110.843 89.6691C110.897 89.4582 110.933 89.2431 110.952 89.0262H110.963ZM110.165 78.7573C110.031 77.8155 109.563 76.953 108.847 76.3269C108.758 76.2318 108.637 76.1723 108.507 76.1593C108.377 76.1463 108.247 76.1808 108.141 76.2563C108.035 76.3318 107.962 76.4432 107.933 76.5695C107.904 76.6957 107.923 76.8281 107.985 76.9416C108.281 77.7182 108.688 78.4476 109.193 79.107C109.345 79.3083 109.578 79.5309 109.836 79.4426C110.094 79.3543 110.119 79.001 110.154 78.7573H110.165ZM113.471 93.7845C113.477 93.4814 113.408 93.1815 113.269 92.9119C113.131 92.6424 112.927 92.4117 112.676 92.2408C112.457 92.0642 112.206 91.8628 111.906 92.0642C111.791 92.1532 111.712 92.2809 111.683 92.4237C111.655 92.5665 111.679 92.7148 111.751 92.8413C111.965 93.3678 112.22 93.8769 112.514 94.3638C112.652 94.5899 112.606 95.0491 112.955 95.0067C113.305 94.9643 113.309 94.5369 113.429 94.2578C113.465 94.1028 113.475 93.9429 113.46 93.7845H113.471ZM109.628 81.3925C108.995 81.608 109.063 82.2474 108.921 82.7702C108.868 82.9927 109.024 83.1835 109.229 83.1234C109.497 83.0311 109.731 82.8581 109.898 82.628C110.065 82.3979 110.157 82.1218 110.161 81.8376C110.186 81.5197 109.981 81.3784 109.628 81.3925ZM113.694 96.7023C113.672 96.349 113.725 95.9004 113.263 95.8686C112.736 95.8368 112.694 96.3243 112.726 96.6988C112.758 97.0732 112.648 97.6914 113.15 97.6949C113.542 97.6985 113.722 97.1651 113.683 96.7023H113.694ZM111.956 72.7309C111.956 72.4765 111.899 72.2787 111.602 72.2999C111.546 72.3004 111.49 72.312 111.438 72.3341C111.386 72.3562 111.339 72.3884 111.3 72.4288C111.261 72.4692 111.23 72.517 111.209 72.5695C111.188 72.6219 111.178 72.678 111.179 72.7344C111.167 72.7887 111.168 72.8451 111.182 72.8989C111.196 72.9527 111.222 73.0025 111.259 73.0441C111.296 73.0858 111.342 73.1181 111.394 73.1386C111.445 73.1591 111.501 73.167 111.556 73.1618C111.811 73.1618 111.931 72.9958 111.945 72.7309H111.956Z" fill="#1B1F1A"/>
<path d="M133.012 162.866C131.027 163.329 129.035 163.767 127.056 164.254C124.14 164.966 121.15 165.333 118.148 165.349C115.293 165.374 112.435 165.392 109.581 165.349C105.567 165.265 101.566 164.859 97.6167 164.134C91.6115 163.05 85.6663 161.732 79.7847 160.135C76.2522 159.174 72.8081 157.822 69.2191 156.984C66.2362 156.296 63.212 155.8 60.1653 155.501C58.9855 155.384 57.7985 155.469 56.6328 155.278C56.6804 155.176 56.759 155.092 56.8573 155.037C56.9556 154.983 57.0687 154.961 57.1803 154.974C58.5933 154.911 60.0063 154.794 61.3911 154.777C63.7912 154.691 66.1943 154.753 68.5867 154.964C70.8687 155.215 73.179 155.243 75.4468 155.593C81.1871 156.479 86.9486 157.422 92.6712 158.482C98.3409 159.542 104.074 159.856 109.807 160.111C113.629 160.277 117.469 160.273 121.288 159.609C124.718 159.012 128.159 158.517 131.401 157.154C131.8 156.942 132.251 156.845 132.701 156.875C132.8 157.267 132.514 157.712 132.864 158.069L133.086 162.661L133.012 162.866Z" fill="#C92E3C"/>
<path d="M148.278 139.361C148.278 138.704 148.31 138.047 148.324 137.39C149.348 137.454 150.376 137.396 151.387 137.217C152.227 137.03 153.011 136.641 153.28 135.772C153.548 134.903 153.026 134.228 152.414 133.652C152.047 133.342 151.661 133.055 151.259 132.791C150.715 132.402 150.055 132.186 149.592 131.674C149.729 129.926 149.564 128.167 149.105 126.474C148.585 124.383 148.356 122.235 147.875 120.116C147.352 117.841 146.236 115.775 145.402 113.602C144.279 110.621 143.029 107.685 141.679 104.803C140.489 102.27 138.829 100.002 137.168 97.7377C135.063 94.8976 132.972 92.0716 130.312 89.6836C130.119 89.5142 129.939 89.3299 129.775 89.1326C128.906 88.0728 127.797 87.2745 126.698 86.4585C124.123 84.5509 121 83.417 118.831 80.9195C118.653 80.6901 118.424 80.5064 118.161 80.3835C117.898 80.2606 117.609 80.2022 117.319 80.213C117.266 79.5913 117.061 78.9131 116.546 78.6764C115.758 78.3232 115.705 77.6944 115.592 77.0267C115.521 76.624 115.419 76.2284 115.334 75.8257C116.747 76.1789 117.948 77.0126 119.16 77.7686C122.614 79.9589 125.854 82.4711 128.835 85.2715C133.343 89.4399 137.204 94.131 140.743 99.1224C143.906 103.63 146.662 108.41 148.981 113.404C151.892 119.6 154.071 126.115 155.474 132.815C155.777 134.228 156.127 135.581 155.827 137.033C155.756 137.386 155.661 137.626 155.325 137.757C153.05 138.64 150.758 139.407 148.278 139.361Z" fill="#FEDDEA"/>
<path d="M91.6119 309.298C91.5059 309.447 91.4035 309.598 91.2975 309.75C90.9054 309.867 90.6193 310.185 90.1601 310.213C86.8572 310.414 83.5473 310.796 80.3327 309.591C80.3327 308.178 80.3327 306.765 80.3327 305.352C80.3327 303.621 80.368 301.887 80.2726 300.163C80.2126 299.058 80.3256 298.856 81.4207 299.022C82.2402 299.149 83.0562 299.315 83.8934 299.375C87.7403 299.63 91.4953 299.061 95.1974 298.037C94.5333 300.792 93.4523 303.413 92.6187 306.112C92.269 307.175 91.9334 308.235 91.6119 309.298Z" fill="#83158F"/>
<path d="M58.7595 309.81C58.6889 309.655 58.6147 309.503 58.544 309.351C58.4734 309.199 58.6006 309.051 58.3921 308.998C58.2897 307.009 57.4242 305.215 56.9297 303.346C56.5764 302 56.0642 300.7 55.6191 299.379C57.2476 299.806 58.8337 300.375 60.5187 300.583C63.8181 301.048 67.1795 300.774 70.3602 299.782C70.6605 299.683 70.9749 299.623 71.2822 299.545C71.2822 302.842 71.2904 306.139 71.3069 309.436C70.2719 309.669 69.2369 309.923 68.2089 310.142C65.9481 310.612 63.6167 310.351 61.3241 310.407C60.4283 310.476 59.533 310.267 58.7595 309.81Z" fill="#83158F"/>
<path d="M115.333 75.8219C115.417 76.2246 115.52 76.6203 115.59 77.023C115.704 77.6906 115.756 78.3088 116.544 78.6727C117.06 78.9093 117.251 79.5876 117.318 80.2093C117.007 81.216 117.463 82.2334 117.275 83.2402C116.968 84.8969 116.643 86.5536 116.329 88.2104C116.279 88.4788 116.12 88.7155 116.357 89.0158C117.83 90.8986 118.477 93.1558 119.155 95.3742C119.663 97.0628 120.373 98.7725 119.801 100.609C119.476 101.669 119.745 102.612 120.116 103.584C120.486 104.555 120.469 105.587 120.568 106.597C120.267 106.597 119.907 106.625 120.066 107.053C120.253 107.558 120.126 108.07 120.236 108.572C120.547 110.009 120.451 111.323 119.07 112.228C118.823 112.39 118.554 112.581 118.685 112.913C118.932 113.567 118.727 114.262 118.869 114.905C118.999 115.492 118.685 116.417 119.784 116.484C119.957 116.484 119.995 116.71 119.988 116.873C119.932 118.152 120.373 119.416 120.179 120.692C119.904 122.486 120.056 124.288 120.02 126.086C119.95 129.424 119.967 132.766 120.183 136.104C119.524 136.072 118.875 135.933 118.261 135.69C118.399 130.448 117.964 125.206 118.261 119.96C118.448 116.541 118.049 113.118 117.908 109.716C117.823 107.318 117.745 104.919 117.706 102.52C117.689 101.627 117.29 101.231 116.424 101.231C115.817 101.231 115.205 101.21 114.598 101.199C114.623 101.009 114.644 100.818 114.665 100.624C116.209 98.338 116.784 95.8476 116.149 93.1452C115.82 91.7323 115.156 90.4923 113.637 89.9943C113.241 89.86 113.263 89.6869 113.46 89.3725C114.545 87.6452 114.407 85.7729 114.043 83.8901C114.009 83.754 114.004 83.612 114.031 83.4741C114.057 83.3362 114.113 83.2057 114.195 83.0918C116.169 80.0539 115.948 77.0925 113.535 74.2076C113.535 74.2076 113.577 74.1157 113.602 74.0698C114.481 74.3666 114.926 75.1154 115.333 75.8219Z" fill="#E36597"/>
<path d="M71.3079 309.429C71.3079 306.132 71.2997 302.835 71.2832 299.538C72.6538 298.983 73.7983 297.948 75.3668 297.771C76.0733 297.69 76.4265 296.98 76.5961 296.302C76.7338 295.786 76.9493 295.627 77.4686 295.924C83.1841 299.103 89.1011 299.124 95.1487 297.012C95.3007 296.967 95.4552 296.932 95.6114 296.906C95.4666 297.284 95.3253 297.665 95.1805 298.047C91.4855 299.071 87.7304 299.64 83.8765 299.386C83.0534 299.333 82.2374 299.167 81.4038 299.032C80.3087 298.866 80.1957 299.068 80.2557 300.173C80.3511 301.897 80.3087 303.632 80.3158 305.363C80.3158 306.776 80.3158 308.189 80.3158 309.602C78.9028 309.701 77.571 309.559 76.7162 308.206L76.5148 307.797C76.1663 305.293 75.813 302.79 75.4551 300.287C75.4233 300.082 75.4551 299.778 75.1371 299.781C74.7627 299.781 74.8227 300.135 74.7839 300.361C74.3918 303.052 74.0138 305.744 73.6323 308.436C73.6111 308.507 73.5864 308.574 73.5616 308.644C72.8969 309.108 72.117 309.38 71.3079 309.429Z" fill="#4A0F5F"/>
<path d="M27.3917 148.051C27.6496 147.952 27.9075 147.92 28.0735 148.196C28.893 149.563 30.3201 150.269 31.447 151.304C31.2986 151.898 31.0196 152.113 30.3449 151.951C29.0485 151.636 27.911 152.364 27.8121 153.579C27.7061 154.854 27.3246 156.052 27.1056 157.306C26.9184 158.309 27.1056 159.425 27.964 159.736C29.43 160.298 29.2851 161.178 28.9566 162.276C28.948 162.339 28.948 162.404 28.9566 162.467L28.7517 162.665L26.8301 163.53C26.2432 163.793 25.5974 163.897 24.9578 163.83C23.8628 163.732 23.1916 163.014 23.4283 161.958C24.3291 157.8 25.1521 153.625 26.2543 149.513C26.3336 149.205 26.4756 148.916 26.6712 148.664C26.8669 148.412 27.1121 148.204 27.3917 148.051Z" fill="#E36597"/>
<path d="M132.877 158.072C132.523 157.719 132.813 157.27 132.714 156.878C133.502 156.235 134.583 156.292 135.413 155.748C136.706 155.487 137.992 155.183 139.299 154.985C139.993 154.917 140.649 154.637 141.178 154.183C141.111 154.72 141.507 155.07 141.743 155.465C142.153 156.151 142.199 156.734 141.63 157.359C139.733 159.439 137.543 161.057 134.82 161.887C134.91 161.722 135.046 161.585 135.212 161.495C135.957 160.948 136.625 160.337 136.861 159.376C136.953 159.023 136.911 158.91 136.508 158.793C135.329 158.413 134.111 158.172 132.877 158.072Z" fill="#FEDDEA"/>
<path d="M54.5491 65.1009C54.5693 65.2886 54.6059 65.4742 54.6586 65.6555C54.8105 66.0335 54.9271 66.4962 55.404 66.5669C55.8809 66.6375 56.0893 66.196 56.3083 65.8604C56.3896 65.7262 56.4602 65.5884 56.5626 65.4047C57.0855 66.6587 57.5729 65.5566 58.1134 65.3552C58.4667 66.3231 57.7107 66.8707 57.4352 67.5595V67.5313C57.2762 67.6196 57.142 67.722 57.2232 67.9375V67.9198C57.0501 67.888 56.9088 67.8916 57.0254 68.1318H57.0431C56.9653 68.1106 56.8629 68.0399 56.8135 68.0682C55.4534 68.8665 54.3407 68.4214 53.3728 67.3617C52.3519 65.5071 52.3908 63.5819 52.9984 61.6179C53.1975 61.2963 53.4145 60.9862 53.6483 60.6888C53.7676 60.5161 53.9469 60.394 54.1514 60.3463C54.3558 60.2986 54.5706 60.3288 54.754 60.431C55.2168 60.6782 55.1956 61.1163 55.0684 61.5154C54.8777 62.116 54.5067 62.6564 54.5032 63.317C54.3807 63.5998 54.3213 63.9059 54.3293 64.214C54.3372 64.5221 54.4122 64.8248 54.5491 65.1009Z" fill="#F8A62B"/>
<path d="M112.685 65.0161C112.526 65.7827 112.363 66.5528 112.204 67.3193L111.533 68.2907C110.777 68.8701 110.007 69.3505 108.99 68.9195C107.973 68.4886 107.683 67.8598 107.951 66.5845C108.128 65.7262 108.227 64.8784 107.676 64.1118C108.029 63.5643 108.326 62.932 108.933 62.5858C109.35 62.3456 109.788 62.2537 110.152 62.6635C110.516 63.0733 110.353 63.4371 110.085 63.7939C109.756 64.2248 109.378 64.6275 109.407 65.2245C109.264 65.5098 109.203 65.8288 109.229 66.1467C109.256 66.4645 109.37 66.7688 109.559 67.0261C109.581 67.0605 109.61 67.0896 109.645 67.1113C109.679 67.1329 109.718 67.1466 109.759 67.1514C109.799 67.1561 109.841 67.1518 109.879 67.1386C109.918 67.1255 109.953 67.104 109.982 67.0756C110.222 66.8882 110.411 66.6449 110.535 66.3671C110.658 66.0893 110.711 65.7855 110.689 65.4824C110.689 65.3941 110.597 65.3164 110.548 65.2351C110.943 64.6593 111.36 64.1259 112.187 64.3414L112.54 64.843C112.561 64.9384 112.558 65.0585 112.713 65.0373L112.685 65.0161Z" fill="#F8A62B"/>
<path d="M132.877 158.072C134.115 158.172 135.337 158.415 136.519 158.796C136.908 158.913 136.95 159.023 136.872 159.379C136.632 160.337 135.968 160.948 135.223 161.499C135.057 161.589 134.92 161.725 134.83 161.891L133.114 162.672L132.877 158.072Z" fill="#E36597"/>
<path d="M112.698 65.0268C112.543 65.048 112.547 64.9279 112.525 64.8325C112.582 64.8961 112.638 64.9632 112.698 65.0268Z" fill="#1B1F1A"/>
<path d="M135.416 155.748C134.585 156.292 133.504 156.236 132.717 156.878C132.266 156.849 131.816 156.946 131.417 157.157C128.174 158.521 124.733 159.016 121.303 159.613C117.484 160.277 113.645 160.28 109.822 160.114C104.086 159.86 98.3522 159.542 92.6719 158.482C86.9386 157.422 81.1771 156.476 75.4155 155.582C73.1511 155.229 70.8232 155.204 68.5553 154.953C66.1629 154.743 63.7597 154.68 61.3596 154.766C59.9465 154.784 58.5512 154.9 57.1488 154.964C57.0371 154.95 56.9241 154.972 56.8257 155.027C56.7274 155.081 56.6488 155.166 56.6012 155.268C55.93 155.152 55.2449 155.14 54.57 155.232C54.1002 155.176 53.6127 154.989 53.1888 155.374H52.4435C51.7724 155.278 51.0884 155.402 50.4935 155.727L50.1403 155.748C49.8541 155.709 49.5539 155.607 49.3454 155.921L48.7944 155.953C48.5647 155.893 48.3351 155.847 48.1903 156.112H47.6074C48.6672 155.257 49.7481 154.409 50.8079 153.544C51.6168 152.887 52.1785 151.908 53.2347 151.569C54.6089 151.128 55.2836 150.234 55.1494 148.771C55.4051 148.64 55.6936 148.586 55.9795 148.616C68.6966 148.655 81.4137 148.616 94.1308 148.733C101.789 148.81 109.448 148.778 117.092 148.793C116.856 150.008 117.414 150.87 118.399 151.435C122.167 153.615 126.287 155.12 130.572 155.882C131.745 156.409 132.904 155.988 134.066 155.84C134.529 155.801 134.956 155.61 135.416 155.748Z" fill="#DE5687"/>
<path d="M55.1535 148.785C55.2878 150.248 54.613 151.142 53.2389 151.583C52.1792 151.936 51.621 152.901 50.8121 153.558C49.7524 154.423 48.6926 155.271 47.6117 156.126C47.1701 156.288 46.6614 156.2 46.2552 156.5C46.1456 156.475 46.0315 156.479 45.9234 156.509C45.8154 156.54 45.7169 156.598 45.637 156.677L44.383 156.878C43.3939 156.783 42.3836 157.09 41.4086 156.719C41.5711 156.719 41.7301 156.691 41.889 156.688C43.4433 156.663 43.627 156.433 43.302 154.897C42.977 153.36 42.0197 152.046 41.2673 150.675C40.0875 148.521 38.5049 146.581 37.7737 144.183C37.3166 142.884 37.0501 141.527 36.9824 140.152C36.9824 139.488 37.1696 139.223 37.8973 139.135C39.9179 138.884 41.8608 138.379 43.3268 136.793C43.826 136.212 44.1882 135.526 44.3865 134.786C44.5525 134.267 44.3406 134.161 43.892 134.161C42.9947 134.161 42.0975 134.136 41.2002 134.126C41.5535 133.871 41.935 133.97 42.3094 133.967C44.1251 133.967 45.9408 133.967 47.7565 133.967C48.4135 134.564 49.3143 134.574 50.0244 134.475C51.0594 134.331 51.4939 135.051 52.1615 135.45C52.5109 135.679 52.9036 135.832 53.315 135.902C53.7264 135.972 54.1478 135.957 54.553 135.857C55.9059 136.281 56.7785 137.425 57.9336 138.149C58.0847 138.247 58.1994 138.393 58.26 138.562C58.3206 138.732 58.3238 138.917 58.2692 139.089C58.0466 139.682 58.2692 140.018 58.6966 140.382C59.2618 140.852 59.6468 141.473 59.4384 142.236C59.1488 143.296 58.6012 144.2 57.492 144.55C56.9622 144.716 56.8209 144.942 56.8385 145.486C56.8704 145.97 56.7518 146.453 56.4988 146.867C56.2458 147.281 55.871 147.607 55.4255 147.8C54.8921 148.051 54.8497 148.326 55.1535 148.785Z" fill="#83158F"/>
<path d="M117.131 231.802C116.99 236.854 115.774 241.439 112.945 245.526C112.747 245.818 112.51 246.081 112.238 246.307C111.962 246.559 111.612 246.714 111.24 246.75C110.869 246.787 110.495 246.702 110.175 246.508C109.844 246.333 109.582 246.05 109.432 245.706C109.282 245.362 109.254 244.977 109.352 244.615C109.515 243.929 109.725 243.255 109.981 242.598C111.938 237.105 112.92 231.509 111.776 225.684C111.624 224.911 111.776 224.179 112.542 223.766C113.309 223.353 114.061 223.604 114.662 224.169C116.046 225.497 116.665 227.203 116.922 229.054C117.046 230.004 117.067 230.972 117.131 231.802Z" fill="#DEC0E3"/>
<path d="M41.425 156.716C42.4 157.087 43.4103 156.779 44.3994 156.875C42.128 157.708 39.9096 158.68 37.6064 159.436C34.6992 160.393 31.8273 161.449 28.9377 162.46C28.9291 162.396 28.9291 162.332 28.9377 162.269C29.2662 161.17 29.4111 160.291 27.9451 159.729C27.0938 159.404 26.8853 158.316 27.0867 157.299C27.3198 156.055 27.7013 154.847 27.7932 153.572C27.8921 152.357 29.0296 151.629 30.326 151.943C31.0007 152.106 31.2798 151.89 31.4281 151.297C32.2688 151.919 33.159 152.487 33.9397 153.176C35.1231 154.236 36.5255 154.921 37.8502 155.737C38.9452 156.408 40.2275 156.44 41.425 156.716Z" fill="#DE5687"/>
<path d="M117.53 176.388C117.527 177.623 117.215 178.837 116.622 179.921C115.8 181.449 114.708 182.814 113.397 183.951C112.646 184.614 111.7 185.014 110.702 185.089C109.995 185.163 109.691 184.873 109.681 184.188C109.666 183.29 109.805 182.397 110.09 181.546C110.846 179.257 112.005 177.144 112.941 174.933C113.123 174.427 113.477 174.001 113.942 173.73C114.406 173.46 114.951 173.361 115.481 173.453C116.456 173.598 117.208 174.392 117.442 175.572C117.488 175.842 117.518 176.115 117.53 176.388Z" fill="#DEC0E3"/>
<path d="M108.381 254.403C106.887 254.403 105.704 253.065 105.739 251.45C105.733 251.09 105.8 250.732 105.934 250.397C106.068 250.063 106.268 249.758 106.521 249.502C106.774 249.245 107.076 249.042 107.409 248.903C107.742 248.765 108.099 248.694 108.459 248.695C109.187 248.701 109.882 248.996 110.393 249.515C110.903 250.033 111.187 250.733 111.183 251.461C111.179 253.065 109.886 254.421 108.381 254.403Z" fill="#DEC0E3"/>
<path d="M101.228 194.655C99.8539 194.715 99.6985 194.528 99.9528 193.475C100.095 192.734 100.418 192.04 100.894 191.454C101.37 190.868 101.984 190.41 102.68 190.119C103.673 189.699 104.577 189.868 105.036 190.515C105.534 191.221 105.449 192.2 104.771 192.988C104.338 193.507 103.796 193.925 103.184 194.213C102.572 194.501 101.904 194.652 101.228 194.655Z" fill="#DEC0E3"/>
<path d="M50.5039 155.755C51.0988 155.43 51.7828 155.306 52.4538 155.402C51.878 155.911 51.2069 155.928 50.5039 155.755Z" fill="#C92E3C"/>
<path d="M53.1992 155.377C53.6231 154.992 54.1106 155.179 54.5804 155.236C54.1671 155.702 53.6867 155.603 53.1992 155.377Z" fill="#C92E3C"/>
<path d="M46.2656 156.507C46.6719 156.207 47.1805 156.295 47.6221 156.133C47.3218 156.804 46.7178 156.384 46.2656 156.507Z" fill="#C92E3C"/>
<path d="M49.3496 155.949C49.558 155.635 49.8583 155.737 50.1444 155.776C49.9607 156.214 49.6781 156.197 49.3496 155.949Z" fill="#C92E3C"/>
<path d="M48.1934 156.14C48.3382 155.875 48.5678 155.921 48.7974 155.981C48.6702 156.32 48.4795 156.408 48.1934 156.14Z" fill="#C92E3C"/>
<path d="M45.6543 156.681C45.7341 156.602 45.8327 156.544 45.9407 156.513C46.0488 156.482 46.1629 156.479 46.2725 156.504C46.1135 156.734 45.8804 156.691 45.6543 156.681Z" fill="#C92E3C"/>
<path d="M78.2242 90.0471C78.6729 90.0718 79.0791 90.3544 79.5454 90.2732C80.0117 90.5522 80.5451 90.4109 81.0396 90.5134L81.0573 90.5416C81.3575 90.962 81.8344 91.0821 82.2795 91.2481C84.5544 92.0571 86.8717 91.9087 89.1679 91.4106C93.6753 90.4392 97.6458 88.6023 100.189 84.4869C100.507 84.8049 100.348 85.1934 100.362 85.5714C100.401 86.4899 100.433 87.4401 100.85 88.249C101.305 89.1428 101.581 89.9482 100.942 90.8348C100.09 90.7359 99.9561 91.5413 99.5286 91.9758C95.5581 95.8969 90.5526 97.0167 85.2539 97.1262C83.6294 97.1405 82.0084 96.9723 80.4214 96.6246C77.058 95.9635 73.8696 94.6076 71.0604 92.6435C69.9723 91.8698 69.1811 90.7536 68.033 90.0577C67.7787 89.3053 67.3265 88.5599 67.3089 87.7969C67.266 86.4531 66.9026 85.1391 66.2491 83.9641C65.5426 82.6889 66.1749 81.4172 66.2491 80.1455C66.2491 80.1067 66.4151 80.0749 66.5035 80.0396C68.305 84.4693 71.5514 87.4366 75.8857 89.2876C76.6205 89.5985 77.4365 89.7963 78.2242 90.0471Z" fill="#FD7EB0"/>
<path d="M66.4827 80.0396C66.3944 80.0749 66.2284 80.1067 66.2284 80.1456C66.1507 81.4173 65.5219 82.689 66.2284 83.9642C66.8819 85.1391 67.2453 86.4532 67.2882 87.797C67.32 88.56 67.758 89.3053 68.0123 90.0577C68.3302 90.8702 68.1112 91.6332 67.7332 92.3468C67.0962 93.5392 66.7946 94.8822 66.8607 96.2325C66.9172 97.8104 66.9726 99.3894 67.0267 100.97L61.0957 101.026C61.1117 100.903 61.15 100.783 61.2087 100.673C62.8902 98.6276 62.9114 96.335 62.1661 93.9611C62.0538 93.6887 62.0296 93.3879 62.0967 93.101C62.1638 92.8141 62.319 92.5553 62.5405 92.3609C64.4516 90.192 64.3067 87.6698 63.5437 85.1193C63.443 84.8992 63.4005 84.657 63.4203 84.4157C63.4401 84.1745 63.5215 83.9424 63.6568 83.7417C64.607 82.258 64.3986 80.6154 64.0913 78.9905C64.0372 78.708 63.9568 78.4313 63.851 78.1639C63.4271 77.0511 62.5405 75.9207 64.1266 74.967C64.5222 74.7303 64.0559 73.8436 64.879 73.8472C66.783 75.5463 66.0447 77.9413 66.4827 80.0396Z" fill="#E36597"/>
<path d="M98.8044 41.2812C99.0376 41.6769 98.8786 42.1856 99.186 42.5565V42.6307C99.1506 44.3545 99.3131 46.0854 98.9705 47.7916C98.707 49.2161 98.0386 50.5345 97.0453 51.589C95.3638 53.3553 92.8981 53.2564 91.3474 51.363C89.8849 49.5755 89.3763 47.4772 89.2773 45.2094C89.5564 45.001 89.8249 44.7749 90.1145 44.5841C90.7681 44.1496 91.033 43.263 91.8808 43.0722C91.8808 43.3866 91.8808 43.7045 91.8561 44.0189C91.7536 45.6933 91.8772 47.3395 92.6509 48.8655C93.4245 50.3915 95.0494 50.5046 95.9997 49.081C96.8404 47.8199 96.9817 46.3822 96.9888 44.8703L96.1127 45.1635C94.9046 44.5135 94.6997 43.2983 95.9255 42.9627C96.6108 42.9627 96.911 42.7048 96.5543 42.0019C96.4646 41.8021 96.3879 41.5968 96.3246 41.3872L98.8044 41.2812Z" fill="#DBBDDE"/>
<path d="M77.1083 46.1701C76.8999 47.9787 76.4018 49.6743 75.2643 51.1367C73.4698 53.4505 70.711 53.4117 68.9624 51.0802C67.8009 49.4943 67.2017 47.5662 67.2597 45.6013C67.2597 44.6122 67.2597 43.6231 67.2597 42.6341C67.2809 42.4645 67.3021 42.2808 67.3198 42.1289C68.1216 42.3479 68.9482 42.2137 69.7572 42.3267C69.5219 43.2892 69.4174 44.2789 69.4463 45.2693C69.4958 46.647 69.6547 48.0211 70.5061 49.1833C71.4316 50.4479 72.9541 50.3702 73.7065 49.0067C74.3037 47.8907 74.6064 46.6408 74.5861 45.3753C74.2128 45.4954 73.8101 45.488 73.4416 45.3541C72.8057 44.4815 72.8234 43.987 73.5157 43.277C73.903 43.4772 74.2781 43.7001 74.6391 43.9446C75.5469 44.5981 76.1474 45.5837 77.1083 46.1701Z" fill="#DBBDDE"/>
<path d="M91.9061 43.0724C91.0477 43.2632 90.7828 44.1499 90.1399 44.5844C89.8502 44.7751 89.5817 45.0012 89.3027 45.2096C88.4514 45.0542 88.8187 44.4113 88.9035 44.0086C89.2163 42.829 89.8144 41.7445 90.645 40.8505C92.3371 38.837 94.2976 37.2686 97.1236 37.318H97.219C98.7415 37.3746 98.957 37.6006 98.8651 39.0419C98.7768 39.7872 99.7341 39.8014 99.826 40.4231C99.7306 40.9918 99.2784 41.1296 98.8157 41.278L96.3606 41.3839C96.017 41.3739 95.6751 41.4365 95.3574 41.5676C94.621 41.6503 93.9112 41.8913 93.2767 42.2741C92.8208 42.3911 92.3994 42.6152 92.0474 42.9276L91.9026 43.0901L91.9061 43.0724Z" fill="#3787E4"/>
<path d="M69.7536 42.3268C68.9446 42.2138 68.118 42.348 67.3162 42.129C66.8145 42.129 66.8181 41.6556 66.6309 41.366C66.6309 40.8962 67.2844 40.9915 67.302 40.55C67.9732 40.0448 67.4787 39.4372 67.4433 38.8685C68.7009 38.0136 70.0609 38.1196 71.3785 38.5824C74.3988 39.6421 76.324 41.8429 77.518 44.7572C77.6289 45.0915 77.6721 45.4445 77.6451 45.7957C77.6451 46.1808 77.359 46.149 77.1082 46.1702C76.1474 45.5838 75.5469 44.5982 74.6355 43.9447C74.2745 43.7002 73.8994 43.4772 73.5121 43.277C72.5831 42.9591 71.7 42.4858 70.6862 42.4716C70.4019 42.3154 70.0718 42.2641 69.7536 42.3268Z" fill="#3787E4"/>
<path d="M87.1005 60.2788C88.563 61.4021 88.616 62.7515 87.263 63.9667C86.4276 64.7367 85.3364 65.1696 84.2004 65.1819C82.3105 65.2137 80.4206 65.0901 78.6226 64.4295C77.9161 64.1716 77.2696 63.8113 77.1036 62.9706C77.0471 62.6809 76.9694 62.363 77.2272 62.1616C77.7536 61.7519 77.8101 61.1266 78.0326 60.5755C78.2527 60.5631 78.4732 60.5631 78.6932 60.5755C81.4925 60.949 84.3346 60.8487 87.1005 60.2788ZM82.3599 64.5602L83.3172 64.5107C83.9072 64.486 84.3417 64.214 84.3205 63.5958C84.2993 62.9776 83.8047 62.6526 83.1865 62.7198C82.0076 62.825 80.8207 62.642 79.7282 62.1863C79.2196 61.9885 78.6049 61.8755 78.3612 62.582C78.1174 63.2885 78.5872 63.5993 79.1242 63.8219C80.1346 64.3031 81.2408 64.5495 82.3599 64.5425V64.5602Z" fill="#C60E13"/>
<path d="M77.8562 59.0954C77.7219 58.4737 77.4252 57.8944 77.4464 57.2303C77.4817 56.0398 78.379 55.245 79.5447 55.464C80.348 55.5805 81.08 55.9893 81.6006 56.6121C82.1587 57.2903 82.6992 57.3186 83.2432 56.6121C83.4127 56.3937 83.626 56.213 83.8693 56.0816C84.1126 55.9503 84.3806 55.8711 84.6562 55.8491C85.451 55.7572 86.3836 55.6301 86.8958 56.3295C87.1591 56.698 87.3161 57.1317 87.3497 57.5833C87.3834 58.0349 87.2923 58.4871 87.0865 58.8906C87.0194 59.0354 86.977 59.1908 86.9241 59.3392C86.8104 59.395 86.6922 59.4411 86.5708 59.4769C84.5255 59.8973 82.4555 59.869 80.3854 59.869C79.4812 59.8893 78.5944 59.618 77.8562 59.0954ZM86.3165 58.071C86.2969 57.8737 86.2033 57.6911 86.0545 57.56C85.9057 57.4289 85.7128 57.3591 85.5146 57.3645C85.4182 57.3551 85.321 57.368 85.2304 57.4022C85.1398 57.4363 85.0582 57.4908 84.992 57.5615C84.9258 57.6321 84.8767 57.717 84.8484 57.8097C84.8202 57.9023 84.8137 58.0002 84.8293 58.0957C84.833 58.2008 84.8589 58.3039 84.9055 58.3981C84.952 58.4924 85.0181 58.5757 85.0992 58.6425C85.1804 58.7093 85.2748 58.7581 85.3763 58.7856C85.4777 58.8132 85.5839 58.8188 85.6877 58.8022C85.7813 58.8099 85.8754 58.7953 85.9622 58.7595C86.0491 58.7237 86.1262 58.6678 86.1872 58.5964C86.2482 58.5251 86.2915 58.4402 86.3133 58.3489C86.3352 58.2575 86.335 58.1623 86.3129 58.071H86.3165Z" fill="#C60E13"/>
<path d="M70.3044 27.6709C71.8305 27.7769 73.3883 27.8899 74.8189 28.6353C75.0991 28.7558 75.3487 28.9378 75.5493 29.1677C75.7498 29.3975 75.8962 29.6695 75.9776 29.9635C76.0435 30.1602 76.0386 30.3737 75.9638 30.5672C75.889 30.7607 75.7489 30.922 75.5678 31.0232C75.4035 31.1329 75.2045 31.1781 75.0089 31.15C74.8133 31.122 74.635 31.0228 74.5081 30.8713C73.7097 29.7586 72.484 29.7445 71.3288 29.6173C69.9915 29.46 68.6367 29.5461 67.3301 29.8716C66.7366 30.0235 66.1114 30.0412 65.9171 29.2994C65.7228 28.5576 66.3021 28.2114 66.9309 28.0559C68.0403 27.8186 69.1701 27.6897 70.3044 27.6709Z" fill="#11151B"/>
<path d="M96.3222 27.667C97.382 28.0202 98.576 27.667 99.5651 28.3205C99.9431 28.5748 100.724 28.589 100.455 29.3096C100.243 29.8889 99.6816 30.0161 99.0847 29.7971C98.9902 29.7858 98.8944 29.7918 98.8021 29.8147C97.0358 29.7476 95.2696 29.3237 93.5033 29.8925C92.9452 30.0726 92.4153 30.221 92.0691 30.7544C92.0144 30.8542 91.9386 30.9409 91.847 31.0086C91.7555 31.0763 91.6504 31.1234 91.5389 31.1465C91.4275 31.1697 91.3123 31.1684 91.2014 31.1428C91.0904 31.1172 90.9864 31.0678 90.8964 30.9981C90.6995 30.8849 90.5517 30.7025 90.4819 30.4864C90.412 30.2703 90.425 30.0359 90.5184 29.8289C90.7306 29.2886 91.1468 28.8534 91.677 28.6172C93.1324 27.8401 94.7397 27.8154 96.3222 27.667Z" fill="#11151B"/>
<path d="M86.3659 50.6815C85.232 49.1802 83.7024 49.6217 82.2364 49.8761C81.8866 49.9274 81.5505 50.0474 81.2473 50.2293C80.9442 50.4112 80.68 50.6513 80.4702 50.9358C80.2512 51.222 79.9862 51.4834 79.5835 51.2184C79.4162 51.1184 79.2893 50.9629 79.2248 50.779C79.1602 50.595 79.1622 50.3943 79.2303 50.2117C79.3602 49.8507 79.5607 49.5193 79.8202 49.2367C81.0142 47.6612 85.5358 46.8064 87.2631 48.6574C87.0618 49.0389 86.9523 49.431 87.2349 49.8125C87.3696 49.9548 87.4465 50.1423 87.4504 50.3383C87.4543 50.5342 87.385 50.7246 87.2561 50.8722C86.9346 51.2184 86.6873 50.6568 86.3659 50.6815Z" fill="#1B1F1A"/>
<path d="M77.8562 59.0955C78.5949 59.6059 79.4774 59.8671 80.3749 59.8409C82.4449 59.8409 84.515 59.8691 86.5603 59.4488C86.6817 59.4129 86.7999 59.3668 86.9135 59.311C87.4627 59.1608 87.96 58.8626 88.3512 58.4491C88.5632 58.2583 88.7928 58.004 89.0577 58.3078C89.1111 58.368 89.1507 58.4392 89.1738 58.5162C89.1969 58.5933 89.2029 58.6745 89.1915 58.7542C89.1801 58.8338 89.1514 58.91 89.1076 58.9775C89.0638 59.045 89.0058 59.1021 88.9376 59.145C88.4037 59.6382 87.7752 60.018 87.0902 60.2612C84.3248 60.8346 81.4827 60.9385 78.6828 60.5686C78.4628 60.5562 78.2423 60.5562 78.0223 60.5686C77.8032 60.1376 77.3546 60.1376 76.9802 59.9892C76.6057 59.8409 76.1359 59.6925 75.9452 59.2156C75.8824 59.0857 75.8623 58.9392 75.8876 58.7971C75.913 58.655 75.9826 58.5246 76.0865 58.4243C76.362 58.1594 76.5845 58.3466 76.8177 58.5586C77.1285 58.8129 77.3758 59.1768 77.8562 59.0955Z" fill="#11151B"/>
<path d="M86.3662 50.6814C86.6876 50.6567 86.9349 51.2184 87.2599 50.8581C87.3888 50.7104 87.4581 50.5201 87.4542 50.3241C87.4503 50.1281 87.3734 49.9407 87.2387 49.7983C86.9561 49.4168 87.0656 49.0247 87.267 48.6432C88.2243 48.3323 88.8389 48.6185 89.1427 49.5122C89.3116 50.1182 89.2866 50.7618 89.0712 51.3529C88.8558 51.9439 88.4608 52.4528 87.9417 52.808C87.5988 53.0536 87.173 53.1542 86.7564 53.0881C86.3399 53.0219 85.9662 52.7944 85.7162 52.4547C85.1333 51.6423 85.3771 50.9746 86.3662 50.6814Z" fill="#F8A62B"/>
<path d="M99.2012 42.6166V42.5424C99.5544 41.1294 100.773 40.7196 101.875 40.1827C102.023 40.1125 102.192 40.0977 102.35 40.1412C102.508 40.1846 102.646 40.2833 102.737 40.4194C102.838 40.5679 102.881 40.7486 102.857 40.9266C102.833 41.1047 102.743 41.2675 102.606 41.3837C101.998 42.0395 101.281 42.5856 100.487 42.9981C99.9571 43.2701 99.565 42.9698 99.2012 42.6166Z" fill="#11151B"/>
<path d="M66.6307 41.3663C66.8179 41.656 66.8144 42.1187 67.316 42.1293C67.2983 42.2954 67.2771 42.4649 67.2559 42.6345C66.7013 43.2385 66.1079 43.2138 65.4897 42.7369C64.9881 42.3484 64.4723 41.9774 64.0025 41.5535C63.6846 41.2709 63.4479 40.8788 63.734 40.4549C63.8581 40.2832 64.0448 40.1672 64.2537 40.1322C64.4627 40.0971 64.677 40.1458 64.8503 40.2677C65.472 40.5856 66.0372 40.9954 66.6307 41.3663Z" fill="#11151B"/>
<path d="M67.4422 38.8688C67.4775 39.4375 67.9721 40.0451 67.3009 40.5502C66.1458 40.6421 65.5983 39.8049 65.0437 39.0242C64.9348 38.872 64.8828 38.6864 64.8968 38.4998C64.9108 38.3132 64.9899 38.1374 65.1203 38.0032C65.2508 37.869 65.4242 37.7849 65.6103 37.7655C65.7965 37.7462 65.9835 37.7928 66.1387 37.8973C66.5944 38.1905 67.0113 38.5438 67.4422 38.8688Z" fill="#11151B"/>
<path d="M99.8156 40.4265C99.7237 39.8047 98.7558 39.7906 98.8547 39.0452C99.3281 38.692 99.7025 38.1904 100.268 37.9184C100.678 37.7135 101.077 37.6852 101.391 38.0526C101.515 38.2013 101.583 38.3888 101.583 38.5825C101.583 38.7762 101.515 38.9637 101.391 39.1124C100.96 39.6705 100.564 40.2604 99.8156 40.4265Z" fill="#11151B"/>
<path d="M54.5486 65.101C54.413 64.82 54.341 64.5125 54.338 64.2004C54.3349 63.8884 54.4008 63.5795 54.5309 63.2959C54.8842 63.522 55.188 63.8576 55.6331 63.9423C55.2728 64.3274 54.9125 64.716 54.5486 65.101Z" fill="#FEDDEA"/>
<path d="M83.8022 8.72235C84.4557 8.4892 84.9715 8.83185 85.5685 8.89544C85.0033 8.89544 84.9397 9.24869 84.9397 9.67259C84.998 11.7173 84.9378 13.7637 84.7595 15.8014C84.5758 17.4123 84.4063 19.0195 83.7916 20.5809C83.3995 20.0228 83.3077 19.9309 83.4666 19.5847C84.0848 18.2495 83.7916 16.8047 83.94 15.4199C84.1484 13.4912 84.5758 11.5837 84.5864 9.63373C84.59 9.08266 84.5476 8.6411 83.8022 8.72235Z" fill="#480E5E"/>
<path d="M71.3072 309.429C72.1259 309.381 72.915 309.106 73.5856 308.634C73.5291 309.81 72.6813 310.771 71.4873 310.654C70.2227 310.531 69.1382 311.121 67.9549 311.223C66.3655 311.379 64.7648 311.379 63.1754 311.223C61.8861 311.082 60.5649 311.156 59.3285 310.598C59.1618 310.55 59.0166 310.446 58.917 310.304C58.8174 310.162 58.7694 309.99 58.781 309.817C59.5551 310.269 60.4489 310.472 61.3421 310.4C63.6417 310.344 65.9661 310.605 68.2269 310.135C69.2372 309.916 70.2722 309.672 71.3072 309.429Z" fill="#486DCF"/>
<path d="M76.7229 308.196C77.5778 309.549 78.906 309.69 80.3225 309.591C83.5371 310.796 86.847 310.414 90.1499 310.213C90.6091 310.185 90.8952 309.86 91.2873 309.75C91.4286 310.305 90.9871 310.506 90.6409 310.676C89.3356 311.374 87.848 311.658 86.3772 311.488C84.5226 311.23 82.6857 310.782 80.8241 310.672C79.885 310.642 78.9539 310.489 78.0547 310.216C76.6593 309.736 76.624 309.701 76.7229 308.196Z" fill="#486DCF"/>
<path d="M100.942 90.8279C101.581 89.9412 101.295 89.1358 100.85 88.2421C100.433 87.4332 100.401 86.4759 100.363 85.5645C100.363 85.2112 100.507 84.798 100.189 84.48C100.405 83.657 100.514 82.7809 100.868 82.0073C101.238 81.3505 101.34 80.5754 101.15 79.8454C101.178 79.8005 101.193 79.7495 101.196 79.697L101.345 79.4639C101.375 79.419 101.392 79.3663 101.394 79.312C101.44 79.2343 101.489 79.1601 101.539 79.0824C101.568 79.0356 101.584 78.9819 101.585 78.927L101.726 78.6903C101.753 78.6404 101.766 78.5844 101.765 78.5278C102.055 78.1745 101.878 77.74 101.917 77.3444L102.072 77.3091C102.514 77.8072 103.319 78.0332 103.259 78.9022C103.111 80.3753 102.927 81.8519 103.457 83.2966C103.133 84.2989 103.124 85.376 103.429 86.384C103.33 87.6557 103.252 88.931 103.641 90.1779C103.836 90.958 104.233 91.6731 104.792 92.2515C105.368 92.7814 105.46 93.2865 105.22 94.0177C104.464 96.3633 104.623 98.61 106.163 100.645C106.004 100.828 105.983 101.189 105.682 101.178C104.354 101.136 103.015 101.404 101.701 101.03C101.856 100.414 102.056 99.811 102.298 99.2246C102.461 98.9182 102.54 98.5744 102.527 98.2278C102.515 97.8813 102.412 97.544 102.228 97.25C102.074 97.0102 101.984 96.7358 101.964 96.4519C101.944 96.168 101.996 95.8837 102.115 95.625C102.194 95.4201 102.234 95.2019 102.231 94.9821C102.235 93.4983 101.785 92.0489 100.942 90.8279Z" fill="#E15C90"/>
<path d="M101.149 79.8594C101.339 80.5894 101.238 81.3645 100.867 82.0213C100.514 82.7807 100.404 83.6568 100.189 84.494C97.6523 88.6093 93.6747 90.4462 89.1672 91.4177C86.864 91.9157 84.5538 92.0641 82.2789 91.2552C81.8338 91.0962 81.3569 90.9761 81.0566 90.5487C82.4378 90.2661 83.8438 90.4957 85.2462 90.2979C89.0543 89.7997 92.6629 88.3031 95.7059 85.96C97.7627 84.3361 99.5221 82.3676 100.906 80.142C100.979 80.0411 101.06 79.9466 101.149 79.8594Z" fill="#88277E"/>
<path d="M102.073 77.3235L101.917 77.3588L101.709 77.3376C100.911 75.8822 101.79 74.7942 102.511 73.6709C103.217 73.9782 103.125 74.6812 103.291 75.257L102.073 77.3235Z" fill="#4A0F5F"/>
<path d="M106.372 65.4189C106.139 67.1393 105.711 68.7854 104.605 70.1913C104.447 70.3927 104.348 70.64 104.033 70.6152C104.687 68.8291 105.468 67.0925 106.372 65.4189Z" fill="#4A0F5F"/>
<path d="M110.535 65.2245C110.585 65.3057 110.67 65.3834 110.677 65.4717C110.699 65.7748 110.645 66.0787 110.522 66.3565C110.399 66.6343 110.21 66.8775 109.97 67.0649C109.941 67.0933 109.906 67.1149 109.867 67.128C109.828 67.1411 109.787 67.1454 109.747 67.1407C109.706 67.136 109.667 67.1223 109.632 67.1006C109.598 67.0789 109.568 67.0499 109.546 67.0154C109.358 66.7581 109.244 66.4538 109.217 66.136C109.19 65.8182 109.252 65.4991 109.394 65.2139L110.535 65.2245Z" fill="#1B1F1A"/>
<path d="M81.0392 90.5135C80.5446 90.4111 80.0112 90.5524 79.5449 90.2733C80.0465 90.3051 80.6082 90.0084 81.0392 90.5135Z" fill="#88277E"/>
<path d="M101.709 77.3374L101.917 77.3586C101.879 77.7542 102.055 78.1781 101.766 78.542C101.748 78.1393 101.727 77.7401 101.709 77.3374Z" fill="#88277E"/>
<path d="M104.029 70.6221C104.05 70.7031 104.046 70.7891 104.015 70.8673C103.985 70.9455 103.93 71.0118 103.859 71.0566C103.834 70.8764 103.834 70.7139 104.029 70.6221Z" fill="#4A0F5F"/>
<path d="M101.726 78.7046L101.585 78.9413C101.577 78.9164 101.574 78.8902 101.577 78.8643C101.58 78.8384 101.589 78.8134 101.602 78.791C101.616 78.7686 101.633 78.7493 101.655 78.7344C101.676 78.7195 101.701 78.7094 101.726 78.7046Z" fill="#88277E"/>
<path d="M101.538 79.0967C101.489 79.1744 101.439 79.2486 101.393 79.3263C101.385 79.3017 101.383 79.2756 101.386 79.2498C101.389 79.2241 101.398 79.1995 101.412 79.1776C101.426 79.1556 101.444 79.137 101.466 79.1231C101.488 79.1091 101.513 79.1001 101.538 79.0967Z" fill="#88277E"/>
<path d="M101.345 79.478L101.197 79.7112C101.19 79.6861 101.188 79.6597 101.191 79.6338C101.195 79.6079 101.204 79.583 101.218 79.561C101.232 79.5389 101.251 79.5201 101.273 79.5058C101.295 79.4915 101.319 79.482 101.345 79.478Z" fill="#88277E"/>
<path d="M120.579 106.622C120.477 105.612 120.491 104.573 120.127 103.609C119.763 102.644 119.488 101.68 119.813 100.634C120.385 98.7974 119.675 97.1018 119.166 95.3991C118.499 93.1666 117.842 90.9094 116.369 89.0407C116.132 88.7404 116.291 88.5037 116.34 88.2353C116.655 86.5785 116.98 84.9218 117.287 83.2651C117.474 82.2583 117.019 81.2409 117.329 80.2342C117.619 80.2233 117.908 80.2818 118.171 80.4046C118.434 80.5275 118.664 80.7113 118.841 80.9407C121.01 83.4381 124.14 84.5721 126.708 86.4796C127.807 87.2956 128.916 88.0798 129.785 89.1537C129.949 89.3511 130.129 89.5353 130.322 89.7048C132.971 92.0715 135.063 94.8975 137.182 97.7553C138.842 100.023 140.503 102.291 141.693 104.82C143.042 107.703 144.293 110.638 145.416 113.62C146.239 115.792 147.356 117.859 147.889 120.134C148.369 122.232 148.595 124.394 149.118 126.492C149.577 128.185 149.742 129.943 149.606 131.692C149.313 131.589 149.016 131.483 148.719 131.388C147.659 131.035 146.762 130.357 145.678 130.092L145.635 130.053L145.483 129.922C140.584 125.839 135.13 124.673 129.117 126.972C127.351 127.644 125.885 128.82 125.535 130.897C125.454 131.095 125.376 131.293 125.263 131.579C124.871 130.646 124.462 129.848 124.204 129.004C123.617 127.135 122.589 125.401 122.501 123.38C122.572 122.366 122.671 121.352 122.702 120.335C122.837 117.186 122.645 114.031 122.13 110.921C121.89 109.564 121.568 108.243 120.608 107.184L120.579 106.622Z" fill="#FE8AB7"/>
<path d="M130.597 155.896C126.312 155.133 122.192 153.628 118.424 151.449C117.439 150.884 116.881 150.036 117.117 148.806C117.534 148.492 117.52 148.262 117.047 147.973C116.258 147.472 115.616 146.771 115.185 145.942C114.892 145.405 114.705 144.744 115.107 144.313C115.666 143.709 115.383 143.352 115.054 142.847C114.348 141.787 114.267 140.502 115.03 139.943C115.793 139.385 115.673 138.813 115.33 138.138C115.245 137.969 115.153 137.785 115.086 137.619C114.655 136.517 115.174 135.676 116.354 135.634C116.987 135.613 117.626 135.683 118.262 135.715C118.875 135.957 119.525 136.097 120.184 136.128C120.699 136.584 121.328 136.482 121.95 136.482C122.084 137.223 122.727 137.156 123.221 137.213C124.291 137.363 125.382 137.177 126.341 136.679C126.694 136.45 127.521 137.117 127.503 136.107C127.959 136.637 127.694 136.814 127.15 136.888H126.729V137.011L127.15 137.047C128.085 137.258 129.064 137.153 129.933 136.747C130.216 136.626 130.573 136.308 130.891 136.694C131.051 136.854 131.153 137.065 131.179 137.291C131.204 137.516 131.153 137.744 131.032 137.937C130.435 138.915 129.838 139.897 129.227 140.865C128.616 141.814 128.29 142.917 128.287 144.045C128.259 147.019 128.262 149.986 129.075 152.876C129.361 153.989 129.707 155.08 130.597 155.896Z" fill="#83158F"/>
<path d="M127.488 136.107C127.506 137.118 126.693 136.46 126.326 136.679L121.935 136.482C121.327 136.482 120.699 136.584 120.169 136.128C119.953 132.79 119.936 129.448 120.006 126.11C120.042 124.312 119.89 122.511 120.165 120.716C120.359 119.441 119.918 118.176 119.974 116.898C119.974 116.735 119.943 116.52 119.77 116.509C118.671 116.442 118.985 115.516 118.855 114.93C118.713 114.287 118.918 113.591 118.671 112.938C118.54 112.584 118.809 112.415 119.056 112.252C120.437 111.348 120.533 110.034 120.222 108.596C120.112 108.095 120.239 107.582 120.052 107.077C119.893 106.65 120.253 106.629 120.554 106.622L120.575 107.18C120.762 109.652 121.038 112.125 121.112 114.598C121.175 116.671 121.151 118.752 121.55 120.79C121.723 121.681 121.603 122.716 122.468 123.373C122.557 125.393 123.585 127.128 124.171 128.996C124.432 129.841 124.842 130.639 125.231 131.572C125.344 131.285 125.422 131.088 125.503 130.89C125.503 132.568 126.23 134.027 126.916 135.5L127.099 135.712L127.297 135.909L127.495 136.104L127.488 136.107Z" fill="#E15C90"/>
<path d="M145.66 130.088C146.745 130.353 147.649 131.042 148.702 131.384C148.998 131.48 149.295 131.586 149.588 131.688C150.051 132.2 150.712 132.416 151.256 132.804C151.657 133.068 152.043 133.356 152.411 133.666C153.022 134.228 153.541 134.91 153.276 135.786C153.011 136.662 152.216 137.043 151.383 137.231C150.372 137.41 149.344 137.468 148.32 137.404C148.32 135.002 147.709 132.794 146.222 130.869C146.031 130.604 145.851 130.346 145.66 130.088Z" fill="#E15C90"/>
<path d="M127.122 137.043L126.701 137.008V136.884H127.122C127.125 136.934 127.122 136.99 127.122 137.043Z" fill="#4A0F5F"/>
<path d="M46.8132 81.1983L51.8682 78.8774C51.9741 80.46 52.2214 81.9931 53.3271 83.2471C53.3843 83.3235 53.4212 83.4132 53.4342 83.5077C53.4472 83.6023 53.4358 83.6986 53.4013 83.7876C52.935 85.8718 52.9067 87.9065 54.1678 89.7681C51.6421 91.0363 50.5894 93.3324 51.1051 96.448C51.2614 97.6574 51.6629 98.8222 52.285 99.871C52.3958 99.9817 52.4667 100.126 52.4865 100.281C52.5064 100.437 52.474 100.594 52.3945 100.729C50.872 103.414 51.2429 106.003 52.8467 108.501C52.0377 109.024 51.257 109.582 50.8932 110.532C50.1655 112.436 49.6922 114.418 49.9748 116.442C50.0576 117.007 50.0176 117.584 49.8572 118.133C49.6969 118.682 49.4201 119.189 49.0457 119.621C47.986 120.928 47.8376 122.398 48.0707 123.881C48.265 125.086 47.8729 126.047 47.3077 126.951C46.799 127.763 46.0219 128.516 44.9516 128.336C43.7788 128.134 42.4788 127.983 41.9419 126.615C41.6314 125.877 41.4613 125.088 41.4403 124.288C41.4191 120.554 43.0016 117.417 45.0611 114.46C45.6298 113.648 45.6581 112.599 45.0611 112.104C44.4641 111.609 43.4679 111.751 42.7649 112.528C42.5106 112.814 42.3128 113.15 42.0796 113.453C41.4932 114.206 41.0199 115.061 40.3134 115.697C40.2357 115.598 40.1191 115.509 40.0838 115.396C39.7977 114.492 39.0523 114.722 38.4094 114.707C37.7665 114.693 37.445 115.018 37.1165 115.605C36.2581 117.159 35.2478 118.632 34.2905 120.137C30.3306 117.512 25.9397 117.311 21.4358 117.897C18.0453 118.265 14.8018 119.48 12.0041 121.43C11.6508 119.07 12.6505 117.113 13.6855 115.1C14.7771 112.98 15.7414 110.783 16.9707 108.72C18.0623 106.89 19.062 105.011 20.1005 103.153C22.0469 103.506 23.6577 103.064 24.6928 101.231C24.8411 102.754 25.6359 103.753 26.8122 103.909C28.2712 104.096 29.8608 103.142 30.2988 101.814C30.4667 101.3 30.451 100.745 30.2545 100.241C30.058 99.7382 29.6928 99.3188 29.2214 99.055C27.8084 98.2637 26.3036 98.7018 25.0813 100.256C25.2191 99.2352 24.6645 98.3485 24.5197 97.3806L27.3916 94.6394C28.2358 95.5048 29.2073 95.9923 30.4719 95.8475C31.03 95.7839 31.4645 95.3953 32.0227 95.3883C33.5028 96.5717 34.6756 96.5222 35.9861 95.2187C36.463 94.7454 36.9434 94.2755 37.3991 93.8057C39.6246 91.4955 42.3234 89.92 45.2236 88.613C46.6365 87.9842 48.1661 87.7793 49.5261 87.0693C50.6671 86.4793 51.2924 85.303 51.031 84.2433C50.7272 83.0705 49.7275 82.3605 48.3745 82.3534C48.0072 81.7811 47.3784 81.5303 46.8132 81.1983Z" fill="#FD8AB7"/>
<path d="M24.9635 119.321C26.8309 119.157 28.7053 119.545 30.3541 120.437C33.657 122.309 34.4235 123.74 34.0738 127.234C33.9337 128.435 34.1655 129.651 34.7379 130.717C35.3066 131.805 34.4482 133.281 33.2083 133.398C30.3824 133.67 29.0965 134.782 28.3406 137.587C28.0325 138.562 27.7836 139.554 27.5952 140.558C27.4998 141.226 27.1431 141.399 26.5108 141.222C24.8821 140.721 23.3792 139.878 22.1022 138.749C18.4885 135.775 16.1676 131.949 14.956 127.428C14.737 126.598 14.3625 125.806 14.1612 124.955C13.921 123.977 14.2106 123.221 15.0796 122.546C17.8728 120.305 21.3864 119.159 24.9635 119.321Z" fill="#83158F"/>
<path d="M40.3033 115.703C41.0345 115.068 41.4937 114.213 42.0695 113.46C42.3026 113.157 42.5005 112.821 42.7548 112.535C43.4613 111.754 44.4221 111.585 45.0509 112.111C45.6797 112.637 45.6196 113.655 45.0509 114.467C42.9915 117.424 41.4089 120.561 41.4301 124.294C41.4511 125.095 41.6213 125.884 41.9317 126.622C42.4687 127.975 43.7686 128.141 44.9414 128.343C46.0012 128.523 46.7889 127.77 47.2976 126.958C47.8628 126.054 48.2549 125.093 48.0606 123.888C47.8274 122.405 47.9899 120.935 49.0356 119.628C49.4099 119.196 49.6867 118.689 49.8471 118.14C50.0074 117.591 50.0475 117.014 49.9646 116.449C49.682 114.435 50.1554 112.443 50.883 110.539C51.2363 109.589 52.0276 109.031 52.8365 108.508C53.4582 108.946 53.5112 109.313 53.0379 110.03C51.8403 111.839 51.7026 113.874 52.3738 115.922C52.7138 116.844 52.7337 117.853 52.4303 118.787C50.8936 123.489 49.8233 128.343 47.8804 132.917C47.7681 133.251 47.7355 133.607 47.7851 133.956C45.9694 133.956 44.1537 133.956 42.338 133.956C41.9635 133.956 41.5679 133.86 41.2288 134.115C40.5223 134.468 40.2043 133.804 39.7204 133.567C39.9783 132.409 39.1941 131.589 38.7702 130.649C37.8835 128.685 37.2936 126.591 36.2692 124.683C36.3667 123.631 36.1672 122.572 35.6934 121.627C36.5023 122.027 36.3999 122.913 36.7248 123.577C37.1346 122.366 37.562 121.168 37.9436 119.957C38.4558 118.392 39.5932 117.152 40.3033 115.703Z" fill="#E15C90"/>
<path d="M9.75374 129.904C7.281 130.105 5.16151 129.434 3.57189 127.393C2.37084 125.867 2.60046 124.107 4.32431 123.203C5.5125 122.571 6.78905 122.12 8.11113 121.868C9.08257 121.688 9.97275 122.104 10.8665 122.429C10.5627 122.874 10.2412 123.309 9.95862 123.765C9.11436 125.132 8.81763 126.591 9.32984 128.148C9.56557 128.707 9.70875 129.3 9.75374 129.904Z" fill="#E15C90"/>
<path d="M40.3033 115.704C39.5968 117.166 38.4558 118.392 37.9542 119.971C37.5727 121.183 37.1453 122.38 36.7355 123.592C36.4034 122.928 36.5129 122.041 35.704 121.642L34.291 120.144C35.2377 118.639 36.248 117.166 37.117 115.612C37.4455 115.026 37.767 114.697 38.4099 114.715C39.0528 114.732 39.7982 114.499 40.0843 115.404C40.109 115.517 40.2256 115.605 40.3033 115.704Z" fill="#E36597"/>
<path d="M36.2789 124.697C37.3033 126.605 37.8932 128.7 38.7799 130.664C39.2038 131.603 39.988 132.43 39.7301 133.581C39.5429 133.415 39.3768 133.228 39.1614 133.09C38.3861 132.523 37.7433 131.793 37.2774 130.953C36.8114 130.113 36.5334 129.181 36.4625 128.223C36.3424 127.043 36.127 125.881 36.2789 124.697Z" fill="#83158F"/>
<path d="M118.261 135.715C117.625 135.684 116.985 135.613 116.353 135.634C115.173 135.676 114.654 136.517 115.085 137.619C115.152 137.796 115.244 137.973 115.329 138.139C115.682 138.813 115.837 139.35 115.028 139.944C114.219 140.537 114.354 141.781 115.053 142.847C115.382 143.353 115.664 143.709 115.106 144.313C114.703 144.744 114.891 145.405 115.184 145.942C115.614 146.771 116.257 147.472 117.045 147.973C117.519 148.263 117.533 148.492 117.116 148.807C109.458 148.807 101.799 148.824 94.1549 148.747C81.438 148.619 68.721 148.669 56.0041 148.63C55.7181 148.6 55.4297 148.654 55.1739 148.786C54.8702 148.326 54.9125 148.051 55.4848 147.789C55.9302 147.597 56.3051 147.271 56.5581 146.856C56.8111 146.442 56.9297 145.96 56.8978 145.476C56.8978 144.932 57.0214 144.706 57.5513 144.539C58.6605 144.186 59.208 143.278 59.4977 142.226C59.7061 141.463 59.3211 140.841 58.7559 140.371C58.3143 140.018 58.1059 139.665 58.3285 139.078C58.3831 138.906 58.3799 138.722 58.3193 138.552C58.2586 138.382 58.144 138.237 57.9929 138.139C56.8377 137.414 55.9652 136.27 54.6123 135.846C54.5098 132.639 54.6511 129.438 54.8596 126.241C54.9019 125.57 54.9231 124.899 54.9691 124.228C55.1457 121.55 55.5095 118.876 55.4707 116.202C55.4106 112.238 55.5378 108.261 55.0079 104.315C54.919 103.357 54.9273 102.392 55.0326 101.436C55.0786 100.73 55.5625 100.857 56.0924 100.91C57.7633 101.076 59.4377 101.468 61.1226 101.012L67.0537 100.956C67.308 100.977 67.5624 101.016 67.8167 101.019C75.1855 101.108 82.5542 100.938 89.9265 101.192C93.4802 101.312 97.041 101.214 100.598 101.214C100.982 101.26 101.37 101.203 101.725 101.051C103.039 101.426 104.378 101.157 105.706 101.199C106.006 101.199 106.028 100.846 106.187 100.666C106.716 101.351 107.469 101.203 108.179 101.206C108.532 101.206 108.885 101.206 109.221 101.206C109.539 101.666 109.892 101.938 110.383 101.411C111.796 101.553 113.23 101.613 114.622 101.192C115.23 101.192 115.841 101.224 116.448 101.224C117.314 101.224 117.713 101.62 117.731 102.514C117.77 104.912 117.847 107.311 117.932 109.709C118.059 113.129 118.458 116.552 118.285 119.953C117.964 125.231 118.398 130.473 118.261 135.715ZM83.6952 128.216V128.587L79.1242 128.763C79.1001 128.729 79.0681 128.701 79.0309 128.682C78.9937 128.663 78.9524 128.653 78.9105 128.653C78.8686 128.653 78.8273 128.663 78.7901 128.682C78.7529 128.701 78.7209 128.729 78.6968 128.763C73.6948 128.794 68.6928 128.825 63.6908 128.855C62.4715 128.832 61.2541 128.96 60.0664 129.237C59.6178 129.321 59.2115 129.556 58.9151 129.903C58.6188 130.25 58.4504 130.688 58.438 131.144C58.4085 131.582 58.5198 132.018 58.7556 132.387C58.9914 132.757 59.3393 133.042 59.7485 133.2C60.0976 133.36 60.4606 133.488 60.833 133.582C62.4864 133.979 64.1805 134.182 65.8809 134.186C67.7355 134.235 69.59 133.967 71.4234 134.03C77.6123 134.235 83.7871 134.384 89.9831 134.511C95.303 134.634 100.633 134.338 105.939 134.903C106.319 134.974 106.71 134.947 107.077 134.825C107.963 134.408 108.882 134.472 109.811 134.472C111.224 134.472 112.1 133.808 112.164 132.73C112.227 131.653 111.51 130.915 110.168 130.685C104.032 129.625 97.8923 128.643 91.6468 128.566V128.301H101.368C102.149 128.301 102.951 128.262 103.488 127.615C103.62 127.46 103.788 127.339 103.978 127.264C104.168 127.188 104.373 127.16 104.576 127.181C105.597 127.181 106.632 127.336 107.642 127.085C108.026 127.015 108.374 126.815 108.627 126.517C108.88 126.22 109.023 125.844 109.03 125.453C109.09 124.581 108.642 123.998 107.847 123.662C107.394 123.5 106.915 123.424 106.434 123.436C105.12 123.394 103.802 123.38 102.492 123.313C94.766 122.903 87.0264 123.26 79.3043 122.705C74.2484 122.369 69.1788 122.286 64.1147 122.458C63.281 122.483 62.4403 122.479 61.6137 122.574C60.3349 122.719 59.8721 123.401 59.7485 125.153C59.6743 126.213 60.2289 126.958 61.3205 127.255C62.1318 127.439 62.9612 127.532 63.7932 127.531C70.4166 127.792 77.0542 128.142 83.6952 128.216ZM81.1801 114.298C75.7577 114.298 67.9015 114.573 60.0558 113.969C58.4097 113.846 57.7739 114.577 57.6467 116.477C57.5725 117.587 58.392 118.463 59.7273 118.526C65.3334 118.788 70.9041 119.561 76.5031 119.862C87.1712 120.437 97.8499 120.215 108.522 119.837C109.969 119.838 111.393 119.473 112.662 118.777C113.82 118.099 114.272 117.548 114.075 116.569C113.884 115.651 113.117 115.1 111.874 115.107C110.33 115.107 108.801 114.99 107.282 114.863C99.383 114.202 91.4985 114.379 81.1801 114.298ZM106.448 144.119H106.801C108.522 144.151 109.539 143.466 109.557 142.261C109.574 141.056 108.659 140.368 106.953 140.322C93.4272 139.968 79.9437 138.683 66.4108 138.608C65.5824 138.592 64.7561 138.517 63.938 138.386C62.8783 138.234 62.1718 138.789 62.1188 139.852C62.1248 140.017 62.0817 140.181 61.9949 140.321C61.9082 140.462 61.7817 140.574 61.6313 140.643C60.2996 141.48 60.3596 142.999 61.702 143.822C62.7082 144.397 63.8461 144.701 65.0048 144.706C69.265 144.886 73.5323 144.893 77.7854 145.228C86.1397 145.885 94.5046 145.843 102.866 145.684C103.601 145.684 104.406 145.553 104.728 144.889C105.152 144.017 105.763 143.999 106.448 144.119ZM72.3595 109.518C75.3409 109.518 78.3223 109.43 81.2967 109.554C82.8616 109.621 84.2498 109.14 85.6664 108.695C86.0556 108.575 86.3937 108.328 86.6272 107.994C86.8607 107.661 86.9763 107.258 86.9557 106.851C86.935 106.567 86.9409 106.28 86.9734 105.997C87.3867 104.23 86.8745 103.428 85.0764 103.121C83.0148 102.819 80.9318 102.688 78.8487 102.729C72.6491 102.697 66.5062 103.46 60.3455 103.99C59.9626 104.018 59.5862 104.103 59.2292 104.244C57.9929 104.76 57.8162 106.134 58.8937 106.894C59.2918 107.162 59.5938 107.551 59.7556 108.003C60.2607 109.416 61.3205 109.716 62.6557 109.663C65.888 109.54 69.1237 109.381 72.3595 109.518Z" fill="#F8F7E9"/>
<path d="M57.1851 84.6954C57.052 84.6413 56.9252 84.5726 56.8071 84.4905C56.6327 84.3273 56.512 84.1149 56.4609 83.8815C56.4098 83.6481 56.4308 83.4047 56.521 83.1835C56.5457 83.1058 56.7506 82.9963 56.8001 83.0246C57.2558 83.286 57.2628 83.7311 57.2416 84.1867C57.2346 84.3316 57.2098 84.4764 57.1851 84.6954Z" fill="#F8F7E9"/>
<path d="M55.5098 98.6701C55.4921 98.9845 55.3755 99.2671 55.047 99.2812C54.7185 99.2954 54.556 99.0128 54.5631 98.7019C54.5559 98.6306 54.5641 98.5587 54.5873 98.4909C54.6104 98.4231 54.6479 98.3611 54.6972 98.3091C54.7465 98.2572 54.8064 98.2164 54.8729 98.1897C54.9394 98.163 55.0108 98.151 55.0823 98.1544C55.3967 98.1614 55.4886 98.3981 55.5098 98.6701Z" fill="#F8F7E9"/>
<path d="M56.7506 65.1854L56.7012 65.1501L56.7612 65.0688C56.7612 65.09 56.8071 65.1112 56.8071 65.1324C56.8071 65.1536 56.7718 65.1678 56.7506 65.1854Z" fill="#F8A62B"/>
<path d="M46.8131 81.1982C47.3783 81.5303 48.0071 81.7811 48.3886 82.364C48.6853 83.512 48.4663 84.1549 47.4807 84.8367C46.9776 85.1778 46.4457 85.4745 45.8911 85.7234C42.4328 87.2565 39.077 88.9697 36.039 91.2446C34.4643 92.3874 33.1055 93.8012 32.0261 95.42C31.468 95.42 31.0335 95.8157 30.4754 95.8792C29.2107 96.0241 28.2393 95.526 27.395 94.6711C26.5296 92.7495 27.2113 91.1669 28.5537 89.8034C32.4818 85.8223 37.0316 82.908 42.5317 81.5232C43.9553 81.1453 45.3824 81.2194 46.8131 81.1982Z" fill="#E0C3E7"/>
<path d="M24.5233 97.3948C24.6681 98.3627 25.2297 99.2493 25.0849 100.27L24.8942 100.45C24.9093 100.735 24.8326 101.018 24.6751 101.256C23.6472 103.089 22.0364 103.534 20.0829 103.177C19.2387 102.471 18.3167 101.874 18.0765 100.627C17.7762 99.0197 18.3626 97.2782 19.7933 96.4975C20.9625 95.8581 22.266 95.6957 23.8556 97.0415C24.0298 97.234 24.2661 97.3591 24.5233 97.3948Z" fill="#E0C3E7"/>
<path d="M110.359 101.425C110.402 100.973 110.744 100.655 110.889 100.249C111.96 100.493 113.074 100.475 114.136 100.196C114.577 100.09 114.609 100.341 114.669 100.631C114.648 100.825 114.627 101.016 114.602 101.206C113.207 101.627 111.786 101.567 110.359 101.425Z" fill="#2A2A2A"/>
<path d="M110.155 78.7574C110.12 78.9941 110.134 79.3402 109.827 79.4427C109.519 79.5451 109.336 79.3084 109.184 79.1071C108.678 78.4477 108.271 77.7183 107.976 76.9417C107.913 76.8282 107.895 76.6958 107.923 76.5696C107.952 76.4433 108.026 76.3319 108.131 76.2564C108.237 76.1809 108.368 76.1464 108.497 76.1594C108.627 76.1724 108.748 76.2319 108.837 76.327C109.554 76.9531 110.021 77.8156 110.155 78.7574Z" fill="#F8F7E9"/>
<path d="M102.072 77.3233L103.291 75.2568C104.453 76.0022 104.443 75.9987 103.895 77.2527C103.658 77.7967 103.468 78.3619 103.259 78.9165C103.319 78.0475 102.514 77.8214 102.072 77.3233Z" fill="#FD7EB0"/>
<path d="M103.429 86.3984C103.124 85.3904 103.134 84.3133 103.457 83.311C104.754 84.3496 103.598 85.3599 103.429 86.3984Z" fill="#E36597"/>
<path d="M113.684 96.7023C113.722 97.1651 113.542 97.6985 113.14 97.695C112.638 97.695 112.747 97.0697 112.716 96.6988C112.684 96.3279 112.716 95.8369 113.253 95.8687C113.715 95.9004 113.662 96.3597 113.684 96.7023Z" fill="#F8F7E9"/>
<path d="M57.4493 67.5205C57.5623 67.7537 57.3468 67.8102 57.2373 67.9267C57.1561 67.6971 57.2903 67.6088 57.4493 67.5205Z" fill="#1B1F1A"/>
<path d="M57.2522 67.9091C57.2274 68.0151 57.1992 68.1246 57.0543 68.1211C56.9378 67.8809 57.0791 67.8773 57.2522 67.9091Z" fill="#1B1F1A"/>
<path d="M101.702 101.051C101.347 101.204 100.958 101.26 100.575 101.214C97.0177 101.214 93.4569 101.313 89.9033 101.192C82.531 100.938 75.1622 101.108 67.7934 101.019C67.5391 101.019 67.2848 100.977 67.0304 100.956C66.9739 99.3779 66.9186 97.7989 66.8644 96.2187C66.7983 94.8684 67.0999 93.5254 67.7369 92.333C68.1149 91.6265 68.3339 90.8564 68.016 90.0439C69.1641 90.7504 69.9553 91.8561 71.0433 92.6297C73.8526 94.5938 77.041 95.9498 80.4044 96.6108C81.9966 96.9646 83.6236 97.1376 85.2545 97.1266C90.5532 97.0171 95.5764 95.8973 99.5505 91.9691C99.9744 91.5488 100.109 90.7292 100.963 90.8282C101.811 92.0551 102.261 93.5126 102.253 95.0035C102.255 95.2233 102.216 95.4415 102.136 95.6465C102.018 95.9051 101.966 96.1894 101.985 96.4734C102.005 96.7573 102.096 97.0317 102.249 97.2714C102.433 97.5655 102.536 97.9027 102.549 98.2493C102.561 98.5959 102.482 98.9396 102.32 99.2461C102.07 99.8318 101.863 100.435 101.702 101.051Z" fill="#FE8AB7"/>
<path d="M93.2649 42.2631C93.8993 41.8803 94.6091 41.6393 95.3455 41.5566C95.6176 41.9866 95.8213 42.4561 95.9496 42.9484C94.7238 43.3017 94.9287 44.4992 96.1368 45.1492C96.1756 46.1135 96.1368 47.0603 95.6352 47.9257C95.1901 48.6958 94.5754 48.8654 93.7983 48.4344C93.2119 48.1094 93.0918 47.5371 93.0635 46.9684C92.9611 45.4071 92.7421 43.8174 93.2649 42.2631Z" fill="#11151B"/>
<path d="M93.2653 42.2632C92.7425 43.8139 92.9615 45.4036 93.064 46.9791C93.0993 47.5478 93.2124 48.12 93.7987 48.445C94.5724 48.876 95.1906 48.7064 95.6356 47.9364C96.1373 47.0709 96.1761 46.1242 96.1373 45.1598L97.0133 44.8666C97.0133 46.3785 96.8649 47.8162 96.0242 49.0773C95.074 50.4903 93.449 50.3914 92.6754 48.8619C91.9018 47.3323 91.7782 45.6826 91.8806 44.0153C91.8983 43.7009 91.8983 43.383 91.9053 43.0686C92.0572 43.1074 92.036 42.9909 92.0502 42.9061C92.3992 42.5994 92.8154 42.3792 93.2653 42.2632Z" fill="#834A0D"/>
<path d="M95.9498 42.9701C95.8215 42.4777 95.6177 42.0082 95.3457 41.5783C95.6635 41.4472 96.0053 41.3846 96.3489 41.3946C96.4122 41.6042 96.4889 41.8095 96.5785 42.0092C96.9353 42.7051 96.6351 42.9701 95.9498 42.9701Z" fill="#834A0D"/>
<path d="M70.6853 42.4717C71.6991 42.4717 72.5823 42.9592 73.5113 43.2771C72.8048 43.9836 72.8048 44.4817 73.4371 45.3542C73.4053 45.9936 73.3877 46.6329 73.3347 47.2688C73.2676 48.1378 72.7342 48.5793 71.904 48.6606C71.0739 48.7418 70.8125 48.0601 70.6147 47.4701C70.0424 45.7958 70.2826 44.1319 70.6853 42.4717Z" fill="#11151B"/>
<path d="M70.6857 42.4717C70.2829 44.132 70.0427 45.8064 70.615 47.4702C70.8128 48.0601 71.0601 48.7418 71.9044 48.6606C72.7486 48.5794 73.2679 48.1378 73.335 47.2688C73.388 46.633 73.4057 45.9936 73.4374 45.3542C73.806 45.4881 74.2087 45.4956 74.582 45.3754C74.6023 46.641 74.2996 47.8908 73.7024 49.0068C72.95 50.3703 71.4275 50.448 70.502 49.1834C69.6506 48.0212 69.4917 46.6471 69.4422 45.2694C69.4133 44.2791 69.5178 43.2893 69.7531 42.3269C70.0713 42.2641 70.4014 42.3154 70.6857 42.4717Z" fill="#834A0D"/>
<path d="M92.0374 42.9204C92.0374 43.0052 92.0374 43.1218 91.8926 43.0829L92.0374 42.9204Z" fill="#DBBDDE"/>
<path d="M86.3138 58.0713C86.336 58.1629 86.3361 58.2584 86.3141 58.3501C86.2921 58.4417 86.2485 58.5268 86.1871 58.5983C86.1256 58.6697 86.048 58.7255 85.9607 58.7611C85.8734 58.7966 85.7789 58.8108 85.685 58.8025C85.5812 58.8191 85.4751 58.8134 85.3736 58.7859C85.2722 58.7583 85.1777 58.7096 85.0966 58.6427C85.0154 58.5759 84.9494 58.4927 84.9028 58.3984C84.8563 58.3041 84.8303 58.2011 84.8266 58.096C84.811 58.0004 84.8176 57.9026 84.8458 57.8099C84.874 57.7173 84.9231 57.6324 84.9893 57.5617C85.0555 57.4911 85.1371 57.4366 85.2277 57.4024C85.3183 57.3683 85.4155 57.3554 85.5119 57.3648C85.7101 57.3594 85.9031 57.4292 86.0518 57.5603C86.2006 57.6914 86.2942 57.874 86.3138 58.0713Z" fill="#FEDDEA"/>
<path d="M122.483 123.377C121.618 122.719 121.738 121.684 121.565 120.794C121.166 118.756 121.19 116.675 121.127 114.602C121.053 112.129 120.774 109.656 120.59 107.184C121.551 108.243 121.872 109.564 122.112 110.921C122.632 114.029 122.829 117.183 122.699 120.332C122.653 121.349 122.554 122.363 122.483 123.377Z" fill="#E36597"/>
<path d="M121.936 136.482L126.326 136.68C125.367 137.177 124.277 137.364 123.207 137.213C122.699 137.157 122.07 137.224 121.936 136.482Z" fill="#4A0F5F"/>
<path d="M32.0254 95.4027C33.1048 93.7839 34.4636 92.3701 36.0383 91.2273C39.0762 88.9524 42.4321 87.2392 45.8904 85.7061C46.445 85.4572 46.9769 85.1606 47.48 84.8194C48.4656 84.1553 48.6846 83.5124 48.3879 82.3467C49.7408 82.3467 50.7405 83.0532 51.0443 84.2366C51.3092 85.268 50.691 86.462 49.5394 87.0625C48.1794 87.769 46.6393 87.9775 45.2369 88.6062C42.3367 89.9133 39.6379 91.4888 37.4124 93.799C36.9461 94.2829 36.4657 94.7528 35.9994 95.212C34.6783 96.5367 33.5055 96.5861 32.0254 95.4027Z" fill="#FEDDEA"/>
<path d="M24.6855 101.256C24.843 101.018 24.9197 100.736 24.9046 100.451L25.0953 100.27C26.3176 98.7162 27.8189 98.2782 29.2354 99.0694C29.7068 99.3333 30.0719 99.7526 30.2685 100.256C30.465 100.759 30.4806 101.315 30.3128 101.828C29.8748 103.157 28.2852 104.11 26.8262 103.923C25.6287 103.768 24.848 102.768 24.6855 101.256Z" fill="#FEDDEA"/>
<path d="M81.1807 114.298C91.4991 114.379 99.3907 114.203 107.265 114.86C108.798 114.987 110.327 115.11 111.857 115.103C113.1 115.103 113.867 115.647 114.058 116.566C114.259 117.544 113.807 118.095 112.645 118.774C111.376 119.47 109.952 119.834 108.504 119.833C97.8329 120.208 87.1541 120.434 76.486 119.858C70.8871 119.558 65.3163 118.798 59.7103 118.523C58.375 118.459 57.5555 117.583 57.6296 116.474C57.7568 114.574 58.3927 113.842 60.0388 113.966C67.9021 114.574 75.7584 114.294 81.1807 114.298Z" fill="#2A2A2A"/>
<path d="M106.448 144.119C105.774 143.992 105.163 144.017 104.742 144.896C104.421 145.56 103.615 145.677 102.881 145.691C94.5157 145.85 86.1508 145.892 77.8 145.235C73.561 144.9 69.2797 144.882 65.0195 144.712C63.8607 144.708 62.7229 144.404 61.7166 143.829C60.3743 143.003 60.3036 141.484 61.646 140.65C61.7963 140.581 61.9228 140.469 62.0096 140.328C62.0963 140.187 62.1394 140.024 62.1334 139.859C62.19 138.799 62.8859 138.241 63.9527 138.393C64.7707 138.524 65.597 138.599 66.4254 138.615C79.9584 138.69 93.4418 139.968 106.968 140.329C108.674 140.375 109.589 141.099 109.571 142.268C109.554 143.437 108.536 144.158 106.816 144.126L106.448 144.119Z" fill="#2A2A2A"/>
<path d="M79.1108 128.764L83.6818 128.587H91.6334C97.8789 128.65 104.018 129.647 110.154 130.706C111.497 130.936 112.214 131.685 112.15 132.752C112.087 133.819 111.2 134.493 109.797 134.493C108.868 134.493 107.95 134.433 107.063 134.846C106.697 134.969 106.305 134.996 105.926 134.924C100.627 134.359 95.2896 134.656 89.9697 134.532C83.7843 134.391 77.606 134.257 71.41 134.052C69.5766 133.988 67.7221 134.257 65.8675 134.207C64.1671 134.203 62.473 134 60.8196 133.603C60.4472 133.509 60.0842 133.382 59.7351 133.222C59.3259 133.063 58.978 132.779 58.7422 132.409C58.5064 132.039 58.3951 131.603 58.4246 131.166C58.437 130.709 58.6054 130.271 58.9017 129.924C59.1981 129.577 59.6044 129.342 60.053 129.258C61.2407 128.981 62.4581 128.853 63.6774 128.877C68.6794 128.841 73.6814 128.811 78.6834 128.785C78.743 128.838 78.8214 128.866 78.9014 128.862C78.9815 128.858 79.0567 128.823 79.1108 128.764Z" fill="#2A2A2A"/>
<path d="M83.6967 128.216C77.0556 128.141 70.4216 127.792 63.7876 127.544C62.9556 127.546 62.1262 127.453 61.3149 127.269C60.2233 126.972 59.6687 126.209 59.7429 125.167C59.8665 123.401 60.3293 122.733 61.6081 122.588C62.4347 122.493 63.2754 122.497 64.1091 122.472C69.1732 122.3 74.2428 122.383 79.2987 122.719C87.0208 123.274 94.7604 122.917 102.486 123.327C103.797 123.394 105.114 123.408 106.428 123.45C106.909 123.438 107.388 123.514 107.841 123.676C108.636 124.012 109.085 124.595 109.025 125.467C109.017 125.858 108.875 126.234 108.622 126.531C108.369 126.829 108.021 127.029 107.636 127.099C106.626 127.35 105.591 127.184 104.57 127.195C104.367 127.173 104.162 127.202 103.972 127.278C103.783 127.353 103.615 127.474 103.482 127.629C102.938 128.276 102.136 128.311 101.363 128.315H91.6412C88.9919 128.134 86.3461 128.156 83.6967 128.216Z" fill="#2A2A2A"/>
<path d="M72.3599 109.518C69.1241 109.381 65.8883 109.54 62.6561 109.663C61.3208 109.716 60.2611 109.419 59.756 108.003C59.5941 107.551 59.2922 107.162 58.894 106.894C57.8025 106.134 57.9932 104.774 59.2296 104.244C59.5866 104.103 59.963 104.018 60.3459 103.99C66.5065 103.46 72.6495 102.697 78.849 102.729C80.9322 102.688 83.0152 102.819 85.0768 103.121C86.8748 103.428 87.387 104.22 86.9737 105.997C86.9413 106.28 86.9354 106.566 86.9561 106.851C86.9766 107.258 86.861 107.66 86.6275 107.994C86.3941 108.328 86.056 108.575 85.6667 108.695C84.2537 109.14 82.8619 109.621 81.297 109.554C78.3227 109.43 75.3413 109.518 72.3599 109.518Z" fill="#2A2A2A"/>
<path d="M83.6958 128.216C86.3451 128.156 88.9945 128.134 91.6333 128.325V128.59H83.6816C83.6852 128.456 83.6922 128.339 83.6958 128.216Z" fill="#E36597"/>
<path d="M79.111 128.763C79.0541 128.82 78.9773 128.851 78.8973 128.851C78.8173 128.851 78.7405 128.82 78.6836 128.763C78.7077 128.729 78.7397 128.701 78.7769 128.682C78.8141 128.662 78.8554 128.652 78.8973 128.652C78.9392 128.652 78.9805 128.662 79.0177 128.682C79.0549 128.701 79.0869 128.729 79.111 128.763Z" fill="#E36597"/>
</g>
<defs>
<clipPath id="clip0_117_914">
<rect width="155.94" height="350" fill="white"/>
</clipPath>
</defs>
</svg>
