<svg width="205" height="39" viewBox="0 0 205 39" fill="none" xmlns="http://www.w3.org/2000/svg">
<rect x="16.065" width="188.935" height="38.5561" rx="19.2" fill="#F4F6F8"/>
<g clip-path="url(#clip0_117_655)">
<path d="M36.3033 26.4968V24.397L34.8397 25.3952L34.1338 24.3454L36.3033 22.8652V21.3334L34.8569 22.3316L34.1338 21.2817L36.3033 19.8016V16.3765H33.0145V14.2079H42.1749V16.3765H38.8689V18.046L40.4358 16.9617L41.159 18.0116L38.8689 19.5778V21.1096L40.4186 20.0425L41.1418 21.0924L38.8689 22.6414V26.4968H36.3033Z" fill="#5D738D"/>
</g>
<path d="M53.3828 34.5399V4.01626H52.0441V34.5399H53.3828Z" fill="#A7B0BF" mask="url(#path-3-inside-1_117_655)"/>
<g clip-path="url(#clip1_117_655)">
<path d="M67.8195 14.2025C66.8504 14.2025 66.0624 14.9905 66.0624 15.9596V22.1095C66.0624 23.0787 66.8504 23.8667 67.8195 23.8667H77.4837C78.4528 23.8667 79.2408 23.0787 79.2408 22.1095V15.9596C79.2408 14.9905 78.4528 14.2025 77.4837 14.2025H67.8195ZM74.2989 17.132L76.9346 21.0855C77.0691 21.2886 77.0828 21.5467 76.9675 21.7609C76.8522 21.975 76.6298 22.1095 76.3855 22.1095H72.432H71.1141H68.9177C68.6651 22.1095 68.4345 21.964 68.3247 21.7362C68.2149 21.5083 68.2451 21.2365 68.4043 21.0388L70.1614 18.8424C70.2877 18.6859 70.4744 18.5953 70.6748 18.5953C70.8753 18.5953 71.0647 18.6859 71.1883 18.8424L71.6632 19.4354L73.2007 17.1292C73.3242 16.948 73.5302 16.8382 73.7498 16.8382C73.9694 16.8382 74.1753 16.948 74.2989 17.132ZM68.6981 16.8382C68.6981 16.6052 68.7907 16.3817 68.9554 16.217C69.1202 16.0522 69.3436 15.9596 69.5766 15.9596C69.8097 15.9596 70.0331 16.0522 70.1979 16.217C70.3626 16.3817 70.4552 16.6052 70.4552 16.8382C70.4552 17.0712 70.3626 17.2947 70.1979 17.4594C70.0331 17.6242 69.8097 17.7168 69.5766 17.7168C69.3436 17.7168 69.1202 17.6242 68.9554 17.4594C68.7907 17.2947 68.6981 17.0712 68.6981 16.8382ZM64.7446 16.6186C64.7446 16.2534 64.4508 15.9596 64.0857 15.9596C63.7205 15.9596 63.4267 16.2534 63.4267 16.6186V22.7685C63.4267 24.8303 65.0988 26.5023 67.1606 26.5023H75.9462C76.3113 26.5023 76.6051 26.2086 76.6051 25.8434C76.6051 25.4783 76.3113 25.1845 75.9462 25.1845H67.1606C65.8263 25.1845 64.7446 24.1028 64.7446 22.7685V16.6186Z" fill="#5D738D"/>
</g>
<path d="M89.9508 34.5399V4.01626H88.6121V34.5399H89.9508Z" fill="#A7B0BF" mask="url(#path-6-inside-2_117_655)"/>
<g clip-path="url(#clip2_117_655)">
<path d="M115.799 19.8533C115.799 23.4022 112.259 26.2778 107.892 26.2778C106.746 26.2778 105.659 26.0801 104.677 25.7249C104.309 25.9936 103.71 26.3612 102.999 26.6701C102.258 26.9913 101.366 27.2662 100.479 27.2662C100.278 27.2662 100.099 27.1457 100.022 26.9604C99.9447 26.7751 99.988 26.565 100.127 26.423L100.136 26.4137C100.145 26.4044 100.158 26.3921 100.176 26.3705C100.21 26.3334 100.263 26.2747 100.328 26.1944C100.454 26.04 100.624 25.8114 100.797 25.5272C101.106 25.0145 101.399 24.3412 101.458 23.5845C100.532 22.5343 99.9849 21.2463 99.9849 19.8533C99.9849 16.3044 103.524 13.4289 107.892 13.4289C112.259 13.4289 115.799 16.3044 115.799 19.8533Z" fill="#5D738D"/>
</g>
<path d="M126.509 34.5399V4.01626H125.17V34.5399H126.509Z" fill="#A7B0BF" mask="url(#path-9-inside-3_117_655)"/>
<g clip-path="url(#clip3_117_655)">
<path d="M144.46 11.3158C143.835 11.3158 143.331 11.8206 143.331 12.4454V13.1232C140.754 13.6456 138.812 15.9259 138.812 18.6581V19.3217C138.812 20.9808 138.202 22.5833 137.1 23.8259L136.839 24.1189C136.543 24.4507 136.472 24.9272 136.652 25.3331C136.832 25.7391 137.238 26.0003 137.683 26.0003H151.238C151.682 26.0003 152.085 25.7391 152.268 25.3331C152.452 24.9272 152.378 24.4507 152.081 24.1189L151.82 23.8259C150.719 22.5833 150.108 20.9843 150.108 19.3217V18.6581C150.108 15.9259 148.167 13.6456 145.59 13.1232V12.4454C145.59 11.8206 145.085 11.3158 144.46 11.3158ZM146.059 28.7289C146.483 28.3053 146.719 27.73 146.719 27.1299H144.46H142.201C142.201 27.73 142.438 28.3053 142.861 28.7289C143.285 29.1525 143.86 29.389 144.46 29.389C145.06 29.389 145.636 29.1525 146.059 28.7289Z" fill="#5D738D"/>
</g>
<rect x="146.843" y="10.5407" width="9.04066" height="9.04066" rx="4.5" fill="#D7282F" stroke="white"/>
<path d="M163.077 34.5399V4.01626H161.738V34.5399H163.077Z" fill="#A7B0BF" mask="url(#path-13-inside-4_117_655)"/>
<g clip-path="url(#clip4_117_655)">
<path d="M184.793 15.7114L188.586 19.5043C188.808 19.7267 188.935 20.0325 188.935 20.3475C188.935 20.6626 188.808 20.9684 188.586 21.1907L184.793 24.9836C184.595 25.1813 184.33 25.2894 184.052 25.2894C183.474 25.2894 183.005 24.8199 183.005 24.2424V22.3243H179.051C178.504 22.3243 178.063 21.8826 178.063 21.3359V19.3592C178.063 18.8125 178.504 18.3708 179.051 18.3708H183.005V16.4527C183.005 15.8751 183.474 15.4056 184.052 15.4056C184.33 15.4056 184.595 15.5168 184.793 15.7114ZM178.063 15.4056H176.086C175.539 15.4056 175.098 15.8473 175.098 16.394V24.301C175.098 24.8477 175.539 25.2894 176.086 25.2894H178.063C178.609 25.2894 179.051 25.7311 179.051 26.2778C179.051 26.8245 178.609 27.2662 178.063 27.2662H176.086C174.449 27.2662 173.121 25.938 173.121 24.301V16.394C173.121 14.757 174.449 13.4289 176.086 13.4289H178.063C178.609 13.4289 179.051 13.8706 179.051 14.4173C179.051 14.964 178.609 15.4056 178.063 15.4056Z" fill="#5D738D"/>
</g>
<defs>
<clipPath id="clip0_117_655">
<rect width="10.5" height="12.38" fill="white" transform="translate(32.1301 14.1373) scale(1.00407)"/>
</clipPath>
<clipPath id="clip1_117_655">
<rect width="15.75" height="14" fill="white" transform="translate(63.4267 13.324) scale(1.00407)"/>
</clipPath>
<clipPath id="clip2_117_655">
<rect width="15.75" height="15.75" fill="white" transform="translate(99.9849 12.4405) scale(1.00407)"/>
</clipPath>
<clipPath id="clip3_117_655">
<rect width="15.75" height="18" fill="white" transform="translate(136.553 11.3158) scale(1.00407)"/>
</clipPath>
<clipPath id="clip4_117_655">
<rect width="15.75" height="15.75" fill="white" transform="translate(173.121 12.4405) scale(1.00407)"/>
</clipPath>
</defs>
</svg>
