<svg width="37" height="20" viewBox="0 0 37 20" fill="none" xmlns="http://www.w3.org/2000/svg">
<g clip-path="url(#clip0_88_6984)">
<path d="M14.8677 13.0498L15.0143 13.1973L15.1627 13.0498C15.3368 12.8757 15.5435 12.7376 15.771 12.6434C15.9984 12.5491 16.2423 12.5006 16.4885 12.5006C16.7347 12.5006 16.9785 12.5491 17.206 12.6434C17.4335 12.7376 17.6402 12.8757 17.8143 13.0498C17.9884 13.2239 18.1266 13.4306 18.2208 13.6581C18.315 13.8856 18.3635 14.1294 18.3635 14.3756C18.3635 14.6219 18.315 14.8657 18.2208 15.0932C18.1266 15.3207 17.9884 15.5274 17.8143 15.7015L15.0143 18.5007L12.216 15.7015C11.8644 15.3498 11.6668 14.8729 11.6668 14.3756C11.6668 13.8784 11.8644 13.4015 12.216 13.0498C12.5676 12.6982 13.0445 12.5006 13.5418 12.5006C14.0391 12.5006 14.516 12.6982 14.8677 13.0498ZM10.0002 11.6673V13.334C8.67408 13.334 7.40231 13.8608 6.46463 14.7984C5.52695 15.7361 5.00016 17.0079 5.00016 18.334H3.3335C3.33352 16.602 4.00761 14.9379 5.21305 13.6942C6.4185 12.4505 8.06065 11.7248 9.79183 11.6706L10.0002 11.6673ZM10.0002 0.833984C12.7627 0.833984 15.0002 3.07148 15.0002 5.83398C15.0006 7.12776 14.4994 8.37131 13.6019 9.30316C12.7044 10.235 11.4805 10.7825 10.1877 10.8307L10.0002 10.834C7.23766 10.834 5.00016 8.59648 5.00016 5.83398C4.9997 4.54021 5.50092 3.29666 6.39842 2.36481C7.29592 1.43296 8.51978 0.885419 9.81266 0.837318L10.0002 0.833984ZM10.0002 2.50065C8.1585 2.50065 6.66683 3.99232 6.66683 5.83398C6.66683 7.67565 8.1585 9.16732 10.0002 9.16732C11.8418 9.16732 13.3335 7.67565 13.3335 5.83398C13.3335 3.99232 11.8418 2.50065 10.0002 2.50065Z" fill="#433E42"/>
</g>
<defs>
<clipPath id="clip0_88_6984">
<rect width="20" height="20" fill="white"/>
</clipPath>
</defs>
</svg>
