<svg width="14" height="16" viewBox="0 0 14 16" fill="none" xmlns="http://www.w3.org/2000/svg">
<path d="M1.55604 10.9029H10.1117C10.3181 10.9029 10.5159 10.821 10.6618 10.675C10.8077 10.529 10.8898 10.3306 10.8898 10.1241C10.8898 9.91764 10.8077 9.7197 10.6618 9.5737C10.5159 9.42771 10.3181 9.34583 10.1117 9.34583H3.88984C2.85858 9.34583 1.86959 8.93565 1.14038 8.20596C0.411166 7.47627 0.00150457 6.48689 0.00150457 5.45495C0.00150457 4.42302 0.411166 3.43313 1.14038 2.70344C1.86959 1.97375 2.85858 1.56407 3.88984 1.56407H5.44588V0.00802436H8.5567V1.56508H12.4448V4.67818H3.88984C3.68351 4.67818 3.4857 4.76006 3.3398 4.90605C3.1939 5.05205 3.11183 5.24999 3.11183 5.45645C3.11183 5.66292 3.1939 5.86086 3.3398 6.00686C3.4857 6.15285 3.68351 6.23473 3.88984 6.23473H10.1117C11.143 6.23473 12.132 6.64491 12.8612 7.3746C13.5904 8.10429 14.0001 9.09367 14.0001 10.1256C14.0001 11.1575 13.5904 12.1474 12.8612 12.8771C12.132 13.6068 11.143 14.017 10.1117 14.017H8.5557V15.5735H5.44488V14.017H1.55604V10.9029Z" fill="#CC42BD"/>
</svg>
