<svg width="38" height="42" viewBox="0 0 38 42" fill="none" xmlns="http://www.w3.org/2000/svg">
<g opacity="0.5">
<path d="M24.922 19.144C25.4152 18.6508 25.4152 17.8499 24.922 17.3566C24.4288 16.8634 23.6278 16.8634 23.1346 17.3566L18.9798 21.5154L14.821 17.3606C14.3278 16.8674 13.5268 16.8674 13.0336 17.3606C12.5404 17.8538 12.5404 18.6548 13.0336 19.148L17.1924 23.3028L13.0376 27.4616C12.5444 27.9548 12.5444 28.7558 13.0376 29.249C13.5308 29.7422 14.3318 29.7422 14.825 29.249L18.9798 25.0902L23.1386 29.245C23.6318 29.7382 24.4328 29.7382 24.926 29.245C25.4192 28.7518 25.4192 27.9508 24.926 27.4576L20.7672 23.3028L24.922 19.144Z" fill="#8C0F14"/>
</g>
</svg>
