<svg width="55" height="27" viewBox="0 0 55 27" fill="none" xmlns="http://www.w3.org/2000/svg">
<g filter="url(#filter0_d_119_2661)">
<rect x="34.25" y="1" width="15.75" height="17" rx="3" fill="#EA5455" shape-rendering="crispEdges"/>
<path d="M43.6875 12.6875C43.6875 13.5664 42.9844 14.25 42.125 14.25C41.2461 14.25 40.5625 13.5664 40.5625 12.6875C40.5625 11.8281 41.2461 11.125 42.125 11.125C42.9844 11.125 43.6875 11.8281 43.6875 12.6875ZM40.7383 4.75781C40.7188 4.48438 40.9336 4.25 41.207 4.25H43.0234C43.2969 4.25 43.5117 4.48438 43.4922 4.75781L43.2383 10.0703C43.2188 10.3047 43.0039 10.5 42.7695 10.5H41.4609C41.2266 10.5 41.0117 10.3047 40.9922 10.0703L40.7383 4.75781Z" fill="white"/>
</g>
<defs>
<filter id="filter0_d_119_2661" x="29.25" y="0" width="25.75" height="27" filterUnits="userSpaceOnUse" color-interpolation-filters="sRGB">
<feFlood flood-opacity="0" result="BackgroundImageFix"/>
<feColorMatrix in="SourceAlpha" type="matrix" values="0 0 0 0 0 0 0 0 0 0 0 0 0 0 0 0 0 0 127 0" result="hardAlpha"/>
<feOffset dy="4"/>
<feGaussianBlur stdDeviation="2.5"/>
<feComposite in2="hardAlpha" operator="out"/>
<feColorMatrix type="matrix" values="0 0 0 0 0 0 0 0 0 0 0 0 0 0 0 0 0 0 0.2 0"/>
<feBlend mode="normal" in2="BackgroundImageFix" result="effect1_dropShadow_119_2661"/>
<feBlend mode="normal" in="SourceGraphic" in2="effect1_dropShadow_119_2661" result="shape"/>
</filter>
</defs>
</svg>
