<svg width="37" height="20" viewBox="0 0 37 20" fill="none" xmlns="http://www.w3.org/2000/svg">
<g clip-path="url(#clip0_88_6941)">
<path d="M7.95817 9.58268C7.46089 9.58268 6.98398 9.38514 6.63235 9.03351C6.28071 8.68188 6.08317 8.20496 6.08317 7.70768C6.08317 7.2104 6.28071 6.73349 6.63235 6.38186C6.98398 6.03023 7.46089 5.83268 7.95817 5.83268C8.45545 5.83268 8.93236 6.03023 9.284 6.38186C9.63563 6.73349 9.83317 7.2104 9.83317 7.70768C9.83317 8.20496 9.63563 8.68188 9.284 9.03351C8.93236 9.38514 8.45545 9.58268 7.95817 9.58268ZM8.33317 16.456V13.666C8.33317 13.2593 8.45317 12.8852 8.66984 12.551C7.92706 12.4453 7.1704 12.4958 6.44822 12.6991C5.72604 12.9024 5.05421 13.2542 4.47567 13.7318C5.38656 15.0798 6.75828 16.0488 8.33317 16.4568V16.456ZM3.71067 12.216C4.92775 11.3153 6.4024 10.8303 7.9165 10.8327C8.78567 10.8327 9.619 10.9893 10.389 11.276C11.1207 10.9902 11.9932 10.8327 12.9165 10.8327C14.2998 10.8327 15.5707 11.186 16.4215 11.796C16.7028 10.7876 16.7426 9.72706 16.5378 8.70036C16.3329 7.67366 15.8891 6.70965 15.2423 5.88638C14.5956 5.06311 13.764 4.40374 12.815 3.96167C11.866 3.5196 10.8262 3.30725 9.7798 3.34182C8.73343 3.3764 7.70992 3.65692 6.79215 4.16068C5.87438 4.66444 5.08815 5.37726 4.49714 6.24143C3.90613 7.1056 3.52695 8.09681 3.39032 9.13479C3.25368 10.1728 3.36343 11.2283 3.71067 12.216ZM15.7323 13.4043C15.4048 12.9602 14.309 12.4993 12.9165 12.4993C11.2448 12.4993 9.99984 13.1635 9.99984 13.666V16.666C11.1564 16.6667 12.2932 16.3663 13.2984 15.7944C14.3037 15.2225 15.1419 14.3988 15.7323 13.4043ZM9.99984 18.3327C5.39734 18.3327 1.6665 14.6018 1.6665 9.99935C1.6665 5.39685 5.39734 1.66602 9.99984 1.66602C14.6023 1.66602 18.3332 5.39685 18.3332 9.99935C18.3332 14.6018 14.6023 18.3327 9.99984 18.3327ZM12.9165 10.416C12.4745 10.416 12.0506 10.2404 11.738 9.92786C11.4254 9.6153 11.2498 9.19138 11.2498 8.74935C11.2498 8.30732 11.4254 7.8834 11.738 7.57084C12.0506 7.25828 12.4745 7.08268 12.9165 7.08268C13.3585 7.08268 13.7825 7.25828 14.095 7.57084C14.4076 7.8834 14.5832 8.30732 14.5832 8.74935C14.5832 9.19138 14.4076 9.6153 14.095 9.92786C13.7825 10.2404 13.3585 10.416 12.9165 10.416Z" fill="#433E42"/>
</g>
<defs>
<clipPath id="clip0_88_6941">
<rect width="20" height="20" fill="white"/>
</clipPath>
</defs>
</svg>
