<svg width="16" height="23" viewBox="0 0 16 23" fill="none" xmlns="http://www.w3.org/2000/svg">
<g clip-path="url(#clip0_117_374)">
<path d="M13 11.1935C13 12.6278 12.5344 13.9528 11.75 15.0278L15.7063 18.9872C16.0969 19.3778 16.0969 20.0122 15.7063 20.4028C15.3156 20.7935 14.6812 20.7935 14.2906 20.4028L10.3344 16.4435C9.25938 17.231 7.93438 17.6935 6.5 17.6935C2.90937 17.6935 0 14.7841 0 11.1935C0 7.60283 2.90937 4.69345 6.5 4.69345C10.0906 4.69345 13 7.60283 13 11.1935ZM6.5 15.6935C7.09095 15.6935 7.67611 15.5771 8.22208 15.3509C8.76804 15.1248 9.26412 14.7933 9.68198 14.3754C10.0998 13.9576 10.4313 13.4615 10.6575 12.9155C10.8836 12.3696 11 11.7844 11 11.1935C11 10.6025 10.8836 10.0173 10.6575 9.47138C10.4313 8.92541 10.0998 8.42934 9.68198 8.01147C9.26412 7.59361 8.76804 7.26214 8.22208 7.03599C7.67611 6.80985 7.09095 6.69345 6.5 6.69345C5.90905 6.69345 5.32389 6.80985 4.77792 7.03599C4.23196 7.26214 3.73588 7.59361 3.31802 8.01147C2.90016 8.42934 2.56869 8.92541 2.34254 9.47138C2.1164 10.0173 2 10.6025 2 11.1935C2 11.7844 2.1164 12.3696 2.34254 12.9155C2.56869 13.4615 2.90016 13.9576 3.31802 14.3754C3.73588 14.7933 4.23196 15.1248 4.77792 15.3509C5.32389 15.5771 5.90905 15.6935 6.5 15.6935Z" fill="white"/>
</g>
<defs>
<clipPath id="clip0_117_374">
<rect width="15.75" height="15.75" fill="white" transform="translate(0 4.69345) scale(1.01587)"/>
</clipPath>
</defs>
</svg>
