<svg width="215" height="200" viewBox="0 0 215 200" fill="none" xmlns="http://www.w3.org/2000/svg">
<g clip-path="url(#clip0_117_96)">
<path d="M103.851 21.9389C105.026 21.7509 105.457 22.6674 105.99 23.3958C109.647 28.4047 112.4 33.9698 115.553 39.2686C117.245 42.1118 118.952 44.9707 121.114 47.4928C124.247 51.1311 128.449 53.101 132.89 54.6323C133.242 54.7537 133.579 54.9142 133.924 55.0591C132.992 55.2824 132.749 55.7993 133.234 56.6531C133.83 57.7183 134.801 58.3567 135.835 58.9285C138.576 60.4519 141.611 61.2547 144.54 62.3043C146.223 62.8798 147.703 63.9282 148.805 65.3238C150.27 67.184 150.983 69.3576 151.832 71.488C152.526 73.2386 153.583 74.7268 155.326 75.4435C156.814 76.0584 158.459 76.3364 160.025 76.7751C160.081 76.8017 160.142 76.8163 160.204 76.8179C160.265 76.8195 160.327 76.8082 160.384 76.7846C160.441 76.7609 160.493 76.7256 160.536 76.6808C160.578 76.636 160.611 76.5827 160.632 76.5244C161.611 77.1001 162.661 77.4252 162.759 78.9839C162.845 80.3663 164.227 80.942 165.457 81.4041C168.359 82.465 171.493 82.7247 174.531 82.1561C175.811 81.9368 176.735 81.0752 177.785 80.4368C177.925 80.3502 178.036 80.2249 178.105 80.076C178.175 79.9272 178.2 79.7614 178.177 79.5987C177.989 78.5922 178.619 78.5531 179.312 78.5413C179.571 79.4538 179.833 80.3663 180.095 81.2827C179.935 81.4668 179.704 81.6274 179.629 81.8428C179.203 83.0686 178.173 83.4798 177.076 83.8597C173.794 84.9993 170.481 84.9092 167.145 84.1808C166.464 83.9839 165.758 83.8876 165.05 83.8949C163.589 84.0007 162.966 84.9249 163.636 86.1977C163.942 86.9138 164.393 87.5591 164.959 88.0932C168.308 90.7798 172.15 92.593 176.003 94.4024C178.212 95.4402 180.538 96.2274 182.661 97.4649C184.196 98.3578 185.57 99.4779 187.058 100.433C188.483 101.318 189.583 102.642 190.191 104.205C190.975 106.206 190.892 108.305 191.076 110.369C191.273 112.598 191.125 114.843 190.638 117.027C190.325 118.437 190.587 119.851 190.372 121.26C189.945 123.666 189.323 126.033 188.511 128.337C188.353 128.749 188.281 129.188 188.299 129.629C188.318 130.069 188.426 130.501 188.617 130.898C189.31 132.316 189.04 133.139 187.967 133.699C184.889 135.296 182.343 137.615 179.821 139.937C178.866 140.822 177.895 141.7 176.982 142.628C175.721 143.908 174.053 144.719 172.952 146.152C171.915 144.727 170.806 143.388 168.977 142.945C168.817 142.318 169.33 141.978 169.608 141.563C171.37 138.97 173.042 136.268 175.012 133.879C177.291 131.114 177.053 128.435 176.187 125.455C176.156 125.28 176.143 125.103 176.148 124.926C175.954 124.504 175.88 124.036 175.937 123.575C175.991 119.228 177.425 115.104 178.008 110.843C178.047 110.557 178.529 110.154 177.961 109.954C177.507 109.793 177.389 110.248 177.217 110.549C175.858 112.93 174.319 115.182 172.294 117.046C171.174 118.076 169.87 118.907 168.789 119.968C166.134 122.58 162.958 124.178 159.434 125.204C157.006 125.917 154.574 125.835 152.091 125.322C148.86 124.652 146.295 123.273 145.175 119.948C144.96 119.31 144.56 118.691 143.839 118.774C143.056 118.871 142.829 119.557 142.857 120.317C142.958 122.894 143.514 125.282 145.598 127.064C146.616 127.942 147.626 128.831 148.731 129.606C150.822 131.09 151.143 133.663 149.628 135.735C148.112 137.807 146.279 139.354 144.294 140.854C141.106 143.262 137.765 145.326 133.849 146.337C130.932 147.088 128.006 147.786 124.971 147.676C122.888 147.602 120.801 147.468 118.729 147.233C117.053 147.041 115.357 146.932 113.736 146.309C112.914 146.044 112.022 146.097 111.237 146.458C110.925 145.875 110.645 145.275 110.399 144.66C109.585 142.463 109.311 140.141 108.743 137.889C107.544 133.143 105.547 128.854 102.058 125.357C102.076 125.124 102.033 124.89 101.932 124.68C101.831 124.469 101.675 124.289 101.482 124.158C100.103 123.046 98.4829 122.269 96.7513 121.891H96.7709C96.6769 121.676 96.5007 121.664 96.3049 121.691H96.3323C96.1952 121.366 95.9407 121.441 95.6744 121.472C95.5373 121.127 95.2475 121.221 94.9851 121.225C93.8533 121.025 94.7462 120.54 94.9303 120.371C95.5888 119.789 96.1471 119.102 96.5829 118.339C98.3805 115.182 99.0579 111.575 100.714 108.364C102.144 105.599 103.338 102.681 105.512 100.394C107.278 98.538 109.142 96.7208 111.891 96.3723C113.023 96.0237 114.174 96.2078 115.251 96.4819C117.644 97.089 119.731 96.3958 121.713 95.1935C123.183 94.254 124.256 92.8052 124.725 91.1244C125.935 87.259 127.858 83.8793 131.116 81.3806C132.512 80.3218 134.112 79.5619 135.815 79.1483C136.336 79.0779 136.861 79.0034 137.382 78.9408C138.647 78.788 139.731 78.2711 140.311 77.104C140.93 75.8665 140.734 74.6603 139.884 73.5285C137.559 70.4064 134.289 68.117 130.56 67C127.65 66.0914 124.685 65.3042 121.87 64.1646C116.972 62.2523 112.767 58.9035 109.808 54.5578C107.756 51.5345 105.782 48.4915 104.689 44.9316C103.55 41.2072 102.406 37.4906 101.114 33.8053C100.245 31.3263 99.5083 28.812 98.0946 26.5641C97.7343 25.9923 97.421 25.3892 96.7161 25.1581C96.7866 25.0015 96.814 24.8017 96.9276 24.6999C98.8449 23.0035 101.293 22.0274 103.851 21.9389ZM136.199 105.066C139.297 104.839 142.101 104.224 143.475 101.009C143.926 99.9635 143.632 99.192 142.649 98.6046C140.252 97.179 138.047 97.7665 135.87 99.1254C133.383 100.692 131.488 100.199 128.993 98.2599C127.99 97.4071 127.178 96.353 126.608 95.1661C126.459 94.888 126.275 94.5708 125.907 94.5943C125.437 94.6256 125.547 95.076 125.496 95.3462C125.187 96.8853 125.191 98.4166 126.228 99.6972C127.439 101.222 128.948 102.484 130.662 103.407C132.376 104.33 134.26 104.895 136.199 105.066ZM127.274 92.0643C127.254 92.4191 127.254 92.7748 127.274 93.1296C127.331 93.4997 127.528 93.834 127.823 94.064C128.119 94.2941 128.491 94.4025 128.864 94.3671C129.616 94.2144 129.882 93.7131 129.784 92.9533C129.712 92.4967 129.712 92.0315 129.784 91.5748C130.317 88.7707 131.836 86.7734 134.57 87.1063C135.745 87.2512 136.606 86.605 137.311 85.7747C137.61 85.4636 137.804 85.0663 137.865 84.6391C137.926 84.2118 137.852 83.7762 137.652 83.3936C137.288 82.6652 136.567 82.4968 135.78 82.4145C134.785 82.3049 134.073 82.9002 133.336 83.3114C129.933 85.2147 127.321 87.7564 127.274 92.0643ZM180.268 131.466C179.575 131.353 178.791 131.784 178.157 132.426C176.609 134.04 175.17 135.756 173.849 137.56C173.458 138.069 173.301 138.852 173.728 139.362C174.155 139.871 174.746 139.275 175.247 139.123C175.472 139.025 175.681 138.893 175.866 138.731C176.896 137.919 177.837 137 178.674 135.99C179.516 135.038 180.44 134.18 181.858 134.466C182.41 134.576 182.982 134.623 183.514 134.768C183.746 134.858 184.003 134.865 184.239 134.787C184.476 134.709 184.678 134.551 184.811 134.341C184.941 134.124 185 133.871 184.978 133.618C184.956 133.366 184.855 133.127 184.689 132.935C184.466 132.614 184.18 132.341 183.849 132.132C183.518 131.924 183.149 131.784 182.762 131.721C182.042 131.576 181.29 131.556 180.268 131.466ZM145.308 116.31C145.386 116.702 145.492 117.246 145.621 117.798C145.79 118.515 146.013 119.197 146.969 119.091C147.405 119.062 147.815 118.873 148.12 118.56C148.425 118.247 148.604 117.832 148.621 117.395C148.686 116.66 148.686 115.921 148.621 115.186C148.547 114.403 149.538 112.719 150.145 112.739C151.355 112.778 151.813 111.955 152.314 111.137C152.497 110.868 152.585 110.547 152.565 110.223C152.545 109.899 152.418 109.591 152.204 109.347C151.77 108.822 151.124 108.83 150.532 109.014C147.685 109.907 145.261 113.212 145.308 116.31ZM141.513 82.7396C142.633 82.6495 143.745 82.583 144.544 81.5647C144.936 81.0791 145.077 80.6561 144.658 80.1588C144.239 79.6614 143.851 79.7671 143.373 80.1196C143.022 80.4157 142.604 80.6234 142.156 80.7256C141.708 80.8278 141.242 80.8214 140.797 80.707C140.551 80.6796 140.302 80.7064 140.068 80.7854C139.871 80.8026 139.686 80.892 139.551 81.0365C139.415 81.181 139.337 81.3704 139.332 81.5686C139.314 81.7654 139.367 81.9622 139.48 82.1241C139.593 82.2861 139.76 82.4028 139.951 82.4537C140.449 82.6471 140.979 82.7441 141.513 82.7396Z" fill="#DD1A1E"/>
<path d="M19.0465 171.396C20.3506 169.638 21.6978 167.907 22.9627 166.113C26.1348 161.594 29.7025 157.364 32.7962 152.798C33.8186 151.346 34.9525 149.976 36.1877 148.701C39.7905 144.824 43.4091 140.959 47.6268 137.735C47.7947 137.612 47.9266 137.446 48.0092 137.255C48.0918 137.063 48.122 136.854 48.0968 136.647C48.0498 133.596 48.2769 130.545 48.3631 127.498C48.4492 124.451 48.9231 121.51 49.209 118.518C49.4557 115.91 49.769 113.306 49.953 110.686C50.2815 106.917 50.9833 103.19 52.0482 99.5593C52.7883 96.8571 53.2465 94.1039 53.74 91.3625C54.7895 85.535 58.0752 80.8237 60.981 75.8735C62.7981 72.7757 65.418 71.1739 68.7115 70.4846C72.1067 69.7261 75.6635 70.3009 78.6469 72.0903C83.7849 75.1098 88.8759 78.2115 93.8103 81.5521C95.7108 82.7967 97.3771 84.3663 98.733 86.189C98.5571 86.2048 98.3802 86.2048 98.2043 86.189C96.8375 85.8875 96.5987 86.1185 96.5321 87.5049C96.4733 88.6798 97.0882 89.5101 97.7069 90.3952C98.4902 91.57 99.5789 92.5491 100.119 93.865C101.134 96.3205 101.247 98.9797 101.419 101.564C101.662 105.226 100.668 108.555 97.8166 111.14C96.7083 112.146 95.2397 112.064 94.3978 110.858C93.3639 109.377 92.4201 107.815 91.2335 106.468C89.0796 104.02 87.1215 101.423 85.0616 98.9014C82.5983 95.8819 80.0215 92.9995 76.3833 91.2842C74.249 90.2777 70.8106 91.3742 70.1174 93.7201C69.7102 94.9343 69.5634 96.2207 69.6867 97.4954C69.9569 99.5593 70.3798 101.6 70.6618 103.66C70.9908 106.088 71.6761 108.445 71.4254 110.979C71.0338 115.056 69.252 118.51 66.9101 121.702C65.6424 123.537 64.1447 125.202 62.4535 126.656C62.2694 126.809 61.8895 126.997 62.148 127.326C62.3125 127.537 62.6101 127.42 62.8412 127.326C63.3894 127.079 63.9338 126.821 64.4899 126.582C66.2052 125.834 68.0614 125.427 69.6867 124.451C72.7609 123.688 75.7372 122.568 78.8623 121.996C80.8909 121.624 82.9077 121.213 84.9284 120.821C86.2913 120.821 87.6423 120.942 89.0013 121.013C90.6617 121.099 92.33 121.032 93.9944 121.032C92.7897 121.289 91.6384 121.751 90.5912 122.399C89.7532 122.889 89.808 123.449 90.18 124.177C90.4972 124.831 91.1826 125.043 91.6525 125.509C89.5025 125.72 87.3447 126.053 85.2065 126.12C79.7963 126.275 74.4122 126.931 69.1227 128.078C66.5263 128.642 63.9064 129.171 61.588 130.518C58.274 132.457 55.3914 135.053 53.1173 138.147C52.1489 139.337 51.5887 140.808 51.5195 142.341C51.4921 143.626 52.2362 144.146 53.4463 143.767C54.1351 143.579 54.7407 143.165 55.1655 142.592C56.2816 141.002 57.4094 139.423 58.5334 137.837C60.3532 135.181 63.0964 133.298 66.2287 132.554C70.0644 131.576 73.9495 130.804 77.8676 130.24C80.7695 129.848 83.6048 129.1 86.5771 129.065C88.3786 129.037 90.2035 129.116 91.9971 128.892C93.3633 128.671 94.7577 128.691 96.117 128.951C96.4655 130.169 96.8571 131.379 97.1508 132.613C97.7578 135.151 97.3466 137.536 95.4943 139.42C93.7124 141.229 91.4724 142.396 89.107 143.371C86.2404 144.546 83.315 145.329 80.2055 145.133C77.6655 144.961 75.1168 144.961 72.5768 145.133C71.402 145.22 70.2271 145.427 69.2598 146.12C67.803 147.182 66.2874 148.188 65.1008 149.574C63.208 151.73 61.1482 153.734 58.9407 155.566C55.6837 158.361 52.1393 160.801 48.367 162.847C46.495 163.861 44.3764 164.413 42.6611 165.663C38.976 168.31 35.2204 170.883 31.8642 173.973C30.3846 175.391 28.9931 176.897 27.6974 178.485C26.9846 179.319 26.546 180.384 25.9977 181.355C25.9625 181.418 26.0565 181.551 26.0878 181.649C25.2106 182.526 24.3882 183.474 23.2094 183.96C21.2513 184.766 19.2933 185.616 17.2764 186.309C15.2596 187.003 13.2428 188.06 11.0105 188.311C10.7011 188.346 10.3095 188.53 10.1059 188.248C9.90225 187.966 10.2155 187.649 10.3409 187.371C11.4491 184.888 12.5731 182.417 13.6931 179.93C14.0456 179.401 14.4176 178.888 14.7426 178.363C16.0507 176.151 17.7934 174.208 18.8076 171.811L18.7841 171.839C19.0935 171.788 19.023 171.565 19.0465 171.396ZM92.3261 87.501C92.9018 87.5715 93.2973 87.501 93.501 87.0036C93.8652 86.0089 93.8691 85.0455 93.1328 84.2152C92.4991 83.4454 91.7609 82.7679 90.9398 82.2022C87.8342 80.2128 84.8736 78.0235 81.9326 75.803C78.9915 73.5824 76.0191 71.4755 72.1813 71.1582C71.8346 71.0994 71.4816 71.0876 71.1317 71.123C69.7783 71.3851 68.4517 71.7705 67.1686 72.2744C65.6295 72.8344 64.4977 73.8409 63.4717 75.0471C62.6884 75.9401 62.5749 77.2364 63.1075 77.8982C63.8359 78.8068 64.674 78.9635 65.978 78.4426C66.7158 78.0913 67.4011 77.6392 68.0145 77.0993C69.0953 76.2651 70.2584 75.5328 71.68 75.6111C74.7581 75.8187 77.4094 77.2716 79.7826 79.0418C82.6414 81.1762 85.3905 83.4711 88.3159 85.5233C89.5574 86.3966 90.7126 87.5989 92.3261 87.501ZM61.6546 84.2622C61.5528 83.9372 61.5919 83.4202 61.0789 83.2988C60.8056 83.2102 60.512 83.2058 60.2362 83.2861C59.9604 83.3664 59.715 83.5277 59.532 83.7492C58.4015 85.2952 57.632 87.0751 57.2802 88.9579C57.2326 89.2054 57.2687 89.4618 57.3829 89.6866C57.4971 89.9113 57.6827 90.0917 57.9107 90.1993C58.1541 90.3115 58.4274 90.3416 58.6894 90.2851C58.9514 90.2286 59.188 90.0886 59.3636 89.886C60.9301 88.3587 61.4431 86.4123 61.6546 84.2622ZM48.3043 147.843C48.3278 146.751 47.8226 146.582 47.1295 146.72C46.4605 146.886 45.8625 147.263 45.4233 147.794C44.9842 148.326 44.7271 148.984 44.6897 149.672C44.6897 150.456 45.2693 150.847 46.076 150.604C47.012 150.326 48.3082 148.576 48.3043 147.843Z" fill="#8BBEEA"/>
<path d="M137.934 56.0328C136.857 54.572 137.108 52.8566 137.131 51.2353C137.182 47.8673 137.969 44.6559 139.873 41.8362C141.729 39.0947 144.18 37.1366 147.627 36.8781C148.801 36.788 150.031 36.7136 151.018 37.6144C151.018 37.7554 150.983 37.8963 150.959 38.0373C150.568 40.2814 151.167 41.8792 152.804 42.7604C154.926 43.9079 156.509 44.0136 158.22 42.0633C158.368 41.9202 158.528 41.7892 158.698 41.6717C158.763 41.7161 158.823 41.7673 158.878 41.8244C160.346 43.857 162.539 44.4092 164.623 43.2734C166.495 42.2513 168.069 38.7305 167.188 37.0504C165.621 34.0466 162.449 32.6916 159.418 35.4487C158.921 35.9029 158.635 36.1928 158.424 35.292C158.61 34.9953 158.769 34.682 158.897 34.356C160.276 29.5468 163.714 26.7388 168.128 24.9255C178.431 20.692 192.526 24.6044 198.752 33.3887C199.63 34.6301 200.237 36.04 201.259 37.1953C201.744 37.7397 201.709 38.4995 201.65 39.224C201.4 41.9066 201.76 42.5333 204.168 43.7199C206.22 44.7381 208.284 45.7329 210.329 46.7668C213.74 48.4939 215.22 51.153 214.887 55.0889C214.787 56.9633 214.3 58.7967 213.458 60.4739C212.791 61.6315 211.97 62.6933 211.018 63.6304C209.904 64.7231 208.962 65.9773 208.222 67.3509C206.761 70.2568 207.438 72.7006 209.483 75.0308C211.656 77.5304 212.999 80.644 213.324 83.9404C213.55 85.359 213.233 86.8107 212.435 88.0055C212.185 87.8489 212.318 87.6491 212.361 87.4455C212.741 85.8267 212.553 84.1265 211.83 82.6295C211.106 81.1324 209.891 79.9292 208.386 79.2212C207.121 78.6025 205.727 78.25 204.388 77.7879C203.56 77.5164 202.839 76.9929 202.324 76.2905C201.809 75.5882 201.527 74.7423 201.517 73.8715C201.517 72.5909 201.517 71.3103 201.56 70.0336C201.578 69.5333 201.485 69.0354 201.287 68.5755C201.089 68.1157 200.792 67.7055 200.417 67.3744C199.406 66.3718 198.181 65.6124 196.833 65.1539C195.824 64.8661 194.961 64.2081 194.417 63.3113C193.872 62.4145 193.686 61.3452 193.896 60.3172C194.041 59.4086 194.249 58.5118 194.417 57.6071C194.809 55.555 194.852 53.4793 193.908 51.5917C191.464 46.7041 186.941 43.2891 180.593 44.934C178.357 45.5175 176.238 45.3256 174.39 43.7591C173.363 42.8739 172.124 42.2695 170.795 42.0046C170.035 41.8557 169.264 41.8009 169.146 42.8975C169.021 42.9635 168.89 43.0173 168.754 43.058C163.052 44.2094 158.759 47.3098 155.874 52.3593C155.071 53.7574 154.699 55.3083 154.343 56.816C153.896 58.6528 153.235 60.5169 153.607 62.4751C153.753 63.2809 153.801 64.1014 153.752 64.9189C153.665 64.8578 153.586 64.7868 153.517 64.7074C150.775 60.6344 146.859 58.4178 142.191 57.2664C140.746 56.9453 139.23 56.816 137.934 56.0328Z" fill="#010F3A"/>
<path d="M69.6671 124.432C68.0419 125.407 66.1856 125.814 64.4703 126.562C63.9142 126.801 63.3699 127.059 62.8216 127.306C62.5905 127.412 62.2929 127.529 62.1284 127.306C61.87 126.977 62.2498 126.789 62.4339 126.637C64.1251 125.182 65.6228 123.517 66.8905 121.682C69.2402 118.491 70.9986 115.025 71.4059 110.96C71.6565 108.426 70.9712 106.068 70.6422 103.64C70.3602 101.58 69.9373 99.5396 69.6671 97.4757C69.5438 96.201 69.6906 94.9146 70.0979 93.7004C70.7871 91.3506 74.2255 90.2579 76.3638 91.2644C80.0019 92.9798 82.5787 95.8622 85.042 98.8817C87.1019 101.404 89.06 104 91.2139 106.448C92.3888 107.795 93.3443 109.358 94.3782 110.838C95.2202 112.044 96.6887 112.127 97.797 111.12C100.648 108.535 101.643 105.206 101.4 101.545C101.228 98.96 101.114 96.3008 100.1 93.8453C99.5593 92.5294 98.4823 91.5425 97.6873 90.3754C97.0843 89.4903 96.4694 88.6562 96.5125 87.4852C96.5791 86.0988 96.818 85.8678 98.1847 86.1693C98.3606 86.1851 98.5375 86.1851 98.7134 86.1693C101.596 87.7358 104.063 89.8389 106.585 91.8871C108.065 93.0855 109.589 94.2369 111.081 95.4118C111.406 95.6703 111.786 95.9013 111.864 96.3713C109.123 96.7199 107.251 98.537 105.484 100.393C103.311 102.68 102.117 105.598 100.687 108.363C99.0306 111.574 98.3374 115.181 96.5556 118.338C96.1198 119.101 95.5614 119.788 94.9029 120.37C94.7189 120.539 93.826 121.024 94.9578 121.224C95.0439 121.318 95.1517 121.39 95.2718 121.433C95.3919 121.476 95.5207 121.489 95.647 121.471C95.7958 121.753 96.0778 121.635 96.3049 121.69H96.2775C96.3598 121.929 96.5752 121.855 96.7436 121.89H96.724C98.5019 123.03 100.433 123.942 102.03 125.356C105.52 128.881 107.513 133.153 108.715 137.888C109.283 140.14 109.557 142.462 110.372 144.659C110.618 145.273 110.897 145.873 111.206 146.457C111.539 147.679 112.275 148.662 113.07 149.614C113.724 150.397 114.433 151.145 114.715 152.167C114.581 152.42 114.383 152.632 114.14 152.783C113.897 152.933 113.618 153.017 113.332 153.025C108.065 153.694 102.759 153.616 97.4876 153.35C93.1798 153.13 88.8916 153.154 84.6112 152.79C81.0867 152.488 77.4446 152.876 73.9827 151.697C73.1995 151.431 72.5846 151.654 71.9463 152.284C69.295 154.912 66.2952 157.133 63.3894 159.463C58.8819 163.078 53.6812 165.623 48.9505 168.893C45.9664 170.953 42.6533 172.418 39.4851 174.141C38.8037 174.513 38.1027 174.858 37.4095 175.214C34.1787 176.875 31.034 178.688 27.9558 180.615C27.901 180.674 27.8462 180.732 27.7874 180.787H27.8188C27.0355 180.635 26.7614 181.535 26.0996 181.645C26.0682 181.547 25.9743 181.414 26.0095 181.351C26.5578 180.38 26.9964 179.315 27.7091 178.481C29.0048 176.893 30.3963 175.387 31.8759 173.969C35.2399 170.879 38.9877 168.306 42.6728 165.659C44.3881 164.425 46.5068 163.857 48.3787 162.843C52.151 160.797 55.6955 158.357 58.9524 155.562C61.16 153.73 63.2197 151.726 65.1126 149.57C66.2874 148.184 67.8147 147.178 69.2715 146.116C70.2271 145.423 71.398 145.215 72.5886 145.129C75.1285 144.957 77.6773 144.957 80.2173 145.129C83.3267 145.321 86.2521 144.546 89.1188 143.367C91.4685 142.392 93.7242 141.225 95.506 139.415C97.3584 137.532 97.7696 135.147 97.1626 132.609C96.8689 131.375 96.4773 130.165 96.1287 128.947C96.955 128.79 97.797 128.685 98.6077 128.465C99.2499 128.289 99.5749 127.839 99.1442 127.177C98.3257 125.912 95.9251 124.98 94.3782 125.219C93.4775 125.364 92.5767 125.61 91.6369 125.481C91.1669 125.015 90.4816 124.804 90.1644 124.15C89.808 123.421 89.7375 122.861 90.5756 122.372C91.6228 121.723 92.7741 121.261 93.9787 121.005C92.3143 121.005 90.646 121.071 88.9856 120.985C87.6267 120.915 86.2756 120.793 84.9128 120.793C81.3412 117.308 78.7174 113.094 75.9291 108.97C75.8951 109.044 75.8651 109.12 75.839 109.197C74.9578 113.219 73.8809 117.155 71.6643 120.703C70.9281 121.894 70.0117 123.022 69.6671 124.432Z" fill="#73A6D2"/>
<path d="M180.064 81.2749C179.806 80.3585 179.543 79.446 179.281 78.5335C179.366 78.3376 179.491 78.1622 179.649 78.0189C179.807 77.8757 179.994 77.768 180.197 77.7032C182.147 76.7723 183.87 75.4263 185.245 73.7595C185.394 73.5855 185.579 73.4463 185.788 73.3515C185.996 73.2568 186.223 73.2089 186.452 73.2112C189.584 73.1368 192.326 70.2505 192.373 67.0234C192.969 67.3594 193.647 67.5235 194.331 67.4973C197.072 67.4973 197.57 68.0573 197.307 70.787C197.303 70.8935 197.292 70.9995 197.272 71.1042C196.779 73.0953 197.042 75.1985 198.012 77.0061C199.391 79.6457 201.063 82.1286 204.634 81.9485C204.881 81.9653 205.123 82.0222 205.351 82.1169C206.733 82.5359 207.701 83.5307 208.715 84.4667C209.729 85.4027 209.89 87.3177 209.165 88.4848C207.348 91.375 207.109 94.2888 209.017 97.2378C210.115 98.9741 210.876 100.902 211.261 102.92C211.319 103.206 211.233 103.704 211.758 103.747C211.39 106.794 210.215 109.347 207.399 110.906C204.732 112.382 201.967 113.44 198.831 112.923C198.453 112.839 198.091 112.697 197.758 112.5C197.933 110.523 197.997 108.538 197.949 106.555C197.842 102.915 196.422 99.4379 193.951 96.7639C192.259 94.8997 190.426 93.153 188.899 91.144C187.29 89.0253 185.817 86.7969 184.051 84.7956C182.872 83.4484 181.917 81.8584 180.064 81.2749Z" fill="#010E3A"/>
<path d="M180.064 81.2734C181.917 81.857 182.872 83.4587 184.051 84.7981C185.817 86.7993 187.29 89.0277 188.899 91.1464C190.427 93.1555 192.259 94.9022 193.951 96.7664C196.421 99.4477 197.835 102.933 197.934 106.577C197.982 108.56 197.917 110.545 197.742 112.522C197.233 113.473 197.487 114.535 197.331 115.537C196.708 119.473 195.941 123.37 195.243 127.286C194.801 129.777 194.46 132.287 193.9 134.762C193.564 136.453 193.1 138.115 192.514 139.736C192.075 140.856 190.947 141.581 190.058 142.356C186.878 145.095 183.424 147.499 179.751 149.531C177.93 150.529 176.117 151.536 174.206 152.354C173.605 152.548 172.985 152.679 172.357 152.746C173.064 152.091 173.494 151.19 173.56 150.228C174.116 148.748 173.603 147.428 172.941 146.131C174.041 144.682 175.71 143.872 176.971 142.607C177.883 141.679 178.854 140.801 179.81 139.916C182.332 137.59 184.877 135.275 187.955 133.678C189.028 133.118 189.299 132.295 188.606 130.877C188.414 130.48 188.306 130.048 188.288 129.608C188.27 129.167 188.342 128.728 188.5 128.316C189.314 126.017 189.941 123.656 190.372 121.255C190.587 119.845 190.325 118.431 190.638 117.021C191.126 114.838 191.273 112.592 191.077 110.364C190.893 108.3 190.959 106.201 190.192 104.199C189.583 102.636 188.484 101.313 187.059 100.428C185.57 99.4725 184.196 98.3525 182.661 97.4595C180.534 96.222 178.208 95.4348 176.003 94.397C172.15 92.5876 168.308 90.7744 164.96 88.0878C164.393 87.5537 163.942 86.9085 163.636 86.1923C162.966 84.9195 163.589 83.9953 165.05 83.8895C165.758 83.8822 166.464 83.9785 167.145 84.1754C170.481 84.9038 173.802 84.9939 177.076 83.8543C178.173 83.4627 179.203 83.071 179.63 81.8374C179.673 81.6181 179.904 81.4575 180.064 81.2734Z" fill="#AD0001"/>
<path d="M114.723 152.175C114.441 151.153 113.732 150.405 113.078 149.622C112.295 148.67 111.547 147.687 111.214 146.465C112 146.104 112.893 146.051 113.716 146.316C115.338 146.939 117.033 147.049 118.709 147.24C120.781 147.475 122.868 147.609 124.952 147.683C127.987 147.793 130.912 147.096 133.83 146.344C137.746 145.333 141.087 143.269 144.274 140.861C146.26 139.361 148.124 137.771 149.608 135.742C151.092 133.714 150.783 131.097 148.711 129.613C147.615 128.83 146.604 127.949 145.578 127.071C143.503 125.29 142.947 122.901 142.837 120.324C142.81 119.58 143.025 118.879 143.82 118.781C144.541 118.691 144.94 119.309 145.155 119.956C146.275 123.28 148.841 124.655 152.071 125.329C154.554 125.842 156.986 125.924 159.414 125.211C162.939 124.181 166.119 122.587 168.774 119.987C169.855 118.926 171.159 118.095 172.279 117.065C174.304 115.201 175.843 112.949 177.202 110.568C177.374 110.267 177.491 109.812 177.946 109.973C178.513 110.173 178.032 110.576 177.993 110.862C177.409 115.123 175.976 119.247 175.921 123.594C175.865 124.055 175.938 124.523 176.132 124.945C175.69 124.73 175.463 125.113 175.232 125.337C172.717 127.686 169.69 129.077 166.514 130.244C163.487 131.356 160.859 133.138 158.365 135.163C155.87 137.187 153.951 139.725 151.601 141.867C147.368 145.709 142.371 148.09 136.853 149.391C133.787 150.115 130.681 150.683 127.576 151.231C123.343 152.045 119.029 152.362 114.723 152.175Z" fill="#AE0101"/>
<path d="M96.7161 25.1699C97.421 25.401 97.7343 26.0041 98.0945 26.5759C99.5083 28.8238 100.245 31.3381 101.114 33.8171C102.406 37.4985 103.55 41.2189 104.689 44.9434C105.782 48.5033 107.756 51.5463 109.808 54.5696C112.767 58.9152 116.972 62.2641 121.87 64.1764C124.689 65.316 127.65 66.1032 130.56 67.0118C134.295 68.1335 137.568 70.4316 139.892 73.5637C140.742 74.6956 140.938 75.9135 140.319 77.1393C139.739 78.3142 138.654 78.8233 137.39 78.9761C136.865 79.0387 136.34 79.1131 135.823 79.1836C135.843 78.7137 135.823 78.373 135.2 78.2046C131.088 77.0767 127.485 74.8796 123.793 72.8314C118.49 69.8903 114.355 65.5823 110.137 61.3997C107.568 58.8502 105.148 56.0343 103.432 52.8112C101.011 48.3795 99.3172 43.5875 98.4157 38.6185C97.9027 35.6656 97.0763 32.7676 96.438 29.8342C96.1678 28.581 95.7057 27.3631 95.7409 26.0511L96.7161 25.1699Z" fill="#AE0101"/>
<path d="M96.7167 25.1691L95.7376 26.0503C95.6364 25.6689 95.4393 25.3197 95.1651 25.036C94.891 24.7522 94.5488 24.5432 94.1711 24.4289C92.26 23.8532 91.0851 22.4355 90.1843 20.7868C88.7509 18.1628 87.3332 15.5546 85.0226 13.5455C84.4445 12.9632 83.949 12.3044 83.5501 11.5873C83.3276 11.299 83.2285 10.9342 83.2748 10.5729C83.3211 10.2116 83.5088 9.88348 83.7968 9.66052C84.4313 9.11615 85.0931 9.39421 85.6062 9.90725C86.3346 10.6318 86.9886 11.4307 87.7014 12.1748C87.9783 12.4495 88.2827 12.6949 88.61 12.9071C88.7823 13.0246 89.0212 13.1069 89.1896 12.9071C89.358 12.7074 89.2326 12.5155 89.1112 12.3314C88.5942 11.5216 87.9858 10.7739 87.298 10.1031C86.4872 9.30014 85.8617 8.32976 85.4652 7.25982C85.1871 6.57055 85.3124 5.99094 85.9469 5.59539C86.5813 5.19985 87.2628 5.17635 87.7484 5.84212C88.6687 7.09925 89.5381 8.39164 90.4467 9.66052C90.7443 10.0756 91.1164 10.8354 91.5629 10.5691C92.0093 10.3028 91.4062 9.65661 91.2104 9.21015C90.4741 7.5183 89.6909 5.84604 88.9389 4.15811C88.8143 3.90201 88.7285 3.62879 88.6844 3.34743C88.5904 2.56417 88.5943 1.8279 89.3345 1.34228C90.0747 0.856659 90.6856 1.23654 91.2926 1.63209C92.3461 2.30569 92.8317 3.38268 93.2508 4.47533C93.8265 5.92436 94.3278 7.40473 94.88 8.86943C94.974 9.12399 95.0758 9.52737 95.3813 9.4882C95.8277 9.42946 95.6632 8.97908 95.6593 8.70494C95.6319 6.80945 94.9975 5.0197 94.6802 3.17511C94.4733 2.3772 94.5624 1.53135 94.9309 0.793998C95.4831 -0.17333 96.4308 -0.275154 97.1788 0.6021C97.6653 1.21801 98.0139 1.93118 98.201 2.69341C98.8119 4.81605 98.9099 7.00135 99.278 9.18665C99.3845 9.7827 99.601 10.3538 99.9163 10.8707C100.065 11.1252 100.112 11.5717 100.523 11.4973C100.935 11.4229 100.915 11.0234 100.997 10.714C101.209 10.0756 101.354 9.40596 101.624 8.79502C102.015 7.9256 102.568 7.17366 103.606 7.04834C105.172 6.86428 106.492 8.24673 105.799 9.65661C104.455 12.398 104.479 15.2765 104.185 18.155C104.154 18.6519 104.011 19.1354 103.766 19.5688C103.515 19.9115 103.384 20.3275 103.393 20.7523C103.402 21.1772 103.551 21.5871 103.817 21.9186C101.268 22.0216 98.8331 23.0057 96.9282 24.7031C96.8146 24.8127 96.7755 25.0125 96.7167 25.1691Z" fill="#8CBFEA"/>
<path d="M211.742 103.766C211.217 103.715 211.304 103.225 211.245 102.94C210.861 100.921 210.099 98.9933 209.001 97.257C207.094 94.308 207.333 91.3825 209.15 88.504C209.882 87.3291 209.67 85.4219 208.699 84.4859C207.728 83.5499 206.718 82.5277 205.335 82.1361C205.107 82.0414 204.865 81.9845 204.619 81.9677C201.047 82.1478 199.375 79.6649 197.996 77.0253C197.027 75.2178 196.763 73.1145 197.256 71.1234C197.276 71.0187 197.288 70.9127 197.291 70.8062C197.554 68.0648 197.053 67.5087 194.315 67.5165C193.631 67.5427 192.953 67.3786 192.357 67.0426C191.78 66.604 191.202 66.168 190.622 65.7346C188.997 63.2556 189.447 60.8901 190.724 58.3759C191.687 56.4725 191.899 54.3342 190.556 52.4191C189.304 50.694 187.499 49.45 185.441 48.8945C185.211 48.8088 184.963 48.7826 184.72 48.8181C184.477 48.8537 184.247 48.95 184.051 49.0981C183.839 49.0964 183.627 49.1187 183.42 49.1647C179.504 50.508 176.234 48.6517 174.354 45.7967C173.101 43.9012 171.284 43.1101 169.111 42.9456C169.228 41.849 170 41.9039 170.759 42.0527C172.089 42.3177 173.327 42.9221 174.354 43.8072C176.203 45.3737 178.321 45.5578 180.558 44.9821C186.914 43.3255 191.437 46.7405 193.873 51.6398C194.816 53.5275 194.765 55.6031 194.382 57.6553C194.213 58.5599 193.99 59.4568 193.861 60.3653C193.669 61.3839 193.865 62.4372 194.409 63.3193C194.953 64.2015 195.806 64.8491 196.802 65.1354C198.149 65.594 199.375 66.3533 200.385 67.3559C200.761 67.687 201.058 68.0972 201.256 68.5571C201.453 69.0169 201.547 69.5149 201.529 70.0151C201.478 71.2918 201.474 72.5725 201.486 73.8531C201.495 74.7239 201.778 75.5697 202.292 76.2721C202.807 76.9744 203.529 77.498 204.356 77.7694C205.696 78.2315 207.098 78.584 208.355 79.2028C209.859 79.9108 211.075 81.1139 211.798 82.611C212.522 84.1081 212.709 85.8082 212.33 87.427C212.286 87.6307 212.153 87.8187 212.404 87.9871C211.773 89.4048 210.747 90.5797 209.996 91.9308C209.154 93.4346 209.298 94.868 209.956 96.27C210.86 98.3222 211.517 100.474 211.914 102.681C211.968 102.863 211.98 103.055 211.951 103.243C211.921 103.43 211.85 103.609 211.742 103.766Z" fill="#3E6D9D"/>
<path d="M172.941 146.164C173.603 147.461 174.116 148.781 173.56 150.261C173.382 150.276 173.203 150.256 173.033 150.201C172.863 150.147 172.705 150.059 172.569 149.944C171.257 148.91 170.274 148.808 168.539 150.179C167.408 151.072 166.397 152.137 165.14 152.869C164.887 153.005 164.685 153.22 164.564 153.48C164.369 154.044 163.946 154.718 164.917 155.047C161.619 155.908 158.302 156.178 154.95 155.395C153.721 155.132 152.643 154.4 151.946 153.355C151.163 152.215 151.131 151.33 152.216 150.445C156.591 146.869 161.224 143.752 167.137 143.466C167.775 143.431 168.398 143.263 168.966 142.973C170.791 143.4 171.903 144.739 172.941 146.164Z" fill="#8BBEEA"/>
<path d="M137.934 56.0338C139.231 56.8523 140.746 56.9658 142.179 57.3144C146.84 58.458 150.776 60.6746 153.505 64.7554C153.574 64.8348 153.653 64.9046 153.74 64.9629C153.803 65.1666 153.874 65.3546 153.924 65.57C155.045 69.9053 156.541 74.0096 160.617 76.5356C160.597 76.5939 160.564 76.6472 160.521 76.692C160.478 76.7368 160.427 76.7722 160.37 76.7958C160.312 76.8194 160.251 76.8308 160.189 76.8291C160.127 76.8275 160.066 76.8129 160.01 76.7863C158.444 76.3477 156.815 76.0696 155.311 75.4547C153.568 74.7381 152.511 73.2499 151.818 71.4993C150.968 69.3688 150.251 67.1913 148.79 65.335C147.698 63.9379 146.227 62.8843 144.553 62.2999C141.623 61.2503 138.596 60.4474 135.847 58.924C134.821 58.3522 133.842 57.7139 133.246 56.6486C132.773 55.7949 133.004 55.2779 133.936 55.0547L137.934 56.0338Z" fill="#AD0102"/>
<path d="M158.428 35.2494C158.635 36.1501 158.925 35.8603 159.422 35.4061C162.454 32.6646 165.618 34.004 167.192 37.0078C168.073 38.6879 166.499 42.2087 164.627 43.2308C162.544 44.3666 160.351 43.8144 158.882 41.7818C158.827 41.7247 158.767 41.6735 158.702 41.6291C158.532 41.7466 158.373 41.8776 158.224 42.0207C156.513 43.9788 154.93 43.8653 152.808 42.7178C151.171 41.8366 150.572 40.2388 150.963 37.9947C150.987 37.8537 151.002 37.7128 151.022 37.5718C151.684 36.4439 152.31 35.2886 153.556 34.6659C155.31 33.7964 156.912 34.1607 158.428 35.2494ZM159.493 37.7245C159.493 38.1514 159.559 38.543 160.053 38.6057C160.633 38.6762 160.723 38.2806 160.801 37.8224C160.922 37.0901 161.032 36.3068 162.07 36.2794C162.461 36.2794 162.947 36.1971 162.853 35.6606C162.759 35.1241 162.293 34.9713 161.78 35.034C160.629 35.1554 159.469 36.53 159.493 37.7245ZM152.017 37.9751C151.993 38.5038 152.056 39.2871 152.729 39.3302C153.477 39.3772 153.458 38.4451 153.419 37.9947C153.348 37.6498 153.411 37.2909 153.594 36.9902C153.777 36.6894 154.067 36.4691 154.406 36.3734C154.691 36.2559 154.895 36.0522 154.778 35.7154C154.66 35.3786 154.331 35.4178 154.057 35.4335C152.972 35.4883 151.993 36.6514 152.017 37.9751Z" fill="#FC78AC"/>
<path d="M18.8436 171.795C17.8293 174.192 16.1022 176.134 14.7785 178.347C14.4535 178.891 14.0814 179.404 13.7289 179.913C12.2877 179.945 11.481 181.174 10.9444 182.056C9.74213 184.014 8.95887 186.273 8.09728 188.439C7.27094 190.507 6.64042 192.653 5.70834 194.705C5.6026 194.936 5.52819 195.207 5.75533 195.391C5.9159 195.52 6.06472 195.32 6.21354 195.234C9.32831 193.487 12.4431 191.746 15.5579 190.01C16.02 189.755 16.5291 189.591 16.9991 189.344C18.9128 188.341 20.8214 187.331 22.7247 186.313C23.082 186.152 23.4737 186.083 23.8643 186.113C23.5374 186.679 23.1147 187.184 22.615 187.605C21.6046 187.632 20.8723 188.302 20.0342 188.725C16.302 190.597 12.5932 192.547 9.00978 194.662C7.83489 195.344 6.6835 196.021 5.48511 196.62C4.61177 197.059 3.96558 196.691 4.15356 195.892C4.50484 194.252 4.94543 192.632 5.47336 191.04C6.43677 188.349 7.84272 185.819 8.99804 183.207C9.59723 181.832 10.3609 180.509 10.686 179.044C10.6211 178.991 10.5382 178.965 10.4548 178.973C10.3714 178.98 10.2941 179.02 10.2395 179.083C9.51231 179.851 8.67083 180.503 7.74482 181.014C6.85254 181.527 6.19833 182.371 5.92373 183.364C5.33237 185.537 4.19273 187.464 3.46821 189.563C2.68495 191.768 1.79203 193.922 1.00877 196.119C0.906942 196.397 0.440901 197.47 1.66671 196.855C1.96826 196.707 2.27373 197.082 2.36773 197.38C2.6497 198.261 3.42121 198.555 4.1144 198.947C3.13532 199.652 1.92127 199.632 0.832532 199.988C0.519227 200.09 0.440902 199.742 0.362576 199.518C0.00226643 198.635 -0.0703664 197.661 0.155011 196.734C1.22025 192.426 2.95909 188.326 4.33763 184.112C4.82894 182.539 5.85574 181.188 7.23961 180.293C9.98103 178.421 12.6676 176.436 15.2798 174.376C16.3294 173.549 17.375 172.723 18.4442 171.928C18.5421 171.83 18.64 171.595 18.8436 171.795Z" fill="#02113C"/>
<path d="M4.09852 198.936C3.40533 198.544 2.63382 198.259 2.35185 197.37C2.25785 197.072 1.96021 196.696 1.65083 196.845C0.425022 197.46 0.891062 196.387 0.992886 196.108C1.77615 193.911 2.68865 191.757 3.45233 189.553C4.17685 187.453 5.31649 185.527 5.90785 183.353C6.18245 182.361 6.83667 181.517 7.72894 181.003C8.65634 180.492 9.49916 179.841 10.2275 179.073C10.2822 179.009 10.3594 178.969 10.4428 178.962C10.5262 178.955 10.6092 178.98 10.674 179.033C10.3489 180.498 9.58527 181.822 8.98607 183.196C7.84251 185.824 6.43656 188.354 5.4614 191.029C4.93347 192.621 4.49288 194.241 4.1416 195.881C3.95362 196.665 4.59981 197.056 5.47314 196.61C6.67545 196.007 7.82293 195.329 8.99782 194.652C12.6008 192.537 16.29 190.586 20.0222 188.714C20.8603 188.291 21.5888 187.622 22.6031 187.594C21.2363 189.447 19.7011 191.166 18.4361 193.077C18.3186 193.257 18.0445 193.336 17.7978 193.426C13.2979 195.282 8.86467 197.311 4.19643 198.74C4.16118 198.787 4.13377 198.877 4.09852 198.936Z" fill="#02204A"/>
<path d="M23.8642 186.114C23.4736 186.084 23.0819 186.153 22.7246 186.313C20.8213 187.332 18.9127 188.342 16.999 189.345C16.529 189.591 16.0199 189.756 15.5577 190.01C12.4247 191.744 9.30993 193.485 6.21344 195.235C6.06462 195.321 5.9158 195.521 5.75523 195.391C5.52808 195.207 5.60249 194.937 5.70823 194.706C6.64031 192.673 7.27476 190.527 8.09718 188.44C8.95877 186.274 9.74203 184.034 10.9443 182.056C11.4809 181.175 12.2876 179.945 13.7288 179.914C12.6088 182.393 11.4848 184.864 10.3765 187.355C10.2511 187.633 9.93393 187.946 10.1415 188.232C10.3491 188.518 10.7368 188.33 11.0462 188.295C13.2628 188.044 15.2288 187.006 17.3123 186.294C19.3957 185.581 21.2795 184.755 23.2455 183.944C24.4204 183.458 25.2467 182.511 26.1239 181.633C26.7858 181.524 27.0482 180.623 27.8432 180.776C26.9581 182.922 25.2584 184.394 23.8642 186.114Z" fill="#02204A"/>
<path d="M164.917 155.03C163.945 154.717 164.368 154.044 164.564 153.464C164.685 153.204 164.887 152.989 165.14 152.853C166.397 152.105 167.407 151.055 168.539 150.162C170.274 148.792 171.257 148.894 172.569 149.928C172.705 150.043 172.863 150.131 173.033 150.185C173.203 150.239 173.382 150.26 173.56 150.245C173.496 151.208 173.065 152.11 172.358 152.767C169.976 153.863 167.392 154.259 164.917 155.03Z" fill="#73A6D2"/>
<path d="M76.6654 10.3969C76.1132 7.79254 76.1014 5.22344 77.1353 2.72875C77.1971 2.55866 77.3015 2.40733 77.4387 2.28935C77.5759 2.17137 77.7412 2.09071 77.9186 2.05515C78.0882 2.02944 78.2615 2.06409 78.4081 2.15305C78.5765 2.27054 78.5296 2.47027 78.4081 2.62693C77.2333 4.29527 77.4134 6.27301 77.1393 8.14501C77.0296 8.90085 77.1706 9.69586 76.6654 10.3969Z" fill="#465070"/>
<path d="M109.796 21.1431C110.971 18.3351 110.243 15.9697 109.119 13.6473C109.017 13.4398 108.704 13.1421 109.087 12.9228C109.295 12.8053 109.479 13.0168 109.624 13.1695C111.108 14.6303 111.754 18.1863 110.865 20.0661C110.781 20.3154 110.641 20.542 110.456 20.7287C110.271 20.9154 110.045 21.0571 109.796 21.1431Z" fill="#394466"/>
<path d="M113.466 19.0403C113.278 18.8405 113.403 18.6486 113.466 18.4528C114.21 16.5182 113.744 14.6814 113.039 12.8643C112.961 12.6645 112.812 12.4726 112.757 12.2925C112.635 11.8695 112.095 11.2429 112.444 11.0745C113.062 10.773 113.274 11.568 113.513 11.9831C114.617 13.8942 115.189 15.8994 114.296 18.073C114.084 18.633 114.045 18.6526 113.466 19.0403Z" fill="#394466"/>
<path d="M80.3701 8.41901C80.0333 6.14363 80.0921 4.08757 81.0085 2.12158C81.22 1.66729 81.5724 1.13468 82.1364 1.47539C82.7003 1.81611 82.1364 2.18425 81.9641 2.53671C81.2709 4.00533 81.0986 5.60318 80.8518 7.18146C80.797 7.54567 80.9145 7.97255 80.3701 8.41901Z" fill="#394466"/>
<path d="M19.0465 171.396C19.023 171.569 19.0935 171.788 18.8194 171.823C18.6549 171.565 18.9134 171.51 19.0465 171.396Z" fill="#02113C"/>
<path d="M27.7954 180.795C27.8542 180.741 27.909 180.682 27.9638 180.623C27.909 180.682 27.8502 180.741 27.7954 180.795Z" fill="#02204A"/>
<path d="M160.609 76.516C156.532 73.9821 155.036 69.8778 153.916 65.5503C153.865 65.3466 153.795 65.1587 153.732 64.9433C153.782 64.1271 153.733 63.3079 153.587 62.5034C153.215 60.5453 153.877 58.6811 154.323 56.8443C154.695 55.3366 155.052 53.7857 155.854 52.3876C158.747 47.3355 163.041 44.2351 168.735 43.0864C168.87 43.0456 169.001 42.9918 169.126 42.9258C171.3 43.0903 173.117 43.8814 174.37 45.7769C176.25 48.6318 179.504 50.4764 183.436 49.1449C183.643 49.0989 183.855 49.0766 184.067 49.0783C184.674 49.7872 185.633 50.0574 186.213 50.8093C188.68 53.9776 189.322 57.5258 188.621 61.4225C188.414 62.5974 187.713 63.5569 187.548 64.72C187.503 64.9456 187.515 65.179 187.583 65.3987C187.652 65.6184 187.774 65.8174 187.94 65.9772C188.117 66.1304 188.339 66.2208 188.573 66.2342C188.807 66.2477 189.039 66.1835 189.232 66.0516C189.668 65.8213 190.157 65.708 190.65 65.7226C191.229 66.156 191.808 66.592 192.385 67.0307C192.345 70.2577 189.612 73.144 186.463 73.2184C186.234 73.2161 186.008 73.264 185.799 73.3588C185.591 73.4535 185.406 73.5927 185.257 73.7667C183.876 75.4329 182.146 76.7764 180.19 77.7026C179.986 77.7674 179.799 77.8751 179.641 78.0183C179.483 78.1615 179.358 78.337 179.273 78.5329C178.58 78.5329 177.95 78.5838 178.138 79.5903C178.161 79.7529 178.136 79.9188 178.066 80.0676C177.997 80.2164 177.886 80.3418 177.746 80.4284C176.696 81.0667 175.788 81.9283 174.492 82.1476C171.454 82.7162 168.32 82.4565 165.418 81.3957C164.188 80.9375 162.806 80.3579 162.72 78.9754C162.645 77.4167 161.596 77.0917 160.609 76.516ZM165.061 47.1671L165.042 47.1906C166.24 46.9792 167.392 46.4857 168.668 46.9674C169.244 47.1867 169.643 47.6528 170.211 47.8603C170.517 47.9739 170.795 48.1619 171.065 47.8368C171.191 47.7081 171.261 47.5352 171.261 47.3551C171.261 47.1751 171.191 47.0022 171.065 46.8734C170.865 46.6296 170.627 46.4194 170.36 46.2507C168.731 45.2677 167.023 45.2716 165.269 45.91C164.744 45.6672 164.302 45.7769 164.094 46.3251C163.867 46.9792 164.525 46.9713 164.858 47.2024C164.93 47.2189 165.006 47.2063 165.069 47.1671H165.061ZM181.118 60.0635L181.141 59.4448C181.674 59.6758 182.171 59.3586 182.688 59.3469C182.76 59.3499 182.831 59.3377 182.897 59.3111C182.963 59.2845 183.023 59.2442 183.073 59.1927C183.123 59.1413 183.161 59.0799 183.185 59.0126C183.209 58.9454 183.218 58.8737 183.213 58.8025C183.213 58.4774 182.954 58.3325 182.657 58.2699C182.112 58.1563 181.631 58.4187 181.122 58.5244C179.641 56.6564 178.251 56.4919 176.344 57.9957C174.942 59.0595 173.979 60.6007 173.638 62.3272C173.426 63.4002 173.36 64.5908 174.421 65.3506C175.482 66.1103 176.602 65.8518 177.632 65.284C178.307 64.8952 178.906 64.387 179.399 63.784C180.182 62.8794 180.507 61.7554 181.137 60.7881C181.516 60.9666 181.943 61.0135 182.351 60.9212C182.696 60.8351 183.103 60.7802 183.064 60.322C183.025 59.8638 182.582 59.8795 182.246 59.8403C181.861 59.8081 181.476 59.8855 181.133 60.0635H181.118ZM165.277 51.3341C165.277 51.5769 165.104 51.6709 164.885 51.6983C164.829 51.369 164.701 51.056 164.511 50.7813C164.321 50.5066 164.073 50.2769 163.785 50.1083C163.702 50.0412 163.599 50.0045 163.493 50.0045C163.387 50.0045 163.284 50.0412 163.201 50.1083C163.11 50.1632 163.042 50.2498 163.01 50.3516C162.978 50.4534 162.985 50.5633 163.029 50.6605C163.303 51.3341 163.503 52.0782 164.415 52.1604C163.308 53.2128 162.518 54.5547 162.136 56.0337C161.811 57.3495 162.16 58.6968 162.962 59.2529C163.765 59.809 165.359 59.6445 166.393 58.9552C167.569 58.1418 168.494 57.0159 169.064 55.7047C170.415 52.7596 169.35 50.7623 166.53 50.825C166.303 50.4333 166.099 50.0417 165.845 49.6697C165.808 49.5994 165.758 49.5371 165.697 49.4864C165.636 49.4357 165.565 49.3976 165.49 49.3743C165.414 49.3509 165.334 49.3429 165.255 49.3506C165.177 49.3583 165.1 49.3815 165.03 49.419C164.725 49.5835 164.779 49.8968 164.862 50.1631C164.983 50.5508 165.136 50.9425 165.277 51.3341ZM174.895 71.648C174.895 70.3399 174.092 69.1964 172.721 68.6442C171.633 68.2399 170.575 67.7569 169.557 67.1991C168.774 66.733 167.854 66.5568 167.012 65.9733C165.907 65.2096 164.631 64.6809 163.605 63.7175C162.579 62.754 161.498 62.6718 160.726 63.4237C159.649 64.4733 159.015 65.7735 159.211 67.34C159.5 69.6663 160.961 71.2564 162.669 72.6467C165.477 74.9377 168.562 75.9638 172.165 74.7223C174.073 74.0487 174.871 73.1949 174.895 71.6284V71.648ZM181.427 52.6147C180.898 52.5325 180.562 52.5795 180.448 53.0259C180.335 53.4724 180.644 53.7191 181 53.7779C182.68 54.0481 183.789 54.8862 184.047 56.6524C184.086 56.825 184.171 56.9836 184.294 57.1107C184.374 57.2063 184.483 57.2737 184.604 57.3026C184.725 57.3315 184.853 57.3205 184.967 57.2712C185.234 57.1498 185.261 56.9031 185.234 56.6368C185.014 54.565 183.323 52.8145 181.427 52.5951V52.6147ZM160.46 51.1148C160.685 51.1943 160.932 51.1847 161.151 51.0879C161.369 50.991 161.542 50.8143 161.635 50.5939C161.943 49.9962 162.365 49.4642 162.876 49.0274C163.236 48.6945 163.577 48.2755 163.201 47.8525C163.108 47.7561 162.997 47.6794 162.874 47.627C162.751 47.5746 162.618 47.5476 162.485 47.5476C162.351 47.5476 162.218 47.5746 162.095 47.627C161.972 47.6794 161.861 47.7561 161.768 47.8525C160.979 48.5063 160.347 49.3278 159.916 50.2571C159.622 50.8602 159.626 51.2675 160.46 51.0952V51.1148ZM167.564 62.6757C167.513 63.4042 167.701 64.0308 168.371 64.4067C168.712 64.6022 169.098 64.705 169.491 64.705C169.884 64.705 170.27 64.6022 170.611 64.4067C170.873 64.2736 171.112 64.0817 171.002 63.741C170.885 63.3141 170.536 63.3807 170.219 63.4394C168.676 63.7096 168.676 63.7135 168.519 62.053C168.496 61.8102 168.519 61.5204 168.171 61.4969C168.051 61.4953 167.934 61.5354 167.841 61.6104C167.747 61.6855 167.682 61.7907 167.658 61.9081C167.606 62.1544 167.574 62.4046 167.564 62.6561V62.6757Z" fill="#8ABDE9"/>
<path d="M136.199 105.065C134.26 104.893 132.376 104.329 130.662 103.406C128.948 102.482 127.44 101.22 126.229 99.696C125.191 98.4153 125.187 96.8841 125.496 95.345C125.547 95.0747 125.437 94.6244 125.907 94.593C126.276 94.5695 126.46 94.8868 126.608 95.1648C127.178 96.3518 127.991 97.4058 128.993 98.2587C131.488 100.197 133.384 100.683 135.871 99.1242C138.048 97.7652 140.253 97.1661 142.65 98.6033C143.633 99.1908 143.926 99.9623 143.476 101.008C142.101 104.223 139.297 104.838 136.199 105.065Z" fill="#AD0001"/>
<path d="M127.274 92.0634C127.337 87.779 129.933 85.2295 133.368 83.3105C134.104 82.8993 134.817 82.304 135.812 82.4136C136.595 82.4959 137.32 82.6643 137.684 83.3927C137.884 83.7753 137.958 84.2109 137.897 84.6382C137.836 85.0654 137.642 85.4627 137.343 85.7738C136.626 86.6041 135.777 87.2503 134.602 87.1054C131.86 86.7725 130.349 88.7698 129.816 91.5739C129.743 92.0305 129.743 92.4958 129.816 92.9524C129.914 93.7122 129.647 94.2135 128.896 94.3662C128.523 94.4016 128.15 94.2932 127.855 94.0631C127.559 93.8331 127.363 93.4988 127.306 93.1287C127.275 92.7744 127.265 92.4188 127.274 92.0634Z" fill="#E9E4E4"/>
<path d="M180.268 131.465C181.29 131.556 182.042 131.575 182.774 131.7C183.161 131.763 183.53 131.903 183.861 132.112C184.192 132.32 184.478 132.593 184.701 132.914C184.867 133.106 184.968 133.345 184.99 133.598C185.012 133.85 184.953 134.103 184.823 134.32C184.69 134.531 184.488 134.689 184.251 134.767C184.015 134.844 183.758 134.838 183.526 134.747C182.994 134.602 182.422 134.555 181.87 134.446C180.452 134.16 179.52 135.018 178.686 135.969C177.849 136.979 176.908 137.898 175.878 138.711C175.693 138.872 175.484 139.004 175.259 139.102C174.758 139.255 174.194 139.886 173.74 139.341C173.285 138.797 173.477 138.049 173.861 137.54C175.182 135.735 176.621 134.02 178.169 132.405C178.792 131.783 179.575 131.352 180.268 131.465Z" fill="#E9E4E4"/>
<path d="M145.308 116.31C145.261 113.205 147.658 109.907 150.54 109.014C151.132 108.83 151.778 108.822 152.213 109.347C152.426 109.591 152.553 109.899 152.573 110.223C152.593 110.547 152.505 110.869 152.322 111.137C151.821 111.948 151.363 112.778 150.153 112.739C149.545 112.719 148.555 114.395 148.629 115.186C148.694 115.921 148.694 116.66 148.629 117.395C148.612 117.832 148.433 118.247 148.128 118.56C147.823 118.873 147.413 119.062 146.976 119.091C146.005 119.197 145.802 118.515 145.629 117.799C145.492 117.246 145.386 116.694 145.308 116.31Z" fill="#E9E4E4"/>
<path d="M141.513 82.7397C140.978 82.746 140.446 82.6503 139.947 82.4577C139.756 82.4068 139.589 82.2901 139.476 82.1281C139.363 81.9662 139.31 81.7694 139.328 81.5726C139.333 81.3744 139.411 81.185 139.547 81.0405C139.683 80.896 139.867 80.8066 140.064 80.7894C140.299 80.7104 140.547 80.6836 140.793 80.711C141.238 80.8254 141.704 80.8318 142.152 80.7296C142.601 80.6274 143.018 80.4197 143.37 80.1236C143.848 79.779 144.251 79.6889 144.654 80.1628C145.058 80.6366 144.925 81.0831 144.541 81.5687C143.746 82.583 142.633 82.6653 141.513 82.7397Z" fill="#E9E4E4"/>
<path d="M102.039 125.353C100.441 123.939 98.5139 123.026 96.7319 121.887C98.4677 122.263 100.092 123.04 101.475 124.154C101.666 124.287 101.819 124.467 101.918 124.678C102.017 124.888 102.058 125.121 102.039 125.353Z" fill="#AD0102"/>
<path d="M95.6627 121.505C95.5364 121.524 95.4076 121.511 95.2874 121.468C95.1673 121.425 95.0595 121.353 94.9734 121.259C95.2358 121.255 95.5256 121.161 95.6627 121.505Z" fill="#AD0102"/>
<path d="M96.3127 121.71C96.0856 121.656 95.8036 121.773 95.6548 121.491C95.9093 121.46 96.1757 121.385 96.3127 121.71Z" fill="#AD0102"/>
<path d="M96.7514 121.898C96.583 121.863 96.3598 121.937 96.2854 121.698C96.4812 121.671 96.6575 121.683 96.7514 121.898Z" fill="#AD0102"/>
<path d="M91.633 125.494C92.569 125.631 93.4697 125.376 94.3743 125.232C95.9212 124.977 98.3218 125.909 99.1403 127.19C99.5711 127.852 99.2461 128.302 98.6038 128.478C97.7932 128.697 96.9512 128.803 96.1249 128.96C94.7656 128.699 93.3712 128.68 92.005 128.901C90.2114 129.124 88.3865 129.046 86.585 129.073C83.6127 129.116 80.7773 129.857 77.8755 130.248C73.9549 130.809 70.0671 131.579 66.2287 132.555C63.0915 133.288 60.3396 135.163 58.5099 137.815C57.386 139.401 56.2581 140.979 55.142 142.569C54.7173 143.143 54.1116 143.557 53.4228 143.744C52.2127 144.136 51.4647 143.603 51.4961 142.318C51.5653 140.785 52.1254 139.315 53.0939 138.124C55.368 135.03 58.2506 132.434 61.5646 130.495C63.8829 129.148 66.5029 128.619 69.0993 128.055C74.3887 126.908 79.7729 126.253 85.183 126.097C87.3409 126.038 89.483 125.705 91.633 125.494Z" fill="#E8E8E9"/>
<path d="M92.3262 87.5014C90.7127 87.5994 89.5574 86.397 88.316 85.5237C85.3906 83.4716 82.6414 81.1766 79.7826 79.0422C77.4094 77.272 74.7582 75.8191 71.68 75.6115C70.2585 75.5175 69.0954 76.2656 68.0145 77.0997C67.4012 77.6396 66.7158 78.0917 65.9781 78.443C64.6779 78.9639 63.8359 78.8072 63.1075 77.8986C62.5749 77.2368 62.6963 75.9405 63.4717 75.0476C64.4978 73.8727 65.6295 72.8349 67.1686 72.2748C68.4518 71.771 69.7784 71.3856 71.1318 71.1234C71.4816 71.088 71.8346 71.0999 72.1813 71.1587C76.0192 71.4759 78.9955 73.5986 81.9169 75.8034C84.8384 78.0083 87.8186 80.2132 90.9242 82.2027C91.7453 82.7683 92.4835 83.4458 93.1172 84.2157C93.8535 85.0459 93.8495 86.0093 93.4853 87.0041C93.2974 87.5093 92.9018 87.5719 92.3262 87.5014Z" fill="#E8E8E9"/>
<path d="M61.6547 84.2618C61.4432 86.4118 60.9302 88.3583 59.3637 89.8856C59.1881 90.0881 58.9515 90.2282 58.6895 90.2847C58.4274 90.3412 58.1542 90.3111 57.9107 90.1989C57.6827 90.0913 57.497 89.9109 57.3829 89.6861C57.2687 89.4614 57.2326 89.205 57.2802 88.9575C57.632 87.0747 58.4015 85.2948 59.5321 83.7488C59.7151 83.5273 59.9604 83.366 60.2363 83.2857C60.5121 83.2053 60.8057 83.2098 61.079 83.2984C61.592 83.4198 61.5529 83.9367 61.6547 84.2618Z" fill="#E8E8E9"/>
<path d="M48.3045 147.844C48.3045 148.577 47.0121 150.327 46.0761 150.605C45.2693 150.844 44.6858 150.453 44.6897 149.673C44.7269 148.985 44.9834 148.328 45.4218 147.796C45.8602 147.265 46.4574 146.888 47.1257 146.72C47.8228 146.583 48.328 146.752 48.3045 147.844Z" fill="#E6E7E7"/>
<path d="M190.642 65.7151C190.149 65.7004 189.661 65.8138 189.224 66.0441C189.031 66.176 188.799 66.2402 188.566 66.2267C188.332 66.2132 188.109 66.1229 187.932 65.9697C187.767 65.8098 187.644 65.6109 187.575 65.3912C187.507 65.1715 187.495 64.9381 187.54 64.7125C187.705 63.5376 188.406 62.5781 188.614 61.415C189.315 57.4987 188.672 53.974 186.205 50.8018C185.618 50.0499 184.666 49.7796 184.059 49.0708C184.255 48.9227 184.485 48.8264 184.728 48.7908C184.971 48.7552 185.219 48.7815 185.449 48.8671C187.507 49.4227 189.312 50.6667 190.564 52.3918C191.911 54.3069 191.696 56.4452 190.732 58.3485C189.471 60.8706 189.017 63.2361 190.642 65.7151Z" fill="#02113C"/>
<path d="M159.489 37.7295C159.469 36.5311 160.628 35.1565 161.788 35.0194C162.301 34.9568 162.771 35.1017 162.861 35.6461C162.951 36.1904 162.449 36.2531 162.077 36.2648C161.04 36.2923 160.93 37.0755 160.809 37.8079C160.73 38.2817 160.64 38.6773 160.061 38.5911C159.559 38.5441 159.473 38.1525 159.489 37.7295Z" fill="#E9E4E4"/>
<path d="M152.017 37.9759C152.017 36.6522 152.972 35.489 154.057 35.4342C154.331 35.4342 154.656 35.3598 154.778 35.7162C154.899 36.0725 154.691 36.2566 154.406 36.3741C154.067 36.4698 153.777 36.6902 153.594 36.9909C153.411 37.2917 153.348 37.6505 153.419 37.9955C153.458 38.4458 153.477 39.3779 152.729 39.3309C152.056 39.2878 151.993 38.5046 152.017 37.9759Z" fill="#E9E4E4"/>
<path d="M174.895 71.6288C174.872 73.1953 174.073 74.0413 172.154 74.6992C168.551 75.9407 165.465 74.9146 162.657 72.6236C160.949 71.2254 159.489 69.6432 159.199 67.317C159.003 65.7504 159.637 64.4541 160.714 63.4007C161.498 62.6487 162.579 62.7427 163.593 63.6944C164.607 64.646 165.896 65.1865 167 65.9502C167.842 66.5337 168.747 66.7099 169.546 67.176C170.564 67.7338 171.622 68.2168 172.71 68.6211C174.093 69.1772 174.911 70.3208 174.895 71.6288ZM169.311 73.3677C169.616 73.5134 169.949 73.5916 170.286 73.597C170.624 73.6025 170.959 73.5349 171.269 73.399L171.704 73.352C172.149 73.3008 172.569 73.1181 172.91 72.8272C174.241 72.0009 174.351 71.151 173.258 70.2111C172.828 69.6472 172.197 69.7568 171.61 69.7098L171.218 69.6667C169.718 69.7333 168.371 69.138 166.992 68.6837C166.405 67.9475 165.767 67.2778 164.819 67.0115C164.819 66.1342 164.259 65.6643 163.534 65.3236C163.268 65.0573 163.013 64.7753 162.727 64.5403C162.379 64.2387 162.011 64.1134 161.666 64.5638C161.243 64.8065 160.896 65.1622 160.664 65.591C160.431 66.0199 160.323 66.5049 160.35 66.9919C160.317 67.2901 160.349 67.592 160.445 67.8763C160.541 68.1606 160.699 68.4202 160.906 68.6368C160.908 68.7647 160.943 68.8899 161.008 68.9999C161.074 69.1099 161.167 69.2008 161.278 69.2634C161.383 69.5632 161.546 69.8394 161.757 70.076C161.969 70.3126 162.226 70.5049 162.512 70.6419L162.904 70.9474C163.487 71.5104 164.188 71.9371 164.956 72.1967L165.183 72.322C165.773 72.7181 166.456 72.9555 167.165 73.0113L167.537 73.0661C167.796 73.2348 168.087 73.3485 168.393 73.4004C168.698 73.4523 169.01 73.4411 169.311 73.3677Z" fill="#D82227"/>
<path d="M166.53 50.8139C169.35 50.7513 170.415 52.7486 169.064 55.6937C168.494 57.0049 167.569 58.1307 166.393 58.9442C165.359 59.6374 163.761 59.794 162.962 59.2418C162.163 58.6896 161.811 57.3385 162.136 56.0226C162.515 54.5348 163.307 53.1842 164.419 52.1259L164.889 51.6794C165.105 51.652 165.261 51.558 165.281 51.3152C165.738 51.2768 166.173 51.1021 166.53 50.8139ZM167.431 53.5553C167.431 52.8073 166.957 52.5214 166.217 52.9013C164.936 53.5671 164.317 54.7498 164.008 56.0814C163.843 56.7746 164.47 57.1779 165.183 56.9155C166.115 56.5552 167.435 54.601 167.431 53.5514V53.5553Z" fill="#E6E7E7"/>
<path d="M181.157 59.445L181.133 60.0637C181.133 60.3065 181.133 60.5454 181.133 60.7883C180.503 61.7556 180.162 62.8796 179.395 63.7842C178.902 64.3872 178.303 64.8954 177.628 65.2842C176.598 65.852 175.459 66.1144 174.417 65.3508C173.375 64.5871 173.438 63.3926 173.634 62.3274C173.979 60.5966 174.949 59.0534 176.36 57.992C178.267 56.4881 179.657 56.6526 181.137 58.5207C181.041 58.8224 181.048 59.1476 181.157 59.445ZM178.952 59.9502C178.972 59.0024 178.51 58.693 177.777 59.0612C176.481 59.7073 175.866 60.8979 175.537 62.2216C175.353 62.9736 176.027 63.3965 176.755 63.044C178.083 62.3822 178.58 61.1251 178.952 59.9502Z" fill="#E6E7E7"/>
<path d="M165.285 45.9091C167.027 45.2707 168.735 45.2668 170.376 46.2498C170.642 46.4185 170.88 46.6287 171.081 46.8725C171.206 47.0013 171.277 47.1742 171.277 47.3542C171.277 47.5343 171.206 47.7072 171.081 47.8359C170.81 48.161 170.532 47.973 170.227 47.8594C169.659 47.6519 169.26 47.1858 168.684 46.9665C167.415 46.4848 166.256 46.9665 165.057 47.1897C165.27 46.7987 165.349 46.3493 165.285 45.9091Z" fill="#090C0F"/>
<path d="M181.427 52.5958C183.303 52.8151 185.014 54.554 185.234 56.6179C185.261 56.8842 185.234 57.1309 184.967 57.2523C184.853 57.3016 184.725 57.3126 184.604 57.2837C184.483 57.2548 184.374 57.1874 184.294 57.0917C184.171 56.9647 184.086 56.8061 184.047 56.6335C183.789 54.8673 182.68 54.0292 181 53.759C180.644 53.7002 180.327 53.4692 180.448 53.007C180.569 52.5449 180.898 52.5097 181.427 52.5958Z" fill="#090C0F"/>
<path d="M160.46 51.0945C159.626 51.2668 159.622 50.8595 159.908 50.2408C160.339 49.3115 160.972 48.49 161.76 47.8362C161.853 47.7397 161.964 47.663 162.087 47.6106C162.211 47.5583 162.343 47.5312 162.477 47.5312C162.611 47.5312 162.743 47.5583 162.866 47.6106C162.989 47.663 163.101 47.7397 163.194 47.8362C163.585 48.2591 163.229 48.6782 162.868 49.0111C162.357 49.4478 161.935 49.9799 161.627 50.5776C161.534 50.7954 161.362 50.9699 161.145 51.0658C160.929 51.1618 160.684 51.172 160.46 51.0945Z" fill="#E6E7E7"/>
<path d="M167.564 62.6557C167.574 62.4042 167.606 62.154 167.658 61.9077C167.677 61.7825 167.741 61.6687 167.839 61.5878C167.936 61.507 168.06 61.4647 168.186 61.4691C168.539 61.4926 168.511 61.7824 168.535 62.0252C168.692 63.6857 168.692 63.6818 170.235 63.4115C170.556 63.3528 170.904 63.2862 171.018 63.7131C171.116 64.0538 170.877 64.2457 170.626 64.3789C170.285 64.5743 169.899 64.6772 169.506 64.6772C169.113 64.6772 168.727 64.5743 168.386 64.3789C167.701 64.0107 167.513 63.3841 167.564 62.6557Z" fill="#030508"/>
<path d="M164.889 51.6782L164.419 52.1246C163.507 52.0424 163.307 51.2983 163.033 50.6247C162.989 50.5275 162.982 50.4176 163.014 50.3158C163.045 50.214 163.114 50.1274 163.205 50.0725C163.287 50.0054 163.39 49.9688 163.497 49.9688C163.603 49.9688 163.706 50.0054 163.789 50.0725C164.079 50.2427 164.328 50.4749 164.518 50.7524C164.708 51.03 164.835 51.3461 164.889 51.6782Z" fill="#0A3D68"/>
<path d="M181.157 59.445C181.049 59.1489 181.042 58.8252 181.137 58.5247C181.646 58.419 182.128 58.1566 182.672 58.2701C182.97 58.3328 183.225 58.4777 183.228 58.8028C183.234 58.874 183.225 58.9456 183.2 59.0129C183.176 59.0801 183.138 59.1415 183.089 59.193C183.039 59.2444 182.979 59.2848 182.913 59.3113C182.846 59.3379 182.775 59.3501 182.704 59.3471C182.187 59.3589 181.689 59.6761 181.157 59.445Z" fill="#0A3D68"/>
<path d="M181.137 60.7889C181.137 60.5461 181.137 60.3072 181.137 60.0643C181.479 59.8863 181.865 59.8089 182.249 59.8411C182.586 59.8803 183.033 59.8724 183.068 60.3228C183.103 60.7732 182.7 60.8359 182.355 60.922C181.946 61.0152 181.517 60.9683 181.137 60.7889Z" fill="#0A3D68"/>
<path d="M166.53 50.8132C166.172 51.1021 165.735 51.2768 165.277 51.3145C165.136 50.9228 164.983 50.5312 164.862 50.1396C164.779 49.8733 164.725 49.56 165.03 49.3955C165.1 49.358 165.176 49.3347 165.255 49.327C165.334 49.3194 165.414 49.3274 165.49 49.3507C165.565 49.374 165.636 49.4121 165.697 49.4629C165.758 49.5136 165.808 49.5759 165.845 49.6461C166.091 50.0221 166.303 50.4255 166.53 50.8132Z" fill="#0A3D68"/>
<path d="M165.285 45.9092C165.347 46.3503 165.265 46.7997 165.05 47.1899L165.069 47.1664C165.045 47.1886 165.016 47.2038 164.984 47.21C164.952 47.2162 164.919 47.2133 164.889 47.2016C164.556 46.9706 163.898 46.9784 164.125 46.3244C164.317 45.7761 164.76 45.6664 165.285 45.9092Z" fill="#E6E7E7"/>
<path d="M164.889 47.2032C164.919 47.2149 164.952 47.2178 164.984 47.2116C165.016 47.2053 165.046 47.1902 165.069 47.168C165.015 47.1995 164.951 47.2119 164.889 47.2032Z" fill="#090C0F"/>
<path d="M173.274 70.2099C174.367 71.1498 174.257 71.9996 172.926 72.826C172.769 72.4109 172.483 72.1955 172.044 72.3834C171.606 72.5714 171.59 72.9474 171.719 73.3508L171.285 73.3978C171.285 73.0061 171.097 72.8417 170.713 72.6811C170.192 72.4657 169.789 72.8926 169.326 72.7751C168.484 71.7842 168.101 71.843 167.58 73.0492L167.208 72.9944C167.384 71.9566 166.867 71.4279 165.845 71.5884C165.594 71.6315 165.367 71.9409 165.093 71.6433C165.148 70.9266 164.631 70.6485 164.102 70.4449C163.887 70.3644 163.65 70.3682 163.438 70.4553C163.226 70.5425 163.055 70.7066 162.959 70.9148L162.567 70.6094C162.865 70.0337 163.084 69.4345 162.477 68.941C162.023 68.569 161.647 68.8549 161.333 69.2308C161.222 69.1682 161.129 69.0774 161.063 68.9674C160.998 68.8574 160.963 68.7321 160.961 68.6042C161.744 67.7113 161.623 67.3588 160.405 66.9594C160.377 66.4724 160.486 65.9873 160.718 65.5585C160.951 65.1297 161.298 64.774 161.721 64.5312C161.744 65.7453 161.878 65.8432 163.287 65.6826C162.931 67.3627 163.209 67.7622 164.462 67.3627C164.658 69.4697 165.152 69.8339 166.781 69.0663C166.389 69.7008 166.64 70.1355 167.231 70.4605C167.823 70.7856 168.508 71.1772 168.986 70.1825C169.279 70.7112 169.33 71.3339 170 71.2712C170.552 71.2164 171.034 71.001 171.175 70.3783C171.23 70.1355 171.261 69.8927 171.3 69.6499L171.692 69.6929C171.433 70.2138 171.48 70.6877 172.06 70.9148C172.659 71.1929 173.047 70.8091 173.274 70.2099Z" fill="#0C1A43"/>
<path d="M171.245 69.6666C171.206 69.9094 171.175 70.1522 171.12 70.395C170.979 71.0177 170.497 71.2331 169.945 71.2879C169.275 71.3506 169.224 70.7279 168.931 70.1992C168.453 71.1939 167.811 70.8297 167.176 70.4772C166.542 70.1248 166.346 69.7175 166.726 69.083L167.019 68.6914C168.398 69.1379 169.745 69.741 171.245 69.6666Z" fill="#DACCC5"/>
<path d="M167.02 68.684L166.726 69.0756C165.097 69.8589 164.603 69.4673 164.407 67.372C164.427 67.1018 164.603 67.0157 164.846 67.0039C165.794 67.278 166.432 67.9477 167.02 68.684Z" fill="#D0C2BD"/>
<path d="M164.846 66.9985C164.603 66.9985 164.427 67.0964 164.407 67.3667C163.166 67.7583 162.888 67.3666 163.232 65.6866L163.55 65.2949C164.286 65.6631 164.834 66.133 164.846 66.9985Z" fill="#DACCC5"/>
<path d="M165.093 71.6448C165.367 71.9424 165.594 71.6448 165.845 71.59C166.867 71.4255 167.384 71.9581 167.207 72.9959C166.499 72.9402 165.816 72.7028 165.226 72.3067C165.183 72.1774 165.324 71.9581 165.053 71.915L165.093 71.6448Z" fill="#D0C2BD"/>
<path d="M165.093 71.6444L165.053 71.9303L164.999 72.1809C164.233 71.9152 163.537 71.4832 162.958 70.916C163.052 70.7022 163.224 70.5325 163.439 70.4421C163.654 70.3517 163.895 70.3475 164.114 70.4303C164.631 70.6496 165.147 70.9159 165.093 71.6444Z" fill="#DACCC5"/>
<path d="M163.561 65.3223L163.244 65.714C161.85 65.8745 161.717 65.7766 161.678 64.5626C162.022 64.1122 162.39 64.2375 162.739 64.5391C163.041 64.7741 163.295 65.0404 163.561 65.3223Z" fill="#D0C2BD"/>
<path d="M161.306 69.2464C161.619 68.8547 161.995 68.5845 162.449 68.9566C163.056 69.4539 162.841 70.0492 162.539 70.6249C162.253 70.4879 161.996 70.2956 161.785 70.059C161.573 69.8224 161.41 69.5462 161.306 69.2464Z" fill="#D0C2BD"/>
<path d="M173.274 70.2103C173.046 70.8095 172.659 71.1933 171.993 70.9309C171.413 70.7037 171.366 70.2299 171.625 69.709C172.212 69.7403 172.843 69.6463 173.274 70.2103Z" fill="#D0C2BD"/>
<path d="M167.579 73.0497C168.1 71.8435 168.484 71.7847 169.326 72.7755C169.326 72.9714 169.326 73.1672 169.326 73.3669C169.029 73.4342 168.72 73.4408 168.42 73.3863C168.12 73.3318 167.834 73.2173 167.579 73.0497Z" fill="#DACCC5"/>
<path d="M169.31 73.3662C169.31 73.1704 169.31 72.9746 169.31 72.7749C169.772 72.8923 170.176 72.4655 170.697 72.6809C171.088 72.8414 171.268 73.0059 171.268 73.3975C170.959 73.5335 170.624 73.601 170.286 73.5956C169.948 73.5902 169.615 73.512 169.31 73.3662Z" fill="#D0C2BD"/>
<path d="M160.378 66.9766C161.596 67.3682 161.713 67.7285 160.934 68.6214C160.726 68.4049 160.569 68.1452 160.472 67.861C160.376 67.5767 160.344 67.2747 160.378 66.9766Z" fill="#D0C2BD"/>
<path d="M171.719 73.3506C171.59 72.959 171.613 72.5674 172.044 72.3833C172.475 72.1992 172.768 72.4107 172.925 72.8258C172.584 73.1167 172.164 73.2994 171.719 73.3506Z" fill="#D0C2BD"/>
<path d="M164.999 72.1803L165.054 71.9297C165.324 71.9571 165.183 72.1764 165.226 72.3213L164.999 72.1803Z" fill="#0C1A43"/>
<path d="M167.431 53.5497C167.431 54.5993 166.115 56.5535 165.167 56.9099C164.47 57.1723 163.843 56.7689 163.992 56.0757C164.302 54.7442 164.92 53.5615 166.201 52.8957C166.957 52.508 167.431 52.8017 167.431 53.5497Z" fill="#030508"/>
<path d="M178.952 59.9508C178.58 61.0983 178.083 62.3711 176.751 63.0447C176.023 63.4167 175.349 62.9742 175.533 62.2223C175.862 60.8986 176.477 59.708 177.773 59.0618C178.51 58.7054 178.972 59.0148 178.952 59.9508Z" fill="#030508"/>
</g>
<defs>
<clipPath id="clip0_117_96">
<rect width="214.92" height="200" fill="white" transform="translate(0.0100098)"/>
</clipPath>
</defs>
</svg>
