<svg width="380" height="365" viewBox="0 0 380 365" fill="none" xmlns="http://www.w3.org/2000/svg">
<g clip-path="url(#clip0_117_525)">
<g clip-path="url(#clip1_117_525)">
<g clip-path="url(#clip2_117_525)">
<path d="M99.6642 23.8367C99.6642 10.6805 88.3918 5.17527e-05 74.4687 5.17527e-05C70.0647 -0.00869847 65.7292 1.09229 61.8632 3.2016C57.9951 1.09331 53.6581 -0.00766903 49.2526 5.17527e-05C35.3243 5.17527e-05 24.0416 10.6805 24.0416 23.8367C24.0416 35.9635 45.4797 54.3647 48.8202 57.1545L62.0022 69.6107L78.7048 53.8345C85.8903 47.3233 99.6642 33.5649 99.6642 23.8367Z" fill="#FD4A5C"/>
<path d="M49.2219 0C35.2884 0 24.0006 10.665 24.0006 23.8212C24.0006 36.9774 49.2219 57.5044 49.2219 57.5044C49.2219 57.5044 74.4431 36.9774 74.4431 23.8212C74.4431 10.665 63.1193 0 49.2219 0Z" fill="#D7282F"/>
<path d="M131.427 17.7064L126.28 17.7476C125.855 17.7476 125.505 17.4002 125.503 16.9755V10.7474C125.503 10.3238 125.154 9.97535 124.731 9.97535H117.01C116.586 9.97535 116.238 10.3238 116.238 10.7474V17.7528H112.377C112.278 17.7522 112.187 17.8109 112.146 17.902L108.985 24.6448C108.97 24.6788 108.962 24.7154 108.962 24.7529C108.962 24.8935 109.077 25.0093 109.217 25.0103H115.476C115.898 25.0129 116.243 25.3608 116.243 25.7824V37.5746C116.243 42.3409 118.024 47.869 125.405 47.869C127.537 47.8407 129.64 47.3707 131.582 46.4895C131.933 46.331 132.113 45.9311 131.999 45.563L130.176 39.6386C130.076 39.3107 129.771 39.0858 129.429 39.0858C129.31 39.0858 129.192 39.1131 129.085 39.1651C128.617 39.3915 128.107 39.5161 127.587 39.5305C126.12 39.5305 125.493 38.3261 125.493 35.8091V25.7772C125.493 25.3577 125.835 25.0108 126.254 25.0052L131.427 24.964C131.847 24.9583 132.189 24.6114 132.189 24.1919V18.4734C132.189 18.0544 131.846 17.709 131.427 17.7064Z" fill="white"/>
<path d="M154.276 17.3099C153.791 17.2419 153.303 17.209 152.814 17.2121C150.568 17.2013 148.416 18.1226 146.874 19.7548C145.643 20.9541 144.614 22.3448 143.827 23.8725C143.782 23.9554 143.695 24.0079 143.6 24.0079C143.459 24.0079 143.343 23.8916 143.343 23.7505V23.749V18.015C143.343 17.874 143.227 17.7577 143.086 17.7577H133.954C133.953 17.7577 133.951 17.7577 133.949 17.7577C133.808 17.7577 133.692 17.874 133.692 18.015V45.7481C133.692 45.8922 133.81 46.0106 133.954 46.0106H143.086C143.227 46.0106 143.343 45.8943 143.343 45.7532C143.343 45.7517 143.343 45.7496 143.343 45.7481V34.8463C143.338 34.8155 143.338 34.7846 143.343 34.7537C144.338 32.053 145.367 30.2 146.431 29.1947C147.472 28.2044 148.86 27.6609 150.297 27.6815C151.841 27.6815 153.385 28.3609 154.898 29.7146C154.945 29.7604 155.008 29.7856 155.074 29.7856C155.179 29.7856 155.274 29.7203 155.31 29.6219L157.312 24.377C157.336 24.3136 157.336 24.2447 157.312 24.1814L154.276 17.3099Z" fill="white"/>
<path d="M189.606 17.7475H181.026C180.718 17.7465 180.438 17.9292 180.315 18.2108L174.139 32.5869C174.098 32.6842 174.002 32.7475 173.897 32.7475C173.791 32.7475 173.696 32.6842 173.655 32.5869L167.715 18.2211C167.594 17.9344 167.311 17.7475 167 17.7475H156.134L168.117 43.9982C168.212 44.2056 168.212 44.4445 168.117 44.6519L160.545 60.7369C160.498 60.8388 160.474 60.9494 160.474 61.0611C160.474 61.4868 160.825 61.8379 161.25 61.8384H170.237C170.541 61.8404 170.818 61.6623 170.942 61.3854L190.311 18.8387C190.357 18.7384 190.38 18.6298 190.38 18.5196C190.38 18.096 190.032 17.7475 189.608 17.7475C189.608 17.7475 189.607 17.7475 189.606 17.7475Z" fill="white"/>
<path d="M203.411 28.5565C200.909 27.7587 198.861 27.3058 198.861 25.7719C198.861 24.4079 199.772 24.0064 201.99 24.0064C204.59 24.0064 207.431 25.3138 208.239 25.7153C208.274 25.7312 208.311 25.74 208.349 25.74C208.45 25.74 208.543 25.6798 208.584 25.5866L211.528 19.41C211.545 19.3755 211.554 19.3369 211.554 19.2983C211.554 19.201 211.498 19.112 211.41 19.0703C208.465 17.6795 205.246 16.9671 201.99 16.9857C194.316 16.9857 189.256 20.3982 189.256 26.3638C189.256 30.7389 192.216 32.7875 195.17 34.3214C198.464 36.0251 201.645 36.195 201.645 38.3002C201.645 40.2304 199.942 40.4002 198.521 40.4002C196.092 40.4002 193.245 38.5164 191.974 37.5693C191.842 37.4725 191.683 37.42 191.519 37.42C191.247 37.42 190.994 37.5657 190.857 37.8009L187.552 43.3547C187.338 43.6939 187.424 44.1474 187.748 44.3842C190.864 46.6587 194.633 47.8652 198.49 47.8225C204.456 47.8225 212.3 46.4585 212.3 37.8781C212.274 31.9125 207.271 29.7455 203.411 28.5565Z" fill="white"/>
<path d="M227.999 25.0052L233.146 24.964C233.567 24.9583 233.911 24.6124 233.913 24.1919V18.4785C233.913 18.477 233.913 18.4749 233.913 18.4734C233.913 18.0523 233.567 17.7064 233.146 17.7064C233.143 17.7064 233.14 17.7064 233.136 17.7064L227.989 17.7476C227.987 17.7476 227.985 17.7476 227.984 17.7476C227.56 17.7476 227.212 17.3991 227.212 16.9755V10.7474C227.209 10.3228 226.859 9.97535 226.434 9.97535H218.714C218.29 9.97535 217.942 10.3238 217.942 10.7474V17.7528H214.076C213.975 17.7517 213.882 17.8099 213.839 17.902L210.684 24.6397C210.667 24.6747 210.658 24.7138 210.658 24.7529C210.658 24.894 210.774 25.0103 210.915 25.0103H210.916H217.169C217.593 25.0103 217.942 25.3588 217.942 25.7824V37.5746C217.942 42.3409 219.722 47.869 227.098 47.869C229.23 47.8391 231.333 47.3697 233.275 46.4895C233.626 46.331 233.804 45.93 233.687 45.563L231.916 39.582C231.818 39.2572 231.516 39.0338 231.177 39.0338C231.059 39.0338 230.942 39.0611 230.835 39.1136C230.365 39.3432 229.851 39.4693 229.327 39.4842C227.865 39.4842 227.237 38.2798 227.237 35.7628V25.7772C227.237 25.3577 227.58 25.0108 227.999 25.0052Z" fill="white"/>
<path d="M196.663 68.046C196.663 69.1135 195.785 69.9916 194.717 69.9916C193.65 69.9916 192.772 69.1135 192.772 68.046C192.772 66.9784 193.65 66.1003 194.717 66.1003C195.785 66.1003 196.663 66.9784 196.663 68.046Z" fill="white"/>
<path d="M199.282 53.6801H202.561V69.6364H199.282V53.6801Z" fill="white"/>
<path d="M208.419 56.1819C208.419 57.2494 207.541 58.1275 206.473 58.1275C205.406 58.1275 204.528 57.2494 204.528 56.1819C204.528 55.1144 205.406 54.2363 206.473 54.2363C207.541 54.2363 208.419 55.1144 208.419 56.1819ZM204.785 69.6109H208.064V60.1092H204.785V69.6109Z" fill="white"/>
<path d="M210.385 60.1091H213.664V61.1076H213.7C214.402 60.3381 215.382 59.8785 216.423 59.8311C218.163 59.8311 220.592 60.701 220.592 63.3518V69.6108H217.313V64.2371C217.315 64.2062 217.316 64.1748 217.316 64.1434C217.316 63.1984 216.555 62.413 215.61 62.3841C214.591 62.4196 213.749 63.2206 213.664 64.2371V69.6108H210.385V60.1091Z" fill="white"/>
<path d="M228.967 64.6488L233.934 69.6106H229.708L225.909 65.812V69.6106H222.631V53.6801H225.909V63.4237L229.229 60.1089H233.491L228.967 64.6488Z" fill="white"/>
<path d="M99.6642 23.8367C99.6642 10.6805 88.3918 5.17527e-05 74.4687 5.17527e-05C70.0647 -0.00869847 65.7292 1.09229 61.8632 3.2016C57.9951 1.09331 53.6581 -0.00766903 49.2526 5.17527e-05C35.3243 5.17527e-05 24.0416 10.6805 24.0416 23.8367C24.0416 35.9635 45.4797 54.3647 48.8202 57.1545L62.0022 69.6107L78.7048 53.8345C85.8903 47.3233 99.6642 33.5649 99.6642 23.8367Z" fill="#D72930"/>
<path d="M49.2219 0C35.2884 0 24.0006 10.665 24.0006 23.8212C24.0006 36.9774 49.2219 57.5044 49.2219 57.5044C49.2219 57.5044 74.4431 36.9774 74.4431 23.8212C74.4431 10.665 63.1193 0 49.2219 0Z" fill="#FD4A5C"/>
</g>
</g>
</g>
<g clip-path="url(#clip3_117_525)">
<g clip-path="url(#clip4_117_525)">
<path fill-rule="evenodd" clip-rule="evenodd" d="M76.5013 119.966L75.7758 116.833H71.6492L70.9238 119.966H66.9334L71.4226 105.209H76.1386L80.6277 119.966H76.5014L76.5013 119.966ZM72.3522 113.813H75.0729L74.8235 112.792C74.4607 111.384 74.0979 109.59 73.7352 108.115H73.6446C73.3271 109.613 72.9643 111.384 72.6015 112.792L72.3522 113.813ZM86.0372 120.238C84.178 120.238 82.0467 119.557 80.4597 118.127L82.6815 115.448C83.7245 116.288 85.0396 116.878 86.1278 116.878C87.3069 116.878 87.8057 116.492 87.8057 115.834C87.8057 115.13 87.0574 114.903 85.8105 114.404L83.9739 113.632C82.3869 112.996 81.0038 111.656 81.0038 109.522C81.0038 107.002 83.2711 104.936 86.4905 104.936C88.1684 104.936 90.0276 105.572 91.3878 106.911L89.4381 109.364C88.4405 108.66 87.5789 108.296 86.4906 108.296C85.5384 108.296 84.9489 108.637 84.9489 109.295C84.9489 109.999 85.7878 110.249 87.1254 110.771L88.9166 111.475C90.753 112.201 91.796 113.473 91.796 115.516C91.796 118.014 89.7101 120.238 86.0372 120.238ZM97.7043 120.238C95.8452 120.238 93.7138 119.557 92.1269 118.127L94.3488 115.448C95.3917 116.288 96.7067 116.878 97.7949 116.878C98.974 116.878 99.4728 116.492 99.4728 115.834C99.4728 115.13 98.7245 114.903 97.4776 114.404L95.6411 113.632C94.054 112.996 92.6709 111.656 92.6709 109.522C92.6709 107.002 94.9382 104.936 98.1577 104.936C99.8355 104.936 101.695 105.572 103.055 106.911L101.105 109.364C100.108 108.66 99.246 108.296 98.1577 108.296C97.2055 108.296 96.616 108.637 96.616 109.295C96.616 109.999 97.4549 110.249 98.7925 110.771L100.584 111.475C102.42 112.201 103.463 113.473 103.463 115.516C103.463 118.014 101.377 120.238 97.7043 120.238ZM105.154 119.966V105.209H114.677V108.478H109.054V110.794H113.861V114.063H109.054V116.696H114.904V119.966L105.154 119.966ZM117.094 119.966V105.209H121.265L123.487 111.248C123.759 112.065 123.986 112.973 124.258 113.836H124.349C124.621 112.973 124.848 112.065 125.12 111.248L127.251 105.209H131.423V119.966H127.886V115.607C127.886 114.108 128.203 111.815 128.384 110.34H128.294L127.07 113.881L125.256 118.763H123.17L121.356 113.881L120.177 110.34H120.086C120.268 111.815 120.585 114.108 120.585 115.607V119.966L117.094 119.966ZM134.021 119.966V105.209H139.326C142.41 105.209 144.904 105.981 144.904 108.887C144.904 110.158 144.178 111.611 143.044 112.065V112.156C144.45 112.565 145.584 113.654 145.584 115.607C145.584 118.649 142.954 119.966 139.78 119.966H134.021ZM137.92 110.975H139.235C140.505 110.975 141.095 110.385 141.095 109.477C141.095 108.569 140.505 108.206 139.235 108.206H137.92L137.92 110.975ZM137.92 116.969H139.507C141.049 116.969 141.775 116.424 141.775 115.334C141.775 114.245 141.049 113.836 139.507 113.836H137.92V116.969ZM147.23 119.966V105.209H151.129V116.697H156.707V119.966L147.23 119.966ZM159.123 119.966V114.88L154.68 105.209H158.851L159.94 108.296C160.302 109.409 160.665 110.431 161.051 111.588H161.141C161.527 110.431 161.912 109.409 162.298 108.296L163.386 105.209H167.467L163.023 114.88V119.966H159.123ZM68.7924 139.331V124.573H78.4058V127.843H72.692V130.658H77.5894V133.927H72.692V139.331H68.7924ZM86.264 139.603C82.1829 139.603 79.4169 136.742 79.4169 131.884C79.4169 127.025 82.1829 124.301 86.264 124.301C90.3452 124.301 93.1112 127.048 93.1112 131.884C93.1112 136.743 90.3452 139.603 86.264 139.603ZM86.264 136.243C88.0325 136.243 89.1208 134.563 89.1208 131.884C89.1208 129.205 88.0325 127.661 86.264 127.661C84.4956 127.661 83.4073 129.205 83.4073 131.884C83.4073 134.563 84.4956 136.243 86.264 136.243V136.243ZM101.105 139.603C96.9789 139.603 94.9837 137.242 94.9837 132.202V124.573H98.8835V132.656C98.8835 135.289 99.5635 136.243 101.105 136.243C102.647 136.243 103.373 135.289 103.373 132.656V124.573H107.136V132.202C107.136 137.242 105.232 139.603 101.105 139.603ZM121.932 139.331H117.579L115.04 134.381H113.543V139.331H109.644V124.573H115.221C118.395 124.573 121.116 125.663 121.116 129.341C121.116 131.453 120.164 132.837 118.735 133.609L121.932 139.331ZM113.543 127.661V131.294H114.949C116.491 131.294 117.307 130.613 117.307 129.341C117.307 128.07 116.491 127.661 114.949 127.661H113.543V127.661Z" fill="white"/>
<path fill-rule="evenodd" clip-rule="evenodd" d="M50.5335 128.539L46.2047 139.337H42.0001L46.4489 128.537L50.5335 128.539Z" fill="#A442FF"/>
<path fill-rule="evenodd" clip-rule="evenodd" d="M56.4271 113.677L52.8605 122.609H56.4271V113.677ZM60.3501 139.306L56.4523 139.336V126.337H47.3332L56.1205 105.07H60.3501V122.597H64.5333V126.27H60.3501V139.306Z" fill="#A442FF"/>
<path fill-rule="evenodd" clip-rule="evenodd" d="M125.721 139.203V132.097H128.323C129.876 132.097 131.21 132.665 131.21 134.458C131.21 136.197 129.854 136.951 128.367 136.951H127.602V139.203H125.721ZM127.602 135.464H128.28C129.023 135.464 129.373 135.092 129.373 134.458C129.373 133.824 128.958 133.583 128.236 133.583H127.602V135.464ZM137.973 139.203H135.874L134.649 136.82H133.928V139.203H132.047V132.097H134.737C136.267 132.097 137.579 132.621 137.579 134.393C137.579 135.409 137.12 136.076 136.431 136.448L137.973 139.203ZM133.928 133.583V135.333H134.606C135.349 135.333 135.743 135.005 135.743 134.393C135.743 133.78 135.349 133.583 134.606 133.583H133.928ZM141.609 139.334C139.641 139.334 138.307 137.957 138.307 135.617C138.307 133.277 139.641 131.965 141.609 131.965C143.577 131.965 144.911 133.288 144.911 135.617C144.911 137.957 143.577 139.334 141.609 139.334ZM141.609 137.716C142.462 137.716 142.987 136.907 142.987 135.617C142.987 134.327 142.462 133.583 141.609 133.583C140.756 133.583 140.232 134.327 140.232 135.617C140.232 136.907 140.756 137.716 141.609 137.716ZM146.951 139.334C145.792 139.334 145.049 138.897 144.524 137.99L145.792 137.038C146.033 137.498 146.383 137.716 146.689 137.716C147.192 137.716 147.476 137.476 147.476 136.579V132.097H149.357V136.732C149.357 138.154 148.591 139.334 146.951 139.334ZM150.566 139.203V132.097H155.158V133.671H152.446V134.786H154.764V136.361H152.446V137.629H155.267V139.203H150.566ZM159.406 139.334C157.591 139.334 156.017 138.132 156.017 135.705C156.017 133.321 157.657 131.965 159.45 131.965C160.39 131.965 161.156 132.403 161.659 132.906L160.675 134.108C160.325 133.802 159.975 133.583 159.494 133.583C158.663 133.583 157.941 134.349 157.941 135.639C157.941 136.973 158.553 137.716 159.472 137.716C160.019 137.716 160.456 137.432 160.762 137.104L161.746 138.285C161.145 138.985 160.325 139.334 159.406 139.334ZM163.655 139.203V133.671H161.774V132.097H167.416V133.671H165.535V139.203H163.655ZM31.5716 139.203L31.2217 137.694H29.2319L28.882 139.203H26.9577L29.1225 132.097H31.3967L33.5615 139.203H31.5716ZM29.5708 136.24H30.8828L30.7625 135.748C30.5876 135.07 30.4127 134.207 30.2377 133.496H30.194C30.0409 134.218 29.866 135.07 29.6911 135.748L29.5708 136.24ZM33.9177 139.203V132.097H35.842L37.4164 135.267L38.0943 136.863H38.138C38.0506 136.098 37.8975 135.027 37.8975 134.152V132.097H39.6906V139.203H37.7663L36.1919 136.022L35.514 134.436H35.4703C35.5578 135.245 35.7108 136.273 35.7108 137.148V139.203H33.9177Z" fill="white"/>
</g>
</g>
<defs>
<clipPath id="clip0_117_525">
<rect width="210" height="70" fill="white" transform="translate(24.0006)"/>
</clipPath>
<clipPath id="clip1_117_525">
<rect width="210" height="70" fill="white" transform="translate(24.0006)"/>
</clipPath>
<clipPath id="clip2_117_525">
<rect width="210" height="70" fill="white" transform="translate(24.0006)"/>
</clipPath>
<clipPath id="clip3_117_525">
<rect width="148.53" height="40" fill="white" transform="translate(24.0006 102.003)"/>
</clipPath>
<clipPath id="clip4_117_525">
<rect width="148.53" height="40" fill="white" transform="translate(24.0006 102.003)"/>
</clipPath>
</defs>
</svg>
