<svg width="150" height="48" viewBox="0 0 150 48" fill="none" xmlns="http://www.w3.org/2000/svg">
<g clip-path="url(#clip0_117_350)">
<path d="M39.6323 18.1521C39.6323 11.2609 33.7279 5.66653 26.435 5.66653C24.1282 5.66195 21.8573 6.23864 19.8323 7.34349C17.8062 6.23918 15.5344 5.66249 13.2269 5.66653C5.93129 5.66653 0.0214844 11.2609 0.0214844 18.1521C0.0214844 24.504 11.2507 34.1425 13.0004 35.6038L19.9051 42.1283L28.6538 33.8648C32.4176 30.4543 39.6323 23.2477 39.6323 18.1521Z" fill="#FD4A5C"/>
<path d="M13.2108 5.6665C5.9125 5.6665 0 11.2528 0 18.144C0 25.0351 13.2108 35.7871 13.2108 35.7871C13.2108 35.7871 26.4216 25.0351 26.4216 18.144C26.4216 11.2528 20.4902 5.6665 13.2108 5.6665Z" fill="#D7282F"/>
<path d="M56.2702 14.9411L53.5742 14.9627C53.3517 14.9627 53.1684 14.7807 53.167 14.5583V11.296C53.167 11.0741 52.9845 10.8916 52.7626 10.8916H48.7185C48.4966 10.8916 48.3141 11.0741 48.3141 11.296V14.9654H46.292C46.2397 14.9651 46.192 14.9958 46.1707 15.0436L44.5153 18.5754C44.5072 18.5932 44.5029 18.6124 44.5029 18.632C44.5029 18.7056 44.5631 18.7663 44.6367 18.7668H47.9151C48.1359 18.7682 48.3168 18.9504 48.3168 19.1713V25.348C48.3168 27.8445 49.2496 30.7401 53.1158 30.7401C54.2325 30.7253 55.3342 30.4792 56.3511 30.0176C56.535 29.9345 56.6294 29.7251 56.5695 29.5323L55.6151 26.4291C55.5625 26.2574 55.4029 26.1395 55.2233 26.1395C55.1611 26.1395 55.0996 26.1538 55.0435 26.1811C54.7984 26.2997 54.531 26.3649 54.259 26.3725C53.4906 26.3725 53.1617 25.7416 53.1617 24.4232V19.1686C53.1617 18.9488 53.3409 18.7671 53.5607 18.7642L56.2702 18.7426C56.49 18.7396 56.6693 18.5579 56.6693 18.3382V15.3428C56.6693 15.1234 56.4897 14.9425 56.2702 14.9411Z" fill="white"/>
<path d="M68.2377 14.7335C67.984 14.6979 67.7281 14.6806 67.472 14.6822C66.2957 14.6766 65.1685 15.1592 64.3607 16.0141C63.7161 16.6423 63.1771 17.3708 62.7646 18.171C62.7412 18.2144 62.6956 18.2419 62.646 18.2419C62.5721 18.2419 62.5112 18.1809 62.5112 18.1071V18.1063V15.1028C62.5112 15.0289 62.4503 14.968 62.3764 14.968H57.5936C57.5927 14.968 57.5917 14.968 57.5909 14.968C57.517 14.968 57.4561 15.0289 57.4561 15.1028V29.6293C57.4561 29.7048 57.5181 29.7668 57.5936 29.7668H62.3764C62.4503 29.7668 62.5112 29.7059 62.5112 29.632C62.5112 29.6312 62.5112 29.6301 62.5112 29.6293V23.919C62.5088 23.9028 62.5088 23.8866 62.5112 23.8705C63.0324 22.4558 63.5716 21.4852 64.1288 20.9587C64.674 20.44 65.4011 20.1553 66.1536 20.1661C66.9624 20.1661 67.7712 20.5219 68.5639 21.231C68.5884 21.255 68.6216 21.2682 68.6558 21.2682C68.7108 21.2682 68.7604 21.234 68.7796 21.1825L69.8284 18.4352C69.8405 18.402 69.8405 18.3659 69.8284 18.3327L68.2377 14.7335Z" fill="white"/>
<path d="M86.7435 14.9629H82.2492C82.0882 14.9624 81.9416 15.0581 81.8771 15.2055L78.6418 22.7357C78.6205 22.7866 78.5704 22.8198 78.5151 22.8198C78.4598 22.8198 78.4097 22.7866 78.3884 22.7357L75.2771 15.2109C75.2135 15.0608 75.0655 14.9629 74.9024 14.9629H69.2109L75.4874 28.7129C75.5373 28.8215 75.5373 28.9466 75.4874 29.0553L71.5215 37.4805C71.4969 37.5339 71.4843 37.5919 71.4843 37.6504C71.4843 37.8734 71.6679 38.0572 71.8908 38.0575H76.5982C76.7573 38.0586 76.9026 37.9653 76.9676 37.8202L87.1129 15.5345C87.1366 15.4819 87.149 15.425 87.149 15.3673C87.149 15.1454 86.9665 14.9629 86.7446 14.9629C86.7443 14.9629 86.7438 14.9629 86.7435 14.9629Z" fill="white"/>
<path d="M93.9748 20.6244C92.6645 20.2066 91.5915 19.9693 91.5915 19.1659C91.5915 18.4514 92.0687 18.2411 93.2307 18.2411C94.5922 18.2411 96.0805 18.9259 96.5038 19.1362C96.5218 19.1446 96.5412 19.1492 96.5612 19.1492C96.6143 19.1492 96.6628 19.1176 96.6844 19.0688L98.2266 15.8335C98.2355 15.8155 98.2403 15.7952 98.2403 15.775C98.2403 15.7241 98.2107 15.6774 98.1646 15.6556C96.6224 14.9271 94.9363 14.554 93.2307 14.5637C89.2109 14.5637 86.5606 16.3512 86.5606 19.4759C86.5606 21.7676 88.1109 22.8406 89.6584 23.6441C91.3839 24.5365 93.0501 24.6254 93.0501 25.7281C93.0501 26.7392 92.1577 26.8281 91.4136 26.8281C90.141 26.8281 88.6501 25.8414 87.9842 25.3453C87.9151 25.2946 87.8318 25.2671 87.7461 25.2671C87.6035 25.2671 87.4711 25.3434 87.3991 25.4666L85.6682 28.3757C85.5558 28.5533 85.6008 28.7909 85.7707 28.9149C87.4026 30.1063 89.377 30.7382 91.3974 30.7159C94.5221 30.7159 98.631 30.0014 98.631 25.507C98.6175 22.3823 95.9969 21.2472 93.9748 20.6244Z" fill="white"/>
<path d="M106.854 18.7642L109.55 18.7426C109.77 18.7396 109.95 18.5584 109.952 18.3382V15.3455C109.952 15.3447 109.952 15.3436 109.952 15.3428C109.952 15.1223 109.77 14.9411 109.55 14.9411C109.548 14.9411 109.546 14.9411 109.545 14.9411L106.848 14.9627C106.848 14.9627 106.847 14.9627 106.846 14.9627C106.624 14.9627 106.441 14.7802 106.441 14.5583V11.296C106.44 11.0736 106.257 10.8916 106.034 10.8916H101.99C101.768 10.8916 101.586 11.0741 101.586 11.296V14.9654H99.561C99.5079 14.9648 99.4593 14.9953 99.437 15.0436L97.7843 18.5727C97.7751 18.5911 97.7705 18.6116 97.7705 18.632C97.7705 18.7059 97.8314 18.7668 97.9053 18.7668H97.9056H101.181C101.403 18.7668 101.586 18.9494 101.586 19.1713V25.348C101.586 27.8445 102.519 30.7401 106.382 30.7401C107.499 30.7245 108.6 30.4786 109.617 30.0176C109.801 29.9345 109.895 29.7245 109.833 29.5323L108.906 26.3994C108.854 26.2293 108.696 26.1123 108.518 26.1123C108.456 26.1123 108.395 26.1266 108.339 26.1541C108.093 26.2743 107.824 26.3404 107.549 26.3482C106.784 26.3482 106.455 25.7173 106.455 24.399V19.1686C106.455 18.9488 106.634 18.7671 106.854 18.7642Z" fill="white"/>
<path d="M90.4406 41.3087C90.4406 41.8678 89.9806 42.3278 89.4215 42.3278C88.8623 42.3278 88.4023 41.8678 88.4023 41.3087C88.4023 40.7495 88.8623 40.2896 89.4215 40.2896C89.9806 40.2896 90.4406 40.7495 90.4406 41.3087Z" fill="white"/>
<path d="M91.8125 33.7842H93.5299V42.142H91.8125V33.7842Z" fill="white"/>
<path d="M96.5978 35.0943C96.5978 35.6535 96.1379 36.1134 95.5787 36.1134C95.0195 36.1134 94.5596 35.6535 94.5596 35.0943C94.5596 34.5351 95.0195 34.0752 95.5787 34.0752C96.1379 34.0752 96.5978 34.5351 96.5978 35.0943ZM94.6944 42.1284H96.4118V37.1514H94.6944V42.1284Z" fill="white"/>
<path d="M97.6279 37.1514H99.3453V37.6745H99.3642C99.732 37.2714 100.245 37.0307 100.79 37.0059C101.702 37.0059 102.974 37.4615 102.974 38.85V42.1284H101.257V39.3137C101.258 39.2975 101.258 39.2811 101.258 39.2646C101.258 38.7696 100.859 38.3582 100.364 38.3431C99.8306 38.3617 99.3898 38.7812 99.3453 39.3137V42.1284H97.6279V37.1514Z" fill="white"/>
<path d="M107.361 39.5295L109.963 42.1285H107.749L105.759 40.1388V42.1285H104.042V33.7842H105.759V38.8879L107.498 37.1516H109.731L107.361 39.5295Z" fill="white"/>
<path d="M39.6323 18.1521C39.6323 11.2609 33.7279 5.66653 26.435 5.66653C24.1282 5.66195 21.8573 6.23864 19.8323 7.34349C17.8062 6.23918 15.5344 5.66249 13.2269 5.66653C5.93129 5.66653 0.0214844 11.2609 0.0214844 18.1521C0.0214844 24.504 11.2507 34.1425 13.0004 35.6038L19.9051 42.1283L28.6538 33.8648C32.4176 30.4543 39.6323 23.2477 39.6323 18.1521Z" fill="#D72930"/>
<path d="M13.2108 5.6665C5.9125 5.6665 0 11.2528 0 18.144C0 25.0351 13.2108 35.7871 13.2108 35.7871C13.2108 35.7871 26.4216 25.0351 26.4216 18.144C26.4216 11.2528 20.4902 5.6665 13.2108 5.6665Z" fill="#FD4A5C"/>
</g>
<defs>
<clipPath id="clip0_117_350">
<rect width="110" height="48" fill="white"/>
</clipPath>
</defs>
</svg>
