<svg width="37" height="20" viewBox="0 0 37 20" fill="none" xmlns="http://www.w3.org/2000/svg">
<g clip-path="url(#clip0_88_7021)">
<path d="M14.9998 14.166V18.3327H13.3332V14.166C13.3332 10.4568 15.5365 7.26185 18.7057 5.81935L19.3957 7.33602C18.0846 7.93233 16.9729 8.89347 16.1934 10.1046C15.4139 11.3158 14.9996 12.7257 14.9998 14.166ZM6.6665 14.166V18.3327H4.99984V14.166C4.99996 12.7258 4.58553 11.3161 3.80603 10.1051C3.02654 8.89412 1.91494 7.93311 0.604004 7.33685L1.294 5.81935C2.89624 6.54809 4.25484 7.72265 5.20752 9.20273C6.1602 10.6828 6.6667 12.4058 6.6665 14.166ZM9.99984 9.99935C8.89477 9.99935 7.83496 9.56036 7.05356 8.77896C6.27216 7.99756 5.83317 6.93775 5.83317 5.83268C5.83317 4.72761 6.27216 3.66781 7.05356 2.8864C7.83496 2.105 8.89477 1.66602 9.99984 1.66602C11.1049 1.66602 12.1647 2.105 12.9461 2.8864C13.7275 3.66781 14.1665 4.72761 14.1665 5.83268C14.1665 6.93775 13.7275 7.99756 12.9461 8.77896C12.1647 9.56036 11.1049 9.99935 9.99984 9.99935ZM9.99984 8.33268C10.3281 8.33268 10.6532 8.26802 10.9565 8.14238C11.2599 8.01674 11.5355 7.8326 11.7676 7.60045C11.9998 7.3683 12.1839 7.0927 12.3095 6.78939C12.4352 6.48608 12.4998 6.16099 12.4998 5.83268C12.4998 5.50438 12.4352 5.17929 12.3095 4.87597C12.1839 4.57266 11.9998 4.29706 11.7676 4.06492C11.5355 3.83277 11.2599 3.64862 10.9565 3.52298C10.6532 3.39735 10.3281 3.33268 9.99984 3.33268C9.3368 3.33268 8.70091 3.59607 8.23207 4.06492C7.76323 4.53376 7.49984 5.16964 7.49984 5.83268C7.49984 6.49572 7.76323 7.13161 8.23207 7.60045C8.70091 8.06929 9.3368 8.33268 9.99984 8.33268Z" fill="#433E42"/>
</g>
<defs>
<clipPath id="clip0_88_7021">
<rect width="20" height="20" fill="white"/>
</clipPath>
</defs>
</svg>
