<svg width="37" height="20" viewBox="0 0 37 20" fill="none" xmlns="http://www.w3.org/2000/svg">
<g clip-path="url(#clip0_88_6965)">
<path d="M1.6665 18.334C1.6665 16.5659 2.36888 14.8702 3.61913 13.6199C4.86937 12.3697 6.56506 11.6673 8.33317 11.6673C10.1013 11.6673 11.797 12.3697 13.0472 13.6199C14.2975 14.8702 14.9998 16.5659 14.9998 18.334H13.3332C13.3332 17.0079 12.8064 15.7361 11.8687 14.7984C10.931 13.8608 9.65925 13.334 8.33317 13.334C7.00709 13.334 5.73532 13.8608 4.79764 14.7984C3.85995 15.7361 3.33317 17.0079 3.33317 18.334H1.6665ZM8.33317 10.834C5.57067 10.834 3.33317 8.59648 3.33317 5.83398C3.33317 3.07148 5.57067 0.833984 8.33317 0.833984C11.0957 0.833984 13.3332 3.07148 13.3332 5.83398C13.3332 8.59648 11.0957 10.834 8.33317 10.834ZM8.33317 9.16732C10.1748 9.16732 11.6665 7.67565 11.6665 5.83398C11.6665 3.99232 10.1748 2.50065 8.33317 2.50065C6.4915 2.50065 4.99984 3.99232 4.99984 5.83398C4.99984 7.67565 6.4915 9.16732 8.33317 9.16732ZM15.2365 12.2532C16.4076 12.7806 17.4015 13.635 18.0987 14.7137C18.7958 15.7925 19.1666 17.0496 19.1665 18.334H17.4998C17.5 17.3706 17.222 16.4277 16.6991 15.6186C16.1762 14.8095 15.4307 14.1687 14.5523 13.7732L15.2365 12.2532ZM14.6632 2.84482C15.5028 3.1909 16.2206 3.7786 16.7257 4.53334C17.2307 5.28809 17.5002 6.17585 17.4998 7.08398C17.5002 8.22759 17.0729 9.33001 16.302 10.1747C15.531 11.0193 14.4721 11.5452 13.3332 11.649V9.97148C13.9506 9.88305 14.5235 9.599 14.9676 9.16103C15.4117 8.72307 15.7037 8.15425 15.8008 7.5381C15.8979 6.92194 15.7948 6.2909 15.5068 5.73761C15.2188 5.18433 14.761 4.73794 14.2007 4.46398L14.6632 2.84482Z" fill="#433E42"/>
</g>
<defs>
<clipPath id="clip0_88_6965">
<rect width="20" height="20" fill="white"/>
</clipPath>
</defs>
</svg>
