<svg width="4" height="10" viewBox="0 0 4 10" fill="none" xmlns="http://www.w3.org/2000/svg">
<path d="M3.125 8.4375C3.125 9.31641 2.42188 10 1.5625 10C0.683594 10 0 9.31641 0 8.4375C0 7.57812 0.683594 6.875 1.5625 6.875C2.42188 6.875 3.125 7.57812 3.125 8.4375ZM0.175781 0.507812C0.15625 0.234375 0.371094 0 0.644531 0H2.46094C2.73438 0 2.94922 0.234375 2.92969 0.507812L2.67578 5.82031C2.65625 6.05469 2.44141 6.25 2.20703 6.25H0.898438C0.664062 6.25 0.449219 6.05469 0.429688 5.82031L0.175781 0.507812Z" fill="white"/>
</svg>
