<svg width="37" height="20" viewBox="0 0 37 20" fill="none" xmlns="http://www.w3.org/2000/svg">
<g clip-path="url(#clip0_88_6959)">
<path d="M9.99984 9.16602C11.1049 9.16602 12.1647 9.605 12.9461 10.3864C13.7275 11.1678 14.1665 12.2276 14.1665 13.3327V18.3327H12.4998V13.3327C12.4999 12.695 12.2562 12.0814 11.8188 11.6175C11.3813 11.1535 10.7831 10.8743 10.1465 10.8368L9.99984 10.8327C9.36216 10.8326 8.74857 11.0763 8.28462 11.5138C7.82066 11.9512 7.54141 12.5494 7.504 13.186L7.49984 13.3327V18.3327H5.83317V13.3327C5.83317 12.2276 6.27216 11.1678 7.05356 10.3864C7.83496 9.605 8.89477 9.16602 9.99984 9.16602ZM4.58317 11.666C4.81567 11.666 5.0415 11.6935 5.25817 11.7443C5.11569 12.1685 5.03131 12.61 5.00734 13.0568L4.99984 13.3327V13.4043C4.90405 13.3701 4.80441 13.3477 4.70317 13.3377L4.58317 13.3327C4.27243 13.3327 3.97284 13.4484 3.74282 13.6574C3.5128 13.8663 3.36883 14.1534 3.339 14.4627L3.33317 14.5827V18.3327H1.6665V14.5827C1.6665 13.8091 1.97379 13.0673 2.52078 12.5203C3.06776 11.9733 3.80962 11.666 4.58317 11.666ZM15.4165 11.666C16.1901 11.666 16.9319 11.9733 17.4789 12.5203C18.0259 13.0673 18.3332 13.8091 18.3332 14.5827V18.3327H16.6665V14.5827C16.6665 14.2719 16.5507 13.9724 16.3418 13.7423C16.1329 13.5123 15.8458 13.3683 15.5365 13.3385L15.4165 13.3327C15.2707 13.3327 15.1307 13.3577 14.9998 13.4035V13.3327C14.9998 12.7777 14.9098 12.2443 14.7423 11.746C14.9582 11.6935 15.184 11.666 15.4165 11.666ZM4.58317 6.66602C5.1357 6.66602 5.66561 6.88551 6.05631 7.27621C6.44701 7.66691 6.6665 8.19681 6.6665 8.74935C6.6665 9.30188 6.44701 9.83179 6.05631 10.2225C5.66561 10.6132 5.1357 10.8327 4.58317 10.8327C4.03064 10.8327 3.50073 10.6132 3.11003 10.2225C2.71933 9.83179 2.49984 9.30188 2.49984 8.74935C2.49984 8.19681 2.71933 7.66691 3.11003 7.27621C3.50073 6.88551 4.03064 6.66602 4.58317 6.66602ZM15.4165 6.66602C15.969 6.66602 16.4989 6.88551 16.8896 7.27621C17.2803 7.66691 17.4998 8.19681 17.4998 8.74935C17.4998 9.30188 17.2803 9.83179 16.8896 10.2225C16.4989 10.6132 15.969 10.8327 15.4165 10.8327C14.864 10.8327 14.3341 10.6132 13.9434 10.2225C13.5527 9.83179 13.3332 9.30188 13.3332 8.74935C13.3332 8.19681 13.5527 7.66691 13.9434 7.27621C14.3341 6.88551 14.864 6.66602 15.4165 6.66602ZM4.58317 8.33268C4.47266 8.33268 4.36668 8.37658 4.28854 8.45472C4.2104 8.53286 4.1665 8.63884 4.1665 8.74935C4.1665 8.85986 4.2104 8.96584 4.28854 9.04398C4.36668 9.12212 4.47266 9.16602 4.58317 9.16602C4.69368 9.16602 4.79966 9.12212 4.8778 9.04398C4.95594 8.96584 4.99984 8.85986 4.99984 8.74935C4.99984 8.63884 4.95594 8.53286 4.8778 8.45472C4.79966 8.37658 4.69368 8.33268 4.58317 8.33268ZM15.4165 8.33268C15.306 8.33268 15.2 8.37658 15.1219 8.45472C15.0437 8.53286 14.9998 8.63884 14.9998 8.74935C14.9998 8.85986 15.0437 8.96584 15.1219 9.04398C15.2 9.12212 15.306 9.16602 15.4165 9.16602C15.527 9.16602 15.633 9.12212 15.7111 9.04398C15.7893 8.96584 15.8332 8.85986 15.8332 8.74935C15.8332 8.63884 15.7893 8.53286 15.7111 8.45472C15.633 8.37658 15.527 8.33268 15.4165 8.33268ZM9.99984 1.66602C10.8839 1.66602 11.7317 2.01721 12.3569 2.64233C12.982 3.26745 13.3332 4.11529 13.3332 4.99935C13.3332 5.8834 12.982 6.73125 12.3569 7.35637C11.7317 7.98149 10.8839 8.33268 9.99984 8.33268C9.11578 8.33268 8.26794 7.98149 7.64281 7.35637C7.01769 6.73125 6.6665 5.8834 6.6665 4.99935C6.6665 4.11529 7.01769 3.26745 7.64281 2.64233C8.26794 2.01721 9.11578 1.66602 9.99984 1.66602ZM9.99984 3.33268C9.55781 3.33268 9.13389 3.50828 8.82133 3.82084C8.50877 4.1334 8.33317 4.55732 8.33317 4.99935C8.33317 5.44138 8.50877 5.8653 8.82133 6.17786C9.13389 6.49042 9.55781 6.66602 9.99984 6.66602C10.4419 6.66602 10.8658 6.49042 11.1783 6.17786C11.4909 5.8653 11.6665 5.44138 11.6665 4.99935C11.6665 4.55732 11.4909 4.1334 11.1783 3.82084C10.8658 3.50828 10.4419 3.33268 9.99984 3.33268Z" fill="#433E42"/>
</g>
<defs>
<clipPath id="clip0_88_6959">
<rect width="20" height="20" fill="white"/>
</clipPath>
</defs>
</svg>
